<svg id="svg" version="1.1" xmlns="http://www.w3.org/2000/svg" xmlns:xlink="http://www.w3.org/1999/xlink" width="400" height="400" viewBox="0, 0, 400,400"><g id="svgg"><path id="path0" d="M194.800 4.800 C 194.800 5.579,194.533 5.600,184.600 5.600 C 174.933 5.600,174.358 5.642,173.600 6.400 C 172.896 7.104,172.267 7.200,168.344 7.200 C 164.901 7.200,163.787 7.333,163.444 7.786 C 163.141 8.185,161.822 8.458,159.300 8.643 C 156.585 8.842,155.600 9.059,155.600 9.457 C 155.600 9.851,154.967 10.002,153.300 10.005 C 150.447 10.012,149.200 10.329,149.200 11.047 C 149.200 11.447,148.619 11.602,147.100 11.605 C 144.439 11.612,143.200 11.943,143.200 12.647 C 143.200 13.052,142.601 13.200,140.963 13.200 C 139.062 13.200,138.694 13.320,138.516 14.000 C 138.339 14.677,137.970 14.800,136.116 14.800 C 134.262 14.800,133.893 14.923,133.716 15.600 C 133.553 16.223,133.170 16.400,131.986 16.400 C 130.077 16.400,129.200 16.728,129.200 17.443 C 129.200 17.826,128.701 18.000,127.600 18.000 C 126.267 18.000,126.000 18.133,126.000 18.800 C 126.000 19.505,125.733 19.600,123.763 19.600 C 121.862 19.600,121.494 19.720,121.316 20.400 C 121.152 21.027,120.770 21.200,119.553 21.200 C 118.267 21.200,118.000 21.337,118.000 22.000 C 118.000 22.667,117.733 22.800,116.400 22.800 C 115.067 22.800,114.800 22.933,114.800 23.600 C 114.800 24.267,114.533 24.400,113.200 24.400 C 112.067 24.400,111.600 24.570,111.600 24.982 C 111.600 25.330,111.038 25.669,110.200 25.826 C 109.430 25.971,108.800 26.316,108.800 26.593 C 108.800 26.873,108.085 27.212,107.200 27.354 C 106.232 27.508,105.600 27.827,105.600 28.160 C 105.600 28.475,104.990 28.825,104.179 28.978 C 103.397 29.124,102.658 29.504,102.536 29.822 C 102.414 30.140,102.017 30.400,101.653 30.400 C 101.290 30.400,100.768 30.760,100.493 31.200 C 100.203 31.665,99.560 32.000,98.959 32.000 C 98.262 32.000,97.857 32.260,97.716 32.800 C 97.601 33.240,97.182 33.600,96.786 33.600 C 95.638 33.600,94.800 34.040,94.800 34.643 C 94.800 34.949,94.452 35.200,94.027 35.200 C 93.602 35.200,93.140 35.560,93.000 36.000 C 92.811 36.595,92.395 36.800,91.373 36.800 C 90.267 36.800,90.000 36.955,90.000 37.600 C 90.000 38.133,89.733 38.400,89.200 38.400 C 88.667 38.400,88.400 38.667,88.400 39.200 C 88.400 39.820,88.133 40.000,87.214 40.000 C 86.438 40.000,85.880 40.276,85.600 40.800 C 85.365 41.240,84.818 41.600,84.386 41.600 C 83.954 41.600,83.600 41.849,83.600 42.153 C 83.600 42.458,83.240 42.801,82.800 42.916 C 82.360 43.031,82.000 43.392,82.000 43.718 C 82.000 44.079,81.452 44.414,80.600 44.574 C 79.762 44.731,79.200 45.070,79.200 45.418 C 79.200 45.738,78.852 46.000,78.427 46.000 C 78.002 46.000,77.540 46.360,77.400 46.800 C 77.260 47.240,76.888 47.600,76.573 47.600 C 76.258 47.600,76.000 47.887,76.000 48.237 C 76.000 48.588,75.640 48.969,75.200 49.084 C 74.757 49.200,74.400 49.630,74.400 50.047 C 74.400 50.499,74.119 50.800,73.696 50.800 C 73.309 50.800,72.768 51.160,72.493 51.600 C 72.203 52.065,71.560 52.400,70.959 52.400 C 70.278 52.400,69.857 52.661,69.726 53.163 C 69.616 53.583,69.183 54.016,68.763 54.126 C 68.343 54.235,68.000 54.612,68.000 54.963 C 68.000 55.333,67.665 55.600,67.200 55.600 C 66.667 55.600,66.400 55.867,66.400 56.400 C 66.400 56.933,66.133 57.200,65.600 57.200 C 65.067 57.200,64.800 57.467,64.800 58.000 C 64.800 58.533,64.533 58.800,64.000 58.800 C 63.560 58.800,63.200 59.058,63.200 59.373 C 63.200 59.688,62.840 60.060,62.400 60.200 C 61.960 60.340,61.600 60.712,61.600 61.027 C 61.600 61.342,61.342 61.600,61.027 61.600 C 60.712 61.600,60.340 61.960,60.200 62.400 C 60.060 62.840,59.688 63.200,59.373 63.200 C 59.058 63.200,58.800 63.560,58.800 64.000 C 58.800 64.533,58.533 64.800,58.000 64.800 C 57.467 64.800,57.200 65.067,57.200 65.600 C 57.200 66.133,56.933 66.400,56.400 66.400 C 55.883 66.400,55.600 66.667,55.600 67.153 C 55.600 67.570,55.243 68.000,54.800 68.116 C 54.360 68.231,54.000 68.591,54.000 68.916 C 54.000 69.241,53.640 69.601,53.200 69.716 C 52.760 69.831,52.400 70.212,52.400 70.563 C 52.400 70.913,52.040 71.560,51.600 72.000 C 51.160 72.440,50.800 73.160,50.800 73.600 C 50.800 74.133,50.533 74.400,50.000 74.400 C 49.467 74.400,49.200 74.667,49.200 75.200 C 49.200 75.733,48.933 76.000,48.400 76.000 C 47.960 76.000,47.600 76.264,47.600 76.586 C 47.600 76.908,47.240 77.365,46.800 77.600 C 46.360 77.835,46.000 78.292,46.000 78.614 C 46.000 78.936,45.738 79.200,45.418 79.200 C 45.070 79.200,44.731 79.762,44.574 80.600 C 44.414 81.452,44.079 82.000,43.718 82.000 C 43.392 82.000,43.031 82.360,42.916 82.800 C 42.801 83.240,42.458 83.600,42.153 83.600 C 41.830 83.600,41.600 84.015,41.600 84.600 C 41.600 85.188,41.370 85.600,41.043 85.600 C 40.431 85.600,40.000 86.441,40.000 87.633 C 40.000 88.133,39.722 88.400,39.200 88.400 C 38.667 88.400,38.400 88.667,38.400 89.200 C 38.400 89.733,38.133 90.000,37.600 90.000 C 36.955 90.000,36.800 90.267,36.800 91.373 C 36.800 92.395,36.595 92.811,36.000 93.000 C 35.560 93.140,35.200 93.512,35.200 93.827 C 35.200 94.142,34.840 94.760,34.400 95.200 C 33.960 95.640,33.600 96.339,33.600 96.753 C 33.600 97.170,33.243 97.600,32.800 97.716 C 32.187 97.876,32.000 98.262,32.000 99.363 C 32.000 100.533,31.852 100.800,31.200 100.800 C 30.663 100.800,30.400 101.067,30.400 101.613 C 30.400 102.059,30.135 102.527,29.811 102.651 C 29.487 102.776,29.107 103.490,28.966 104.239 C 28.826 104.987,28.477 105.600,28.191 105.600 C 27.895 105.600,27.553 106.292,27.400 107.200 C 27.247 108.108,26.905 108.800,26.609 108.800 C 26.323 108.800,25.971 109.430,25.826 110.200 C 25.669 111.038,25.330 111.600,24.982 111.600 C 24.570 111.600,24.400 112.067,24.400 113.200 C 24.400 114.533,24.267 114.800,23.600 114.800 C 22.937 114.800,22.800 115.067,22.800 116.353 C 22.800 117.570,22.627 117.952,22.000 118.116 C 21.394 118.275,21.200 118.662,21.200 119.716 C 21.200 120.770,21.006 121.157,20.400 121.316 C 19.730 121.491,19.600 121.862,19.600 123.600 C 19.600 125.338,19.470 125.709,18.800 125.884 C 18.173 126.048,18.000 126.430,18.000 127.647 C 18.000 128.708,17.823 129.200,17.443 129.200 C 16.728 129.200,16.400 130.077,16.400 131.986 C 16.400 133.170,16.223 133.553,15.600 133.716 C 14.923 133.893,14.800 134.262,14.800 136.116 C 14.800 137.970,14.677 138.339,14.000 138.516 C 13.320 138.694,13.200 139.062,13.200 140.963 C 13.200 142.601,13.052 143.200,12.647 143.200 C 11.966 143.200,11.613 144.427,11.605 146.811 C 11.602 148.123,11.379 148.811,10.800 149.307 C 10.141 149.871,10.000 150.487,10.000 152.796 C 10.000 154.905,9.864 155.600,9.452 155.600 C 9.048 155.600,8.828 156.559,8.620 159.225 C 8.419 161.786,8.169 162.914,7.768 163.068 C 7.321 163.239,7.200 164.302,7.200 168.043 C 7.200 172.533,7.155 172.800,6.400 172.800 C 5.628 172.800,5.600 173.067,5.600 180.553 C 5.600 187.970,5.565 188.316,4.800 188.516 C 4.024 188.719,4.000 189.062,4.000 200.163 C 4.000 211.067,4.037 211.637,4.800 212.400 C 5.542 213.142,5.600 213.733,5.600 220.597 C 5.600 227.560,5.647 228.022,6.400 228.493 C 7.121 228.943,7.200 229.426,7.200 233.352 C 7.200 236.763,7.331 237.808,7.800 238.156 C 8.219 238.466,8.478 239.713,8.660 242.300 C 8.850 245.011,9.064 246.000,9.460 246.000 C 9.840 246.000,10.000 246.579,10.000 247.950 C 10.000 250.685,10.405 252.400,11.050 252.400 C 11.433 252.400,11.600 252.932,11.600 254.150 C 11.600 256.696,12.021 258.400,12.650 258.400 C 13.051 258.400,13.200 259.006,13.200 260.637 C 13.200 262.538,13.320 262.906,14.000 263.084 C 14.677 263.261,14.800 263.630,14.800 265.484 C 14.800 267.338,14.923 267.707,15.600 267.884 C 16.265 268.058,16.400 268.430,16.400 270.084 C 16.400 271.738,16.535 272.110,17.200 272.284 C 17.827 272.448,18.000 272.830,18.000 274.047 C 18.000 275.333,18.137 275.600,18.800 275.600 C 19.505 275.600,19.600 275.867,19.600 277.837 C 19.600 279.738,19.720 280.106,20.400 280.284 C 21.027 280.448,21.200 280.830,21.200 282.047 C 21.200 283.333,21.337 283.600,22.000 283.600 C 22.667 283.600,22.800 283.867,22.800 285.200 C 22.800 286.533,22.933 286.800,23.600 286.800 C 24.249 286.800,24.400 287.067,24.400 288.213 C 24.400 289.055,24.626 289.712,24.961 289.840 C 25.269 289.959,25.637 290.673,25.779 291.428 C 25.932 292.244,26.272 292.800,26.618 292.800 C 27.019 292.800,27.200 293.246,27.200 294.237 C 27.200 295.338,27.387 295.724,28.000 295.884 C 28.508 296.017,28.800 296.430,28.800 297.014 C 28.800 298.351,29.205 299.200,29.843 299.200 C 30.149 299.200,30.400 299.560,30.400 300.000 C 30.400 300.440,30.760 301.160,31.200 301.600 C 31.640 302.040,32.000 302.687,32.000 303.037 C 32.000 303.388,32.360 303.769,32.800 303.884 C 33.401 304.041,33.600 304.430,33.600 305.447 C 33.600 306.533,33.758 306.800,34.400 306.800 C 34.933 306.800,35.200 307.067,35.200 307.600 C 35.200 308.133,35.467 308.400,36.000 308.400 C 36.667 308.400,36.800 308.667,36.800 310.000 C 36.800 311.333,36.933 311.600,37.600 311.600 C 38.133 311.600,38.400 311.867,38.400 312.400 C 38.400 312.933,38.667 313.200,39.200 313.200 C 39.852 313.200,40.000 313.467,40.000 314.637 C 40.000 315.738,40.187 316.124,40.800 316.284 C 41.243 316.400,41.600 316.830,41.600 317.247 C 41.600 317.661,41.870 318.000,42.200 318.000 C 42.530 318.000,42.800 318.287,42.800 318.637 C 42.800 318.988,43.143 319.365,43.562 319.474 C 44.048 319.601,44.418 320.168,44.581 321.037 C 44.732 321.846,45.073 322.400,45.418 322.400 C 45.738 322.400,46.000 322.748,46.000 323.173 C 46.000 323.598,46.360 324.060,46.800 324.200 C 47.240 324.340,47.600 324.712,47.600 325.027 C 47.600 325.342,47.960 325.600,48.400 325.600 C 48.933 325.600,49.200 325.867,49.200 326.400 C 49.200 326.933,49.467 327.200,50.000 327.200 C 50.587 327.200,50.800 327.467,50.800 328.200 C 50.800 328.750,51.129 329.529,51.531 329.931 C 51.932 330.332,52.377 330.962,52.518 331.331 C 52.659 331.699,53.051 332.000,53.387 332.000 C 53.724 332.000,54.000 332.287,54.000 332.637 C 54.000 332.988,54.360 333.369,54.800 333.484 C 55.243 333.600,55.600 334.030,55.600 334.447 C 55.600 334.933,55.883 335.200,56.400 335.200 C 56.933 335.200,57.200 335.467,57.200 336.000 C 57.200 336.533,57.467 336.800,58.000 336.800 C 58.533 336.800,58.800 337.067,58.800 337.600 C 58.800 338.040,58.972 338.400,59.182 338.400 C 59.663 338.400,61.600 340.315,61.600 340.791 C 61.600 340.986,61.960 341.260,62.400 341.400 C 62.840 341.540,63.200 341.912,63.200 342.227 C 63.200 342.542,63.560 342.800,64.000 342.800 C 64.533 342.800,64.800 343.067,64.800 343.600 C 64.800 344.133,65.067 344.400,65.600 344.400 C 66.133 344.400,66.400 344.667,66.400 345.200 C 66.400 345.733,66.667 346.000,67.200 346.000 C 67.733 346.000,68.000 346.267,68.000 346.800 C 68.000 347.333,68.267 347.600,68.800 347.600 C 69.250 347.600,69.600 347.867,69.600 348.210 C 69.600 348.545,70.050 348.991,70.600 349.200 C 71.150 349.409,71.600 349.756,71.600 349.972 C 71.600 350.187,72.230 350.482,73.000 350.626 C 74.013 350.816,74.400 351.098,74.400 351.645 C 74.400 352.060,74.658 352.400,74.973 352.400 C 75.288 352.400,75.660 352.760,75.800 353.200 C 75.940 353.640,76.216 354.000,76.414 354.000 C 76.611 354.000,77.397 354.623,78.159 355.385 C 78.921 356.147,80.021 356.890,80.604 357.037 C 81.187 357.183,81.759 357.550,81.875 357.851 C 81.991 358.153,82.426 358.400,82.843 358.400 C 83.333 358.400,83.600 358.682,83.600 359.200 C 83.600 359.717,83.867 360.000,84.353 360.000 C 84.770 360.000,85.200 360.357,85.316 360.800 C 85.476 361.413,85.862 361.600,86.963 361.600 C 88.133 361.600,88.400 361.748,88.400 362.400 C 88.400 362.933,88.667 363.200,89.200 363.200 C 89.733 363.200,90.000 363.467,90.000 364.000 C 90.000 364.642,90.267 364.800,91.353 364.800 C 92.370 364.800,92.759 364.999,92.916 365.600 C 93.036 366.060,93.462 366.400,93.916 366.400 C 94.370 366.400,94.796 366.740,94.916 367.200 C 95.066 367.774,95.462 368.000,96.316 368.000 C 97.170 368.000,97.566 368.226,97.716 368.800 C 97.876 369.413,98.262 369.600,99.363 369.600 C 100.533 369.600,100.800 369.748,100.800 370.400 C 100.800 370.918,101.067 371.200,101.557 371.200 C 101.974 371.200,102.414 371.460,102.536 371.778 C 102.658 372.096,103.397 372.476,104.179 372.622 C 104.961 372.769,105.600 373.123,105.600 373.409 C 105.600 373.705,106.292 374.047,107.200 374.200 C 108.184 374.366,108.800 374.688,108.800 375.035 C 108.800 375.412,109.257 375.600,110.173 375.600 C 111.195 375.600,111.611 375.805,111.800 376.400 C 111.987 376.988,112.405 377.200,113.380 377.200 C 114.370 377.200,114.760 377.403,114.916 378.000 C 115.073 378.599,115.462 378.800,116.466 378.800 C 117.374 378.800,117.969 379.058,118.307 379.600 C 118.698 380.226,119.240 380.400,120.803 380.400 C 122.533 380.400,122.800 380.507,122.800 381.200 C 122.800 381.863,123.067 382.000,124.353 382.000 C 125.570 382.000,125.952 382.173,126.116 382.800 C 126.290 383.465,126.662 383.600,128.316 383.600 C 129.970 383.600,130.342 383.735,130.516 384.400 C 130.694 385.080,131.062 385.200,132.963 385.200 C 134.933 385.200,135.200 385.295,135.200 386.000 C 135.200 386.709,135.467 386.800,137.553 386.800 C 139.570 386.800,139.937 386.914,140.116 387.600 C 140.294 388.280,140.662 388.400,142.563 388.400 C 144.194 388.400,144.800 388.549,144.800 388.950 C 144.800 389.579,146.504 390.000,149.050 390.000 C 150.279 390.000,150.800 390.166,150.800 390.557 C 150.800 391.353,151.708 391.600,154.633 391.600 C 156.648 391.600,157.200 391.729,157.200 392.200 C 157.200 392.691,157.889 392.800,161.000 392.800 C 164.533 392.800,164.800 392.856,164.800 393.600 C 164.800 394.347,165.067 394.400,168.801 394.400 L 172.802 394.400 172.701 323.500 L 172.600 252.600 150.700 252.497 L 128.800 252.393 128.800 226.600 L 128.800 200.807 150.700 200.703 L 172.600 200.600 172.700 174.200 C 172.793 149.679,172.850 147.763,173.494 147.287 C 174.063 146.867,174.216 145.966,174.341 142.312 C 174.447 139.218,174.663 137.680,175.047 137.296 C 175.393 136.950,175.600 135.859,175.600 134.386 C 175.600 132.438,175.739 131.954,176.400 131.600 C 177.057 131.248,177.200 130.762,177.200 128.874 C 177.200 127.035,177.360 126.461,178.000 126.000 C 178.510 125.633,178.800 124.965,178.800 124.158 C 178.800 123.230,179.013 122.838,179.600 122.684 C 180.206 122.525,180.400 122.138,180.400 121.084 C 180.400 120.030,180.594 119.643,181.200 119.484 C 181.813 119.324,182.000 118.938,182.000 117.837 C 182.000 116.667,182.148 116.400,182.800 116.400 C 183.467 116.400,183.600 116.133,183.600 114.800 C 183.600 113.467,183.733 113.200,184.400 113.200 C 184.933 113.200,185.200 112.933,185.200 112.400 C 185.200 111.867,185.467 111.600,186.000 111.600 C 186.533 111.600,186.800 111.333,186.800 110.800 C 186.800 110.360,187.050 110.000,187.355 110.000 C 187.670 110.000,188.021 109.412,188.165 108.644 C 188.331 107.761,188.696 107.216,189.210 107.082 C 189.644 106.968,190.000 106.609,190.000 106.284 C 190.000 105.959,190.360 105.599,190.800 105.484 C 191.240 105.369,191.600 104.988,191.600 104.637 C 191.600 104.287,191.870 104.000,192.200 104.000 C 192.533 104.000,192.800 103.644,192.800 103.200 C 192.800 102.667,193.067 102.400,193.600 102.400 C 194.133 102.400,194.400 102.133,194.400 101.600 C 194.400 101.067,194.667 100.800,195.200 100.800 C 195.640 100.800,196.360 100.440,196.800 100.000 C 197.240 99.560,197.778 99.200,197.997 99.200 C 198.215 99.200,198.618 98.840,198.893 98.400 C 199.168 97.960,199.709 97.600,200.096 97.600 C 200.533 97.600,200.800 97.297,200.800 96.800 C 200.800 96.267,201.067 96.000,201.600 96.000 C 202.040 96.000,202.760 95.640,203.200 95.200 C 203.640 94.760,204.287 94.400,204.637 94.400 C 204.988 94.400,205.369 94.040,205.484 93.600 C 205.641 92.999,206.030 92.800,207.047 92.800 C 207.983 92.800,208.400 92.615,208.400 92.200 C 208.400 91.778,208.826 91.600,209.837 91.600 C 210.938 91.600,211.324 91.413,211.484 90.800 C 211.648 90.173,212.030 90.000,213.247 90.000 C 214.226 90.000,215.074 89.726,215.541 89.259 C 215.965 88.835,217.112 88.424,218.217 88.299 C 219.317 88.175,220.354 87.805,220.620 87.441 C 220.953 86.984,221.737 86.800,223.344 86.800 C 225.333 86.800,225.600 86.705,225.600 86.000 C 225.600 85.246,225.867 85.200,230.237 85.200 C 234.538 85.200,234.890 85.142,235.084 84.400 C 235.357 83.355,263.600 83.114,263.600 84.157 C 263.600 85.081,264.562 85.200,272.033 85.200 C 277.868 85.200,279.200 85.303,279.200 85.753 C 279.200 86.573,280.505 86.788,285.500 86.795 L 290.000 86.800 290.000 109.400 L 290.000 132.000 269.763 132.000 C 249.862 132.000,249.522 132.013,249.316 132.800 C 249.126 133.525,248.770 133.600,245.516 133.600 C 242.262 133.600,241.906 133.675,241.716 134.400 C 241.552 135.027,241.170 135.200,239.953 135.200 C 238.667 135.200,238.400 135.337,238.400 136.000 C 238.400 136.667,238.133 136.800,236.800 136.800 C 235.467 136.800,235.200 136.933,235.200 137.600 C 235.200 138.133,234.933 138.400,234.400 138.400 C 233.867 138.400,233.600 138.667,233.600 139.200 C 233.600 139.733,233.333 140.000,232.800 140.000 C 232.267 140.000,232.000 140.267,232.000 140.800 C 232.000 141.333,231.733 141.600,231.200 141.600 C 230.667 141.600,230.400 141.867,230.400 142.400 C 230.400 142.840,230.149 143.200,229.843 143.200 C 229.240 143.200,228.800 144.038,228.800 145.186 C 228.800 145.582,228.440 146.001,228.000 146.116 C 227.387 146.276,227.200 146.662,227.200 147.763 C 227.200 148.752,227.019 149.200,226.620 149.200 C 226.208 149.200,225.962 149.890,225.771 151.576 C 225.608 153.020,225.286 154.035,224.951 154.163 C 224.492 154.340,224.400 158.239,224.400 177.587 L 224.400 200.800 253.200 200.800 L 282.000 200.800 281.200 201.600 C 280.495 202.305,280.400 202.933,280.400 206.904 C 280.400 210.974,280.323 211.456,279.600 211.907 C 278.881 212.356,278.800 212.840,278.800 216.659 C 278.800 220.248,278.691 220.992,278.100 221.423 C 277.525 221.843,277.375 222.705,277.261 226.240 C 277.162 229.318,276.941 230.823,276.485 231.519 C 276.030 232.214,275.798 233.790,275.674 237.046 C 275.539 240.557,275.373 241.600,274.950 241.600 C 274.515 241.600,274.400 242.561,274.400 246.173 C 274.400 250.395,274.339 250.766,273.600 251.000 C 273.160 251.140,272.800 251.512,272.800 251.827 C 272.800 252.316,270.051 252.400,254.000 252.400 L 235.200 252.400 235.200 323.400 L 235.200 394.400 238.837 394.400 C 242.138 394.400,242.494 394.326,242.684 393.600 C 242.869 392.892,243.230 392.800,245.804 392.800 C 248.022 392.800,248.769 392.657,248.945 392.200 C 249.102 391.791,249.742 391.600,250.955 391.600 C 253.114 391.600,254.000 391.297,254.000 390.557 C 254.000 390.152,254.572 390.000,256.104 390.000 C 257.774 390.000,258.310 389.835,258.707 389.200 C 259.089 388.589,259.640 388.400,261.041 388.400 C 262.538 388.400,262.913 388.253,263.084 387.600 C 263.261 386.923,263.630 386.800,265.484 386.800 C 267.338 386.800,267.707 386.677,267.884 386.000 C 268.047 385.379,268.430 385.200,269.600 385.200 C 270.770 385.200,271.153 385.021,271.316 384.400 C 271.491 383.732,271.862 383.600,273.563 383.600 C 275.333 383.600,275.600 383.495,275.600 382.800 C 275.600 382.133,275.867 382.000,277.200 382.000 C 278.533 382.000,278.800 381.867,278.800 381.200 C 278.800 380.533,279.067 380.400,280.400 380.400 C 281.733 380.400,282.000 380.267,282.000 379.600 C 282.000 378.933,282.267 378.800,283.600 378.800 C 284.933 378.800,285.200 378.667,285.200 378.000 C 285.200 377.333,285.467 377.200,286.800 377.200 C 288.133 377.200,288.400 377.067,288.400 376.400 C 288.400 375.751,288.667 375.600,289.813 375.600 C 290.655 375.600,291.312 375.374,291.440 375.039 C 291.559 374.731,292.273 374.363,293.028 374.221 C 293.844 374.068,294.400 373.728,294.400 373.382 C 294.400 373.062,294.736 372.800,295.146 372.800 C 295.556 372.800,296.321 372.471,296.846 372.068 C 297.371 371.666,298.115 371.221,298.500 371.081 C 298.885 370.940,299.200 370.549,299.200 370.213 C 299.200 369.776,299.613 369.600,300.637 369.600 C 301.738 369.600,302.124 369.413,302.284 368.800 C 302.400 368.357,302.830 368.000,303.247 368.000 C 303.733 368.000,304.000 367.717,304.000 367.200 C 304.000 366.552,304.267 366.400,305.400 366.400 C 306.414 366.400,306.800 366.224,306.800 365.763 C 306.800 365.412,307.160 365.031,307.600 364.916 C 308.043 364.800,308.400 364.370,308.400 363.953 C 308.400 363.341,308.700 363.200,310.000 363.200 C 311.333 363.200,311.600 363.067,311.600 362.400 C 311.600 361.867,311.867 361.600,312.400 361.600 C 312.933 361.600,313.200 361.333,313.200 360.800 C 313.200 360.267,313.467 360.000,314.000 360.000 C 314.440 360.000,315.160 359.640,315.600 359.200 C 316.040 358.760,316.676 358.400,317.013 358.400 C 317.349 358.400,317.722 358.148,317.840 357.839 C 317.959 357.531,318.403 357.188,318.828 357.077 C 319.252 356.966,319.600 356.609,319.600 356.284 C 319.600 355.959,319.960 355.599,320.400 355.484 C 320.840 355.369,321.200 354.988,321.200 354.637 C 321.200 354.283,321.530 354.000,321.942 354.000 C 322.349 354.000,323.169 353.550,323.762 353.000 C 324.356 352.450,325.012 352.000,325.221 352.000 C 325.429 352.000,325.600 351.730,325.600 351.400 C 325.600 351.067,325.956 350.800,326.400 350.800 C 326.933 350.800,327.200 350.533,327.200 350.000 C 327.200 349.467,327.467 349.200,328.000 349.200 C 328.533 349.200,328.800 348.933,328.800 348.400 C 328.800 347.867,329.067 347.600,329.600 347.600 C 330.133 347.600,330.400 347.333,330.400 346.800 C 330.400 346.267,330.667 346.000,331.200 346.000 C 331.733 346.000,332.000 345.733,332.000 345.200 C 332.000 344.667,332.267 344.400,332.800 344.400 C 333.333 344.400,333.600 344.133,333.600 343.600 C 333.600 343.067,333.867 342.800,334.400 342.800 C 334.840 342.800,335.200 342.551,335.200 342.247 C 335.200 341.942,335.560 341.599,336.000 341.484 C 336.440 341.369,336.800 341.009,336.800 340.684 C 336.800 340.359,337.160 339.999,337.600 339.884 C 338.040 339.769,338.400 339.409,338.400 339.084 C 338.400 338.759,338.760 338.399,339.200 338.284 C 339.640 338.169,340.000 337.809,340.000 337.484 C 340.000 337.159,340.360 336.799,340.800 336.684 C 341.240 336.569,341.600 336.188,341.600 335.837 C 341.600 335.487,341.870 335.200,342.200 335.200 C 342.533 335.200,342.800 334.844,342.800 334.400 C 342.800 333.867,343.067 333.600,343.600 333.600 C 344.133 333.600,344.400 333.333,344.400 332.800 C 344.400 332.267,344.667 332.000,345.200 332.000 C 345.733 332.000,346.000 331.733,346.000 331.200 C 346.000 330.667,346.267 330.400,346.800 330.400 C 347.297 330.400,347.600 330.133,347.600 329.696 C 347.600 329.309,347.960 328.768,348.400 328.493 C 348.910 328.174,349.200 327.560,349.200 326.797 C 349.200 325.867,349.378 325.600,350.000 325.600 C 350.440 325.600,350.800 325.351,350.800 325.047 C 350.800 324.742,351.160 324.399,351.600 324.284 C 352.040 324.169,352.400 323.800,352.400 323.464 C 352.400 323.129,352.760 322.740,353.200 322.600 C 353.640 322.460,354.000 321.998,354.000 321.573 C 354.000 321.148,354.262 320.800,354.582 320.800 C 354.927 320.800,355.268 320.246,355.419 319.437 C 355.582 318.568,355.952 318.001,356.438 317.874 C 356.857 317.765,357.200 317.388,357.200 317.037 C 357.200 316.687,357.470 316.400,357.800 316.400 C 358.173 316.400,358.400 316.022,358.400 315.400 C 358.400 314.812,358.630 314.400,358.957 314.400 C 359.569 314.400,360.000 313.559,360.000 312.367 C 360.000 311.867,360.278 311.600,360.800 311.600 C 361.317 311.600,361.600 311.333,361.600 310.847 C 361.600 310.430,361.957 310.000,362.400 309.884 C 362.974 309.734,363.200 309.338,363.200 308.484 C 363.200 307.630,363.426 307.234,364.000 307.084 C 364.578 306.933,364.800 306.538,364.800 305.664 C 364.800 304.805,365.032 304.380,365.600 304.200 C 366.040 304.060,366.400 303.619,366.400 303.220 C 366.400 302.820,366.760 302.399,367.200 302.284 C 367.813 302.124,368.000 301.738,368.000 300.637 C 368.000 299.467,368.148 299.200,368.800 299.200 C 369.467 299.200,369.600 298.933,369.600 297.600 C 369.600 296.267,369.733 296.000,370.400 296.000 C 370.939 296.000,371.200 295.733,371.200 295.183 C 371.200 294.734,371.560 293.980,372.000 293.508 C 372.440 293.036,372.800 292.316,372.800 291.908 C 372.800 291.500,373.160 290.780,373.600 290.308 C 374.040 289.836,374.400 289.142,374.400 288.767 C 374.400 288.392,374.670 287.982,375.000 287.855 C 375.423 287.693,375.600 287.032,375.600 285.613 C 375.600 283.867,375.706 283.600,376.400 283.600 C 377.067 283.600,377.200 283.333,377.200 282.000 C 377.200 280.667,377.333 280.400,378.000 280.400 C 378.663 280.400,378.800 280.133,378.800 278.847 C 378.800 277.630,378.973 277.248,379.600 277.084 C 380.265 276.910,380.400 276.538,380.400 274.884 C 380.400 273.230,380.535 272.858,381.200 272.684 C 381.853 272.513,382.000 272.138,382.000 270.641 C 382.000 269.240,382.189 268.689,382.800 268.307 C 383.370 267.951,383.600 267.374,383.600 266.304 C 383.600 265.333,383.884 264.516,384.400 264.000 C 385.022 263.378,385.200 262.667,385.200 260.800 C 385.200 258.667,385.289 258.400,386.000 258.400 C 386.711 258.400,386.800 258.133,386.800 256.000 C 386.800 254.223,386.944 253.600,387.353 253.600 C 388.046 253.600,388.387 252.367,388.395 249.844 C 388.398 248.447,388.600 247.742,389.100 247.377 C 389.657 246.970,389.829 246.122,389.940 243.232 C 390.040 240.627,390.224 239.600,390.590 239.600 C 391.279 239.600,391.600 237.757,391.600 233.793 C 391.600 231.222,391.734 230.434,392.200 230.255 C 392.701 230.063,392.800 228.901,392.800 223.227 C 392.800 216.838,392.848 216.402,393.600 216.000 C 394.378 215.583,394.400 215.162,394.400 200.419 C 394.400 184.991,394.337 184.000,393.357 184.000 C 392.905 184.000,392.800 182.829,392.800 177.771 C 392.800 172.768,392.682 171.425,392.200 170.943 C 391.747 170.490,391.600 169.368,391.600 166.368 C 391.600 162.887,391.500 162.307,390.800 161.707 C 390.175 161.172,390.000 160.527,390.000 158.761 C 390.000 155.732,389.618 154.000,388.950 154.000 C 388.540 154.000,388.400 153.344,388.400 151.433 C 388.400 148.508,388.153 147.600,387.357 147.600 C 386.949 147.600,386.800 147.018,386.800 145.427 C 386.800 143.649,386.663 143.210,386.046 143.015 C 385.432 142.820,385.260 142.283,385.124 140.139 C 385.004 138.266,384.760 137.360,384.278 137.008 C 383.865 136.706,383.600 135.967,383.600 135.118 C 383.600 134.232,383.308 133.460,382.800 133.000 C 382.258 132.509,382.000 131.768,382.000 130.701 C 382.000 129.462,381.829 129.080,381.200 128.916 C 380.535 128.742,380.400 128.370,380.400 126.716 C 380.400 125.062,380.265 124.690,379.600 124.516 C 378.973 124.352,378.800 123.970,378.800 122.753 C 378.800 121.467,378.663 121.200,378.000 121.200 C 377.333 121.200,377.200 120.933,377.200 119.600 C 377.200 118.267,377.067 118.000,376.400 118.000 C 375.737 118.000,375.600 117.733,375.600 116.443 C 375.600 115.428,375.391 114.805,375.000 114.655 C 374.651 114.522,374.400 113.923,374.400 113.227 C 374.400 112.438,374.127 111.882,373.600 111.600 C 373.076 111.320,372.800 110.762,372.800 109.986 C 372.800 109.067,372.620 108.800,372.000 108.800 C 371.333 108.800,371.200 108.533,371.200 107.200 C 371.200 105.867,371.067 105.600,370.400 105.600 C 369.748 105.600,369.600 105.333,369.600 104.163 C 369.600 103.062,369.413 102.676,368.800 102.516 C 368.234 102.368,368.000 101.970,368.000 101.157 C 368.000 100.440,367.699 99.819,367.200 99.507 C 366.760 99.232,366.400 98.691,366.400 98.304 C 366.400 97.867,366.097 97.600,365.600 97.600 C 364.955 97.600,364.800 97.333,364.800 96.227 C 364.800 95.205,364.595 94.789,364.000 94.600 C 363.560 94.460,363.200 94.010,363.200 93.600 C 363.200 93.190,362.840 92.740,362.400 92.600 C 361.840 92.422,361.600 91.995,361.600 91.173 C 361.600 90.267,361.418 90.000,360.800 90.000 C 360.267 90.000,360.000 89.733,360.000 89.200 C 360.000 88.667,359.733 88.400,359.200 88.400 C 358.533 88.400,358.400 88.133,358.400 86.800 C 358.400 85.704,358.226 85.200,357.847 85.200 C 357.542 85.200,357.199 84.840,357.084 84.400 C 356.969 83.960,356.588 83.600,356.237 83.600 C 355.867 83.600,355.600 83.265,355.600 82.800 C 355.600 82.360,355.240 81.640,354.800 81.200 C 354.360 80.760,354.000 80.113,354.000 79.763 C 354.000 79.412,353.657 79.035,353.237 78.926 C 352.817 78.816,352.384 78.383,352.274 77.963 C 352.165 77.543,351.788 77.200,351.437 77.200 C 351.087 77.200,350.800 76.942,350.800 76.627 C 350.800 76.312,350.440 75.940,350.000 75.800 C 349.560 75.660,349.200 75.288,349.200 74.973 C 349.200 74.658,348.840 74.040,348.400 73.600 C 347.960 73.160,347.600 72.513,347.600 72.163 C 347.600 71.812,347.240 71.431,346.800 71.316 C 346.357 71.200,346.000 70.770,346.000 70.353 C 346.000 69.867,345.717 69.600,345.200 69.600 C 344.667 69.600,344.400 69.333,344.400 68.800 C 344.400 68.267,344.133 68.000,343.600 68.000 C 343.067 68.000,342.800 67.733,342.800 67.200 C 342.800 66.760,342.551 66.400,342.247 66.400 C 341.942 66.400,341.599 66.040,341.484 65.600 C 341.369 65.160,340.988 64.800,340.637 64.800 C 340.287 64.800,340.000 64.513,340.000 64.163 C 340.000 63.812,339.640 63.431,339.200 63.316 C 338.760 63.201,338.400 62.841,338.400 62.516 C 338.400 62.191,338.040 61.831,337.600 61.716 C 337.160 61.601,336.800 61.241,336.800 60.916 C 336.800 60.591,336.440 60.231,336.000 60.116 C 335.560 60.001,335.200 59.658,335.200 59.353 C 335.200 59.049,334.840 58.800,334.400 58.800 C 333.867 58.800,333.600 58.533,333.600 58.000 C 333.600 57.467,333.333 57.200,332.800 57.200 C 332.267 57.200,332.000 56.933,332.000 56.400 C 332.000 55.867,331.733 55.600,331.200 55.600 C 330.667 55.600,330.400 55.333,330.400 54.800 C 330.400 54.267,330.133 54.000,329.600 54.000 C 329.067 54.000,328.800 53.733,328.800 53.200 C 328.800 52.683,328.533 52.400,328.047 52.400 C 327.630 52.400,327.200 52.043,327.084 51.600 C 326.969 51.160,326.588 50.800,326.237 50.800 C 325.887 50.800,325.240 50.440,324.800 50.000 C 324.360 49.560,323.730 49.200,323.400 49.200 C 323.070 49.200,322.800 48.913,322.800 48.563 C 322.800 48.212,322.440 47.831,322.000 47.716 C 321.560 47.601,321.200 47.241,321.200 46.916 C 321.200 46.591,320.840 46.231,320.400 46.116 C 319.960 46.001,319.600 45.695,319.600 45.437 C 319.600 45.178,319.015 44.683,318.300 44.335 C 315.229 42.844,314.806 42.574,314.803 42.100 C 314.801 41.825,314.440 41.600,314.000 41.600 C 313.467 41.600,313.200 41.333,313.200 40.800 C 313.200 40.133,312.933 40.000,311.600 40.000 C 310.267 40.000,310.000 39.867,310.000 39.200 C 310.000 38.667,309.733 38.400,309.200 38.400 C 308.667 38.400,308.400 38.133,308.400 37.600 C 308.400 36.952,308.133 36.800,307.000 36.800 C 305.867 36.800,305.600 36.648,305.600 36.000 C 305.600 35.476,305.333 35.200,304.827 35.200 C 304.402 35.200,303.940 34.840,303.800 34.400 C 303.611 33.805,303.195 33.600,302.173 33.600 C 301.067 33.600,300.800 33.445,300.800 32.800 C 300.800 32.356,300.533 32.000,300.200 32.000 C 299.870 32.000,299.240 31.640,298.800 31.200 C 298.360 30.760,297.571 30.400,297.047 30.400 C 296.430 30.400,296.019 30.118,295.884 29.600 C 295.725 28.994,295.338 28.800,294.284 28.800 C 293.230 28.800,292.843 28.606,292.684 28.000 C 292.543 27.459,292.138 27.200,291.437 27.200 C 290.867 27.200,290.040 26.840,289.600 26.400 C 289.160 25.960,288.434 25.600,287.987 25.600 C 287.541 25.600,287.071 25.330,286.945 25.000 C 286.795 24.609,286.172 24.400,285.157 24.400 C 283.867 24.400,283.600 24.263,283.600 23.600 C 283.600 22.933,283.333 22.800,282.000 22.800 C 280.667 22.800,280.400 22.667,280.400 22.000 C 280.400 21.333,280.133 21.200,278.800 21.200 C 277.467 21.200,277.200 21.067,277.200 20.400 C 277.200 19.752,276.933 19.600,275.800 19.600 C 274.933 19.600,274.095 19.295,273.600 18.800 C 273.075 18.275,272.267 18.000,271.247 18.000 C 270.030 18.000,269.648 17.827,269.484 17.200 C 269.306 16.520,268.938 16.400,267.037 16.400 C 265.067 16.400,264.800 16.305,264.800 15.600 C 264.800 14.889,264.533 14.800,262.400 14.800 C 260.267 14.800,260.000 14.711,260.000 14.000 C 260.000 13.298,259.733 13.200,257.814 13.200 C 256.038 13.200,255.548 13.050,255.200 12.400 C 254.845 11.737,254.362 11.600,252.382 11.600 C 250.487 11.600,249.850 11.434,249.307 10.800 C 248.739 10.136,248.127 10.000,245.711 10.000 C 243.502 10.000,242.800 9.867,242.800 9.448 C 242.800 9.037,241.834 8.823,239.029 8.612 C 236.352 8.412,235.196 8.166,235.042 7.765 C 234.873 7.324,233.823 7.200,230.259 7.200 C 226.030 7.200,225.678 7.141,225.484 6.400 C 225.282 5.625,224.938 5.600,214.664 5.600 C 204.405 5.600,204.046 5.574,203.800 4.800 C 203.566 4.064,203.195 4.000,199.173 4.000 C 195.067 4.000,194.800 4.049,194.800 4.800 " stroke="none" fill="#040404" fill-rule="evenodd"></path><path id="path1" d="" stroke="none" fill="#080404" fill-rule="evenodd"></path><path id="path2" d="" stroke="none" fill="#080404" fill-rule="evenodd"></path><path id="path3" d="" stroke="none" fill="#080404" fill-rule="evenodd"></path><path id="path4" d="" stroke="none" fill="#080404" fill-rule="evenodd"></path></g></svg>