<svg id="svg" version="1.1" xmlns="http://www.w3.org/2000/svg" xmlns:xlink="http://www.w3.org/1999/xlink" width="400" height="400" viewBox="0, 0, 400,400"><g id="svgg"><path id="path0" d="M40.400 0.400 C 40.400 0.623,39.321 0.800,37.963 0.800 C 35.862 0.800,35.496 0.910,35.316 1.600 C 35.152 2.227,34.770 2.400,33.553 2.400 C 32.533 2.400,31.725 2.675,31.200 3.200 C 30.745 3.655,29.867 4.000,29.163 4.000 C 28.262 4.000,27.868 4.217,27.716 4.800 C 27.601 5.240,27.180 5.600,26.780 5.600 C 26.381 5.600,25.940 5.960,25.800 6.400 C 25.611 6.995,25.195 7.200,24.173 7.200 C 23.067 7.200,22.800 7.355,22.800 8.000 C 22.800 8.533,22.533 8.800,22.000 8.800 C 21.560 8.800,21.200 9.054,21.200 9.365 C 21.200 9.712,20.584 10.034,19.600 10.200 C 18.661 10.359,18.000 10.692,18.000 11.008 C 18.000 11.304,17.640 11.660,17.200 11.800 C 16.760 11.940,16.400 12.312,16.400 12.627 C 16.400 12.942,16.113 13.200,15.763 13.200 C 15.412 13.200,15.035 13.543,14.926 13.963 C 14.816 14.383,14.383 14.816,13.963 14.926 C 13.543 15.035,13.200 15.412,13.200 15.763 C 13.200 16.113,12.942 16.400,12.627 16.400 C 12.312 16.400,11.940 16.760,11.800 17.200 C 11.660 17.640,11.304 18.000,11.008 18.000 C 10.692 18.000,10.359 18.661,10.200 19.600 C 10.034 20.584,9.712 21.200,9.365 21.200 C 9.054 21.200,8.800 21.560,8.800 22.000 C 8.800 22.533,8.533 22.800,8.000 22.800 C 7.355 22.800,7.200 23.067,7.200 24.173 C 7.200 25.195,6.995 25.611,6.400 25.800 C 5.960 25.940,5.600 26.381,5.600 26.780 C 5.600 27.180,5.240 27.601,4.800 27.716 C 4.217 27.868,4.000 28.262,4.000 29.163 C 4.000 29.867,3.655 30.745,3.200 31.200 C 2.675 31.725,2.400 32.533,2.400 33.553 C 2.400 34.770,2.227 35.152,1.600 35.316 C 0.910 35.496,0.800 35.862,0.800 37.963 C 0.800 39.321,0.623 40.400,0.400 40.400 C 0.134 40.400,0.000 93.867,0.000 200.000 C 0.000 306.133,0.134 359.600,0.400 359.600 C 0.623 359.600,0.800 360.679,0.800 362.037 C 0.800 364.138,0.910 364.504,1.600 364.684 C 2.227 364.848,2.400 365.230,2.400 366.447 C 2.400 367.467,2.675 368.275,3.200 368.800 C 3.655 369.255,4.000 370.133,4.000 370.837 C 4.000 371.738,4.217 372.132,4.800 372.284 C 5.260 372.404,5.600 372.830,5.600 373.284 C 5.600 373.738,5.940 374.164,6.400 374.284 C 7.001 374.441,7.200 374.830,7.200 375.847 C 7.200 376.933,7.358 377.200,8.000 377.200 C 8.533 377.200,8.800 377.467,8.800 378.000 C 8.800 378.440,9.050 378.800,9.355 378.800 C 9.675 378.800,10.024 379.403,10.178 380.221 C 10.324 381.003,10.697 381.739,11.007 381.858 C 11.316 381.977,11.679 382.417,11.812 382.837 C 11.945 383.257,12.312 383.600,12.627 383.600 C 12.942 383.600,13.200 383.887,13.200 384.237 C 13.200 384.588,13.560 384.969,14.000 385.084 C 14.440 385.199,14.800 385.559,14.800 385.884 C 14.800 386.209,15.160 386.569,15.600 386.684 C 16.040 386.799,16.400 387.130,16.400 387.420 C 16.400 387.709,16.743 388.055,17.163 388.188 C 17.583 388.321,18.023 388.684,18.142 388.993 C 18.261 389.303,18.997 389.676,19.779 389.822 C 20.811 390.016,21.200 390.296,21.200 390.845 C 21.200 391.333,21.482 391.600,22.000 391.600 C 22.444 391.600,22.800 391.867,22.800 392.200 C 22.800 392.617,23.219 392.800,24.173 392.800 C 25.195 392.800,25.611 393.005,25.800 393.600 C 25.940 394.040,26.374 394.400,26.765 394.400 C 27.156 394.400,27.802 394.760,28.200 395.200 C 28.598 395.640,29.306 396.000,29.773 396.000 C 30.240 396.000,30.930 396.360,31.307 396.800 C 31.774 397.346,32.487 397.600,33.549 397.600 C 34.770 397.600,35.152 397.773,35.316 398.400 C 35.496 399.090,35.862 399.200,37.963 399.200 C 39.321 399.200,40.400 399.377,40.400 399.600 C 40.400 399.866,93.867 400.000,200.000 400.000 C 306.133 400.000,359.600 399.866,359.600 399.600 C 359.600 399.377,360.679 399.200,362.037 399.200 C 364.138 399.200,364.504 399.090,364.684 398.400 C 364.848 397.773,365.230 397.600,366.451 397.600 C 367.513 397.600,368.226 397.346,368.693 396.800 C 369.070 396.360,369.773 396.000,370.256 396.000 C 371.553 396.000,372.400 395.588,372.400 394.957 C 372.400 394.630,372.812 394.400,373.400 394.400 C 374.133 394.400,374.400 394.187,374.400 393.600 C 374.400 392.952,374.667 392.800,375.800 392.800 C 376.778 392.800,377.200 392.619,377.200 392.200 C 377.200 391.867,377.556 391.600,378.000 391.600 C 378.518 391.600,378.800 391.333,378.800 390.845 C 378.800 390.296,379.189 390.016,380.221 389.822 C 381.003 389.676,381.739 389.303,381.858 388.993 C 381.977 388.684,382.417 388.321,382.837 388.188 C 383.257 388.055,383.600 387.709,383.600 387.420 C 383.600 387.130,383.960 386.799,384.400 386.684 C 384.840 386.569,385.200 386.209,385.200 385.884 C 385.200 385.559,385.560 385.199,386.000 385.084 C 386.440 384.969,386.800 384.588,386.800 384.237 C 386.800 383.887,387.058 383.600,387.373 383.600 C 387.688 383.600,388.055 383.257,388.188 382.837 C 388.321 382.417,388.684 381.977,388.993 381.858 C 389.303 381.739,389.676 381.003,389.822 380.221 C 390.016 379.189,390.296 378.800,390.845 378.800 C 391.333 378.800,391.600 378.518,391.600 378.000 C 391.600 377.556,391.867 377.200,392.200 377.200 C 392.619 377.200,392.800 376.778,392.800 375.800 C 392.800 374.667,392.952 374.400,393.600 374.400 C 394.187 374.400,394.400 374.133,394.400 373.400 C 394.400 372.812,394.630 372.400,394.957 372.400 C 395.588 372.400,396.000 371.553,396.000 370.256 C 396.000 369.773,396.360 369.070,396.800 368.693 C 397.346 368.226,397.600 367.513,397.600 366.451 C 397.600 365.230,397.773 364.848,398.400 364.684 C 399.090 364.504,399.200 364.138,399.200 362.037 C 399.200 360.679,399.377 359.600,399.600 359.600 C 399.866 359.600,400.000 306.133,400.000 200.000 C 400.000 93.867,399.866 40.400,399.600 40.400 C 399.377 40.400,399.200 39.321,399.200 37.963 C 399.200 35.862,399.090 35.496,398.400 35.316 C 397.773 35.152,397.600 34.770,397.600 33.553 C 397.600 32.533,397.325 31.725,396.800 31.200 C 396.345 30.745,396.000 29.867,396.000 29.163 C 396.000 28.262,395.783 27.868,395.200 27.716 C 394.760 27.601,394.400 27.180,394.400 26.780 C 394.400 26.381,394.040 25.940,393.600 25.800 C 393.005 25.611,392.800 25.195,392.800 24.173 C 392.800 23.219,392.617 22.800,392.200 22.800 C 391.867 22.800,391.600 22.444,391.600 22.000 C 391.600 21.482,391.333 21.200,390.845 21.200 C 390.296 21.200,390.016 20.811,389.822 19.779 C 389.676 18.997,389.303 18.261,388.993 18.142 C 388.684 18.023,388.321 17.583,388.188 17.163 C 388.055 16.743,387.709 16.400,387.420 16.400 C 387.130 16.400,386.799 16.040,386.684 15.600 C 386.569 15.160,386.209 14.800,385.884 14.800 C 385.559 14.800,385.199 14.440,385.084 14.000 C 384.969 13.560,384.588 13.200,384.237 13.200 C 383.887 13.200,383.600 12.942,383.600 12.627 C 383.600 12.312,383.257 11.945,382.837 11.812 C 382.417 11.679,381.977 11.316,381.858 11.007 C 381.739 10.697,381.003 10.324,380.221 10.178 C 379.403 10.024,378.800 9.675,378.800 9.355 C 378.800 9.050,378.440 8.800,378.000 8.800 C 377.467 8.800,377.200 8.533,377.200 8.000 C 377.200 7.358,376.933 7.200,375.847 7.200 C 374.830 7.200,374.441 7.001,374.284 6.400 C 374.164 5.940,373.738 5.600,373.284 5.600 C 372.830 5.600,372.404 5.260,372.284 4.800 C 372.132 4.217,371.738 4.000,370.837 4.000 C 370.133 4.000,369.255 3.655,368.800 3.200 C 368.275 2.675,367.467 2.400,366.447 2.400 C 365.230 2.400,364.848 2.227,364.684 1.600 C 364.504 0.910,364.138 0.800,362.037 0.800 C 360.679 0.800,359.600 0.623,359.600 0.400 C 359.600 0.134,306.133 0.000,200.000 0.000 C 93.867 0.000,40.400 0.134,40.400 0.400 M214.916 82.800 C 215.110 83.542,215.462 83.600,219.763 83.600 C 224.133 83.600,224.400 83.646,224.400 84.400 C 224.400 85.124,224.667 85.200,227.200 85.200 C 229.467 85.200,230.152 85.352,230.800 86.000 C 231.433 86.633,232.133 86.800,234.153 86.800 C 236.370 86.800,236.734 86.905,236.916 87.600 C 237.093 88.277,237.462 88.400,239.316 88.400 C 241.170 88.400,241.539 88.523,241.716 89.200 C 241.871 89.792,242.262 90.000,243.218 90.000 C 243.943 90.000,244.718 90.282,244.980 90.641 C 245.243 91.000,246.273 91.374,247.324 91.493 C 248.543 91.630,249.200 91.896,249.200 92.252 C 249.200 92.625,249.712 92.800,250.800 92.800 C 252.133 92.800,252.400 92.933,252.400 93.600 C 252.400 94.267,252.667 94.400,254.000 94.400 C 255.333 94.400,255.600 94.533,255.600 95.200 C 255.600 95.867,255.867 96.000,257.200 96.000 C 258.533 96.000,258.800 96.133,258.800 96.800 C 258.800 97.442,259.067 97.600,260.153 97.600 C 261.170 97.600,261.559 97.799,261.716 98.400 C 261.857 98.940,262.262 99.200,262.959 99.200 C 263.560 99.200,264.203 99.535,264.493 100.000 C 264.768 100.440,265.288 100.800,265.650 100.800 C 266.011 100.800,266.401 101.160,266.516 101.600 C 266.676 102.213,267.062 102.400,268.163 102.400 C 269.333 102.400,269.600 102.548,269.600 103.200 C 269.600 103.717,269.867 104.000,270.353 104.000 C 270.770 104.000,271.200 104.357,271.316 104.800 C 271.457 105.340,271.862 105.600,272.559 105.600 C 273.160 105.600,273.803 105.935,274.093 106.400 C 274.368 106.840,274.825 107.200,275.109 107.200 C 275.393 107.200,275.729 107.470,275.855 107.800 C 275.982 108.130,276.315 108.400,276.596 108.400 C 276.877 108.400,277.201 108.760,277.316 109.200 C 277.431 109.640,277.800 110.000,278.136 110.000 C 278.471 110.000,278.860 110.360,279.000 110.800 C 279.140 111.240,279.512 111.600,279.827 111.600 C 280.142 111.600,280.760 111.960,281.200 112.400 C 281.640 112.840,282.360 113.200,282.800 113.200 C 283.333 113.200,283.600 113.467,283.600 114.000 C 283.600 114.533,283.867 114.800,284.400 114.800 C 284.933 114.800,285.200 115.067,285.200 115.600 C 285.200 116.133,285.467 116.400,286.000 116.400 C 286.533 116.400,286.800 116.667,286.800 117.200 C 286.800 117.733,287.067 118.000,287.600 118.000 C 288.133 118.000,288.400 118.267,288.400 118.800 C 288.400 119.333,288.667 119.600,289.200 119.600 C 289.733 119.600,290.000 119.867,290.000 120.400 C 290.000 120.933,290.267 121.200,290.800 121.200 C 291.333 121.200,291.600 121.467,291.600 122.000 C 291.600 122.444,291.867 122.800,292.200 122.800 C 292.530 122.800,292.800 123.056,292.800 123.369 C 292.800 123.682,293.250 124.473,293.800 125.127 C 294.350 125.781,294.800 126.515,294.800 126.758 C 294.800 127.001,295.070 127.200,295.400 127.200 C 295.730 127.200,296.000 127.487,296.000 127.837 C 296.000 128.188,296.360 128.569,296.800 128.684 C 297.243 128.800,297.600 129.230,297.600 129.647 C 297.600 130.119,297.882 130.400,298.355 130.400 C 298.902 130.400,299.184 130.787,299.374 131.800 C 299.531 132.638,299.870 133.200,300.218 133.200 C 300.542 133.200,300.800 133.571,300.800 134.037 C 300.800 134.538,301.121 134.959,301.600 135.084 C 302.043 135.200,302.400 135.630,302.400 136.047 C 302.400 136.533,302.683 136.800,303.200 136.800 C 303.845 136.800,304.000 137.067,304.000 138.173 C 304.000 139.195,304.205 139.611,304.800 139.800 C 305.368 139.980,305.600 140.405,305.600 141.264 C 305.600 142.138,305.822 142.533,306.400 142.684 C 306.843 142.800,307.200 143.230,307.200 143.647 C 307.200 144.061,307.451 144.400,307.757 144.400 C 308.402 144.400,308.800 145.252,308.800 146.633 C 308.800 147.226,309.032 147.600,309.400 147.600 C 309.768 147.600,310.000 147.974,310.000 148.567 C 310.000 149.948,310.398 150.800,311.043 150.800 C 311.416 150.800,311.600 151.275,311.600 152.237 C 311.600 153.338,311.787 153.724,312.400 153.884 C 312.999 154.041,313.200 154.430,313.200 155.433 C 313.200 156.362,313.445 156.903,314.000 157.200 C 314.620 157.532,314.800 158.038,314.800 159.452 C 314.800 160.938,314.948 161.313,315.600 161.484 C 316.262 161.657,316.400 162.030,316.400 163.643 C 316.400 165.160,316.578 165.704,317.200 166.093 C 317.833 166.488,318.000 167.026,318.000 168.669 C 318.000 170.395,318.135 170.789,318.800 171.000 C 319.500 171.222,319.600 171.605,319.600 174.064 C 319.600 176.538,319.696 176.900,320.400 177.084 C 321.128 177.274,321.200 177.630,321.200 181.020 C 321.200 184.395,321.275 184.770,322.000 185.000 C 322.784 185.249,322.800 185.605,322.800 203.180 C 322.800 220.770,322.785 221.111,322.000 221.316 C 321.275 221.506,321.200 221.862,321.200 225.136 C 321.200 228.395,321.122 228.771,320.400 229.000 C 319.695 229.224,319.600 229.605,319.600 232.227 C 319.600 234.933,319.528 235.200,318.800 235.200 C 318.091 235.200,318.000 235.467,318.000 237.553 C 318.000 239.570,317.886 239.937,317.200 240.116 C 316.535 240.290,316.400 240.662,316.400 242.316 C 316.400 243.970,316.265 244.342,315.600 244.516 C 314.987 244.676,314.800 245.062,314.800 246.163 C 314.800 247.067,314.503 247.897,314.000 248.400 C 313.467 248.933,313.200 249.733,313.200 250.800 C 313.200 252.133,313.067 252.400,312.400 252.400 C 311.737 252.400,311.600 252.667,311.600 253.953 C 311.600 255.170,311.427 255.552,310.800 255.716 C 310.187 255.876,310.000 256.262,310.000 257.363 C 310.000 258.374,309.822 258.800,309.400 258.800 C 309.067 258.800,308.800 259.156,308.800 259.600 C 308.800 260.040,308.440 260.760,308.000 261.200 C 307.560 261.640,307.200 262.258,307.200 262.573 C 307.200 262.888,306.840 263.260,306.400 263.400 C 305.805 263.589,305.600 264.005,305.600 265.027 C 305.600 266.133,305.445 266.400,304.800 266.400 C 304.303 266.400,304.000 266.667,304.000 267.104 C 304.000 267.491,303.640 268.032,303.200 268.307 C 302.690 268.626,302.400 269.240,302.400 270.003 C 302.400 270.933,302.222 271.200,301.600 271.200 C 301.083 271.200,300.800 271.467,300.800 271.953 C 300.800 272.370,300.443 272.800,300.000 272.916 C 299.422 273.067,299.200 273.462,299.200 274.336 C 299.200 275.195,298.968 275.620,298.400 275.800 C 297.960 275.940,297.600 276.291,297.600 276.580 C 297.600 276.870,297.240 277.201,296.800 277.316 C 296.360 277.431,296.000 277.812,296.000 278.163 C 296.000 278.513,295.759 278.800,295.464 278.800 C 295.170 278.800,294.723 279.250,294.473 279.800 C 294.222 280.350,293.833 280.800,293.609 280.800 C 293.384 280.800,293.200 281.064,293.200 281.386 C 293.200 281.708,292.840 282.165,292.400 282.400 C 291.960 282.635,291.600 283.092,291.600 283.414 C 291.600 283.736,291.348 284.000,291.039 284.000 C 290.731 284.000,290.289 284.542,290.058 285.205 C 289.827 285.868,289.359 286.517,289.019 286.648 C 288.679 286.779,288.400 287.226,288.400 287.643 C 288.400 288.133,288.118 288.400,287.600 288.400 C 287.067 288.400,286.800 288.667,286.800 289.200 C 286.800 289.722,286.533 290.000,286.033 290.000 C 284.841 290.000,284.000 290.431,284.000 291.043 C 284.000 291.349,283.652 291.600,283.227 291.600 C 282.802 291.600,282.340 291.960,282.200 292.400 C 282.060 292.840,281.683 293.200,281.360 293.200 C 281.038 293.200,280.674 293.463,280.550 293.785 C 280.427 294.106,279.983 294.479,279.563 294.612 C 279.143 294.745,278.800 295.112,278.800 295.427 C 278.800 295.742,278.513 296.000,278.163 296.000 C 277.812 296.000,277.431 296.360,277.316 296.800 C 277.201 297.240,276.864 297.600,276.567 297.600 C 276.271 297.600,275.835 297.960,275.600 298.400 C 275.343 298.880,274.762 299.200,274.148 299.200 C 273.462 299.200,273.056 299.463,272.916 300.000 C 272.800 300.443,272.370 300.800,271.953 300.800 C 271.467 300.800,271.200 301.083,271.200 301.600 C 271.200 302.252,270.933 302.400,269.763 302.400 C 268.662 302.400,268.276 302.587,268.116 303.200 C 268.000 303.643,267.570 304.000,267.153 304.000 C 266.667 304.000,266.400 304.283,266.400 304.800 C 266.400 305.452,266.133 305.600,264.963 305.600 C 263.862 305.600,263.476 305.787,263.316 306.400 C 263.166 306.974,262.770 307.200,261.916 307.200 C 261.062 307.200,260.666 307.426,260.516 308.000 C 260.400 308.443,259.970 308.800,259.553 308.800 C 259.139 308.800,258.800 309.070,258.800 309.400 C 258.800 309.822,258.374 310.000,257.363 310.000 C 256.262 310.000,255.876 310.187,255.716 310.800 C 255.552 311.427,255.170 311.600,253.953 311.600 C 252.971 311.600,252.126 311.874,251.655 312.345 C 251.245 312.755,250.272 313.210,249.493 313.356 C 248.715 313.502,247.976 313.887,247.851 314.211 C 247.710 314.580,247.083 314.800,246.175 314.800 C 245.062 314.800,244.677 314.986,244.516 315.600 C 244.339 316.275,243.970 316.400,242.153 316.400 C 240.267 316.400,240.000 316.499,240.000 317.200 C 240.000 319.344,234.388 317.831,233.471 315.440 C 233.336 315.088,232.949 314.800,232.613 314.800 C 232.070 314.800,232.000 312.228,232.000 292.200 C 232.000 269.867,231.991 269.600,231.200 269.600 C 230.489 269.600,230.400 269.333,230.400 267.200 C 230.400 265.067,230.311 264.800,229.600 264.800 C 228.933 264.800,228.800 264.533,228.800 263.200 C 228.800 261.867,228.667 261.600,228.000 261.600 C 227.355 261.600,227.200 261.333,227.200 260.228 C 227.200 259.123,227.025 258.822,226.300 258.682 C 225.805 258.587,226.525 258.484,227.900 258.454 C 229.831 258.412,230.400 258.264,230.400 257.800 C 230.400 257.314,231.044 257.200,233.800 257.200 C 236.667 257.200,237.325 257.075,238.000 256.400 C 238.525 255.875,239.333 255.600,240.350 255.600 C 242.709 255.600,244.400 255.162,244.400 254.550 C 244.400 254.179,244.900 254.000,245.938 254.000 C 246.968 254.000,247.715 253.736,248.200 253.200 C 248.648 252.705,249.432 252.400,250.259 252.400 C 251.160 252.400,251.755 252.140,252.093 251.600 C 252.420 251.076,253.026 250.800,253.850 250.800 C 254.770 250.800,255.163 250.586,255.316 250.000 C 255.441 249.520,255.862 249.200,256.366 249.200 C 256.829 249.200,257.516 248.840,257.893 248.400 C 258.270 247.960,258.898 247.600,259.289 247.600 C 259.733 247.600,260.000 247.300,260.000 246.800 C 260.000 246.267,260.267 246.000,260.800 246.000 C 261.333 246.000,261.600 245.733,261.600 245.200 C 261.600 244.703,261.867 244.400,262.304 244.400 C 262.691 244.400,263.232 244.040,263.507 243.600 C 263.782 243.160,264.359 242.800,264.789 242.800 C 265.220 242.800,265.787 242.395,266.049 241.900 C 266.312 241.405,266.858 240.765,267.263 240.477 C 267.669 240.190,268.000 239.626,268.000 239.224 C 268.000 238.822,268.360 238.399,268.800 238.284 C 269.240 238.169,269.600 237.809,269.600 237.484 C 269.600 237.159,269.960 236.799,270.400 236.684 C 270.879 236.559,271.200 236.138,271.200 235.637 C 271.200 235.171,271.458 234.800,271.782 234.800 C 272.130 234.800,272.469 234.238,272.626 233.400 C 272.771 232.630,273.120 232.000,273.402 232.000 C 274.006 232.000,274.400 231.118,274.400 229.767 C 274.400 229.174,274.632 228.800,275.000 228.800 C 275.452 228.800,275.600 228.314,275.600 226.827 C 275.600 225.205,275.742 224.809,276.400 224.600 C 277.057 224.391,277.200 223.995,277.200 222.376 C 277.200 220.840,277.376 220.297,278.000 219.907 C 278.687 219.478,278.800 218.974,278.800 216.350 C 278.800 213.630,278.888 213.270,279.600 213.084 C 280.381 212.880,280.400 212.538,280.400 199.037 C 280.400 185.733,280.369 185.169,279.600 184.400 C 278.991 183.791,278.800 183.067,278.800 181.363 C 278.800 179.462,278.680 179.094,278.000 178.916 C 277.373 178.752,277.200 178.370,277.200 177.153 C 277.200 176.133,276.925 175.325,276.400 174.800 C 275.960 174.360,275.600 173.764,275.600 173.476 C 275.600 173.189,275.336 172.604,275.013 172.176 C 274.690 171.749,274.420 171.068,274.413 170.663 C 274.406 170.257,274.057 169.835,273.638 169.726 C 273.154 169.599,272.783 169.033,272.622 168.174 C 272.482 167.430,272.136 166.682,271.854 166.511 C 271.571 166.340,271.224 165.885,271.082 165.500 C 270.941 165.115,270.594 164.799,270.313 164.797 C 269.604 164.793,268.828 162.998,269.248 162.336 C 269.435 162.041,269.591 160.380,269.594 158.644 C 269.599 156.105,269.737 155.388,270.300 154.976 C 271.616 154.014,271.509 144.800,270.182 144.800 C 269.710 144.800,269.600 144.009,269.600 140.600 C 269.600 136.933,269.498 136.298,268.800 135.600 C 268.235 135.035,268.000 134.267,268.000 132.987 C 268.000 131.706,267.815 131.104,267.369 130.933 C 267.023 130.800,266.571 130.249,266.365 129.708 C 265.877 128.423,258.361 128.417,257.423 129.700 C 257.018 130.255,256.313 130.400,254.018 130.400 C 251.462 130.400,251.101 130.493,250.916 131.200 C 250.755 131.815,250.370 132.000,249.250 132.000 C 248.226 132.000,247.644 132.238,247.293 132.800 C 246.926 133.388,246.360 133.600,245.159 133.600 C 243.862 133.600,243.482 133.765,243.316 134.400 C 243.157 135.006,242.770 135.200,241.716 135.200 C 240.662 135.200,240.275 135.394,240.116 136.000 C 239.980 136.519,239.570 136.800,238.949 136.800 C 238.423 136.800,237.684 137.160,237.307 137.600 C 236.930 138.040,236.302 138.400,235.911 138.400 C 235.467 138.400,235.200 138.700,235.200 139.200 C 235.200 139.852,234.933 140.000,233.763 140.000 C 232.662 140.000,232.276 140.187,232.116 140.800 C 231.929 141.515,231.570 141.600,228.753 141.600 C 225.867 141.600,225.600 141.532,225.600 140.800 C 225.600 140.047,225.333 140.000,221.047 140.000 C 216.830 140.000,216.478 139.941,216.284 139.200 C 215.955 137.941,183.600 137.941,183.600 139.200 C 183.600 139.954,183.333 140.000,179.000 140.000 C 174.667 140.000,174.400 140.046,174.400 140.800 C 174.400 141.532,174.133 141.600,171.247 141.600 C 168.430 141.600,168.071 141.515,167.884 140.800 C 167.724 140.187,167.338 140.000,166.237 140.000 C 165.067 140.000,164.800 139.852,164.800 139.200 C 164.800 138.578,164.533 138.400,163.603 138.400 C 162.840 138.400,162.226 138.110,161.907 137.600 C 161.632 137.160,161.085 136.800,160.691 136.800 C 160.297 136.800,159.876 136.541,159.754 136.224 C 159.633 135.908,158.990 135.530,158.326 135.384 C 157.662 135.238,156.777 134.777,156.359 134.359 C 155.867 133.867,155.038 133.600,154.000 133.600 C 152.667 133.600,152.400 133.467,152.400 132.800 C 152.400 132.152,152.133 132.000,151.000 132.000 C 150.133 132.000,149.295 131.695,148.800 131.200 C 148.175 130.575,147.467 130.400,145.563 130.400 C 143.732 130.400,142.873 130.201,142.109 129.600 C 140.797 128.568,134.130 128.396,133.750 129.385 C 133.627 129.706,133.183 130.079,132.763 130.212 C 132.169 130.400,132.000 130.833,132.000 132.165 C 132.000 133.368,131.762 134.091,131.200 134.600 C 130.531 135.205,130.400 135.832,130.400 138.415 C 130.400 141.170,130.313 141.529,129.600 141.716 C 128.216 142.078,128.460 158.400,129.850 158.400 C 130.271 158.400,130.400 159.152,130.400 161.600 C 130.400 164.533,130.333 164.800,129.600 164.800 C 129.067 164.800,128.800 165.067,128.800 165.600 C 128.800 166.040,128.533 166.400,128.208 166.400 C 127.882 166.400,127.506 166.837,127.372 167.371 C 127.237 167.905,126.891 168.433,126.602 168.544 C 126.312 168.655,125.954 169.298,125.806 169.973 C 125.658 170.648,125.281 171.200,124.968 171.200 C 124.572 171.200,124.400 171.684,124.400 172.800 C 124.400 174.133,124.267 174.400,123.600 174.400 C 122.933 174.400,122.800 174.667,122.800 176.000 C 122.800 177.333,122.667 177.600,122.000 177.600 C 121.298 177.600,121.200 177.867,121.200 179.786 C 121.200 181.562,121.050 182.052,120.400 182.400 C 119.661 182.796,119.600 183.238,119.600 188.214 C 119.600 193.067,119.521 193.679,118.800 194.400 C 118.304 194.896,118.000 195.733,118.000 196.604 C 118.000 197.513,118.282 198.249,118.800 198.693 C 119.549 199.334,119.600 199.873,119.600 207.089 C 119.600 214.533,119.628 214.800,120.400 214.800 C 121.130 214.800,121.200 215.067,121.200 217.837 C 121.200 220.538,121.289 220.898,122.000 221.084 C 122.675 221.261,122.800 221.630,122.800 223.447 C 122.800 225.333,122.899 225.600,123.600 225.600 C 124.267 225.600,124.400 225.867,124.400 227.200 C 124.400 228.356,124.567 228.800,125.000 228.800 C 125.368 228.800,125.600 229.174,125.600 229.767 C 125.600 231.148,125.998 232.000,126.643 232.000 C 126.965 232.000,127.200 232.407,127.200 232.967 C 127.200 234.348,127.598 235.200,128.243 235.200 C 128.549 235.200,128.800 235.487,128.800 235.837 C 128.800 236.188,129.160 236.569,129.600 236.684 C 130.043 236.800,130.400 237.230,130.400 237.647 C 130.400 238.061,130.760 238.760,131.200 239.200 C 131.640 239.640,132.000 240.249,132.000 240.553 C 132.000 240.858,132.360 241.201,132.800 241.316 C 133.240 241.431,133.600 241.812,133.600 242.163 C 133.600 242.533,133.935 242.800,134.400 242.800 C 134.852 242.800,135.200 243.067,135.200 243.413 C 135.200 243.749,135.515 244.143,135.900 244.286 C 136.285 244.430,136.835 244.874,137.123 245.274 C 137.424 245.693,138.144 246.000,138.823 246.000 C 139.733 246.000,140.000 246.181,140.000 246.800 C 140.000 247.317,140.267 247.600,140.753 247.600 C 141.170 247.600,141.600 247.957,141.716 248.400 C 141.866 248.974,142.262 249.200,143.116 249.200 C 143.970 249.200,144.366 249.426,144.516 250.000 C 144.675 250.606,145.062 250.800,146.116 250.800 C 147.170 250.800,147.557 250.994,147.716 251.600 C 147.876 252.213,148.262 252.400,149.363 252.400 C 150.325 252.400,150.800 252.584,150.800 252.957 C 150.800 253.696,151.686 254.000,153.833 254.000 C 155.077 254.000,155.600 254.165,155.600 254.557 C 155.600 255.321,156.495 255.600,158.944 255.600 C 160.527 255.600,161.185 255.791,161.707 256.400 C 162.298 257.090,162.887 257.200,165.996 257.200 C 168.933 257.200,169.600 257.311,169.600 257.800 C 169.600 258.264,170.169 258.412,172.100 258.454 C 173.475 258.484,174.195 258.587,173.700 258.682 C 173.205 258.778,172.800 259.130,172.800 259.465 C 172.800 259.801,172.440 260.169,172.000 260.284 C 171.399 260.441,171.200 260.830,171.200 261.847 C 171.200 262.933,171.042 263.200,170.400 263.200 C 169.741 263.200,169.600 263.467,169.600 264.711 C 169.600 265.727,169.338 266.447,168.800 266.907 C 168.152 267.462,168.000 268.087,168.000 270.196 L 168.000 272.800 166.400 272.800 C 165.067 272.800,164.800 272.933,164.800 273.600 C 164.800 274.332,164.533 274.400,161.649 274.400 C 159.336 274.400,158.366 274.560,158.000 275.000 C 157.652 275.420,156.727 275.600,154.922 275.600 C 153.163 275.600,152.152 275.409,151.743 275.000 C 151.334 274.591,150.324 274.400,148.571 274.400 C 146.267 274.400,146.000 274.317,146.000 273.600 C 146.000 272.933,145.733 272.800,144.400 272.800 C 143.067 272.800,142.800 272.667,142.800 272.000 C 142.800 271.560,142.542 271.200,142.227 271.200 C 141.912 271.200,141.546 270.859,141.414 270.443 C 141.282 270.027,140.819 269.594,140.387 269.481 C 139.954 269.367,139.600 268.988,139.600 268.637 C 139.600 268.287,139.330 268.000,139.000 268.000 C 138.670 268.000,138.400 267.713,138.400 267.363 C 138.400 267.012,138.040 266.631,137.600 266.516 C 137.160 266.401,136.800 266.041,136.800 265.716 C 136.800 265.391,136.440 265.031,136.000 264.916 C 135.426 264.766,135.200 264.370,135.200 263.516 C 135.200 262.662,134.974 262.266,134.400 262.116 C 133.940 261.996,133.600 261.570,133.600 261.116 C 133.600 260.662,133.260 260.236,132.800 260.116 C 132.360 260.001,132.000 259.658,132.000 259.353 C 132.000 259.049,131.640 258.800,131.200 258.800 C 130.760 258.800,130.400 258.538,130.400 258.218 C 130.400 257.464,128.536 255.600,127.782 255.600 C 127.462 255.600,127.200 255.240,127.200 254.800 C 127.200 254.267,126.933 254.000,126.400 254.000 C 125.867 254.000,125.600 253.733,125.600 253.200 C 125.600 252.558,125.333 252.400,124.247 252.400 C 123.230 252.400,122.841 252.201,122.684 251.600 C 122.518 250.964,122.138 250.800,120.837 250.800 C 119.710 250.800,119.200 250.628,119.200 250.247 C 119.200 249.434,117.899 249.212,113.100 249.205 C 109.065 249.200,108.800 249.249,108.800 250.000 C 108.800 250.533,108.533 250.800,108.000 250.800 C 106.781 250.800,106.781 256.613,108.000 257.000 C 108.440 257.140,108.800 257.512,108.800 257.827 C 108.800 258.142,109.139 258.400,109.553 258.400 C 109.970 258.400,110.400 258.757,110.516 259.200 C 110.668 259.783,111.062 260.000,111.963 260.000 C 112.933 260.000,113.200 260.172,113.200 260.800 C 113.200 261.333,113.467 261.600,114.000 261.600 C 114.465 261.600,114.800 261.867,114.800 262.237 C 114.800 262.588,115.160 262.969,115.600 263.084 C 116.040 263.199,116.400 263.559,116.400 263.884 C 116.400 264.209,116.760 264.569,117.200 264.684 C 117.643 264.800,118.000 265.230,118.000 265.647 C 118.000 266.133,118.283 266.400,118.800 266.400 C 119.333 266.400,119.600 266.667,119.600 267.200 C 119.600 267.733,119.867 268.000,120.400 268.000 C 121.052 268.000,121.200 268.267,121.200 269.437 C 121.200 270.538,121.387 270.924,122.000 271.084 C 122.601 271.241,122.800 271.630,122.800 272.647 C 122.800 273.733,122.958 274.000,123.600 274.000 C 124.267 274.000,124.400 274.267,124.400 275.600 C 124.400 276.711,124.573 277.200,124.965 277.200 C 125.312 277.200,125.634 277.816,125.800 278.800 C 125.953 279.708,126.295 280.400,126.591 280.400 C 126.877 280.400,127.231 281.039,127.378 281.821 C 127.524 282.603,127.904 283.342,128.222 283.464 C 128.540 283.586,128.800 283.953,128.800 284.280 C 128.800 284.607,129.160 284.969,129.600 285.084 C 130.040 285.199,130.400 285.559,130.400 285.884 C 130.400 286.209,130.743 286.565,131.163 286.674 C 131.583 286.784,132.016 287.217,132.126 287.637 C 132.235 288.057,132.612 288.400,132.963 288.400 C 133.313 288.400,133.600 288.658,133.600 288.973 C 133.600 289.288,133.978 289.666,134.439 289.813 C 134.901 289.959,135.621 290.421,136.039 290.839 C 136.458 291.258,137.160 291.600,137.600 291.600 C 138.044 291.600,138.400 291.867,138.400 292.200 C 138.400 292.660,138.908 292.800,140.573 292.800 C 142.395 292.800,142.787 292.929,143.000 293.600 C 143.223 294.302,143.605 294.400,146.131 294.400 C 148.574 294.400,149.083 294.520,149.507 295.200 C 149.973 295.946,150.440 296.000,156.441 296.000 C 162.538 296.000,162.886 295.958,163.084 295.200 C 163.263 294.514,163.630 294.400,165.647 294.400 L 168.000 294.400 168.000 303.704 C 168.000 312.574,167.963 313.031,167.200 313.507 C 166.690 313.826,166.400 314.440,166.400 315.203 C 166.400 316.133,166.222 316.400,165.600 316.400 C 165.067 316.400,164.800 316.667,164.800 317.200 C 164.800 317.903,164.533 318.000,162.600 318.000 C 160.933 318.000,160.206 317.806,159.600 317.200 C 159.061 316.661,158.267 316.400,157.163 316.400 C 155.862 316.400,155.482 316.236,155.316 315.600 C 155.147 314.954,154.770 314.800,153.357 314.800 C 152.040 314.800,151.483 314.602,151.107 314.000 C 150.756 313.438,150.174 313.200,149.150 313.200 C 148.030 313.200,147.645 313.015,147.484 312.400 C 147.324 311.787,146.938 311.600,145.837 311.600 C 144.875 311.600,144.400 311.416,144.400 311.043 C 144.400 310.439,143.562 310.000,142.410 310.000 C 142.012 310.000,141.582 309.730,141.455 309.400 C 141.329 309.070,140.859 308.800,140.413 308.800 C 139.966 308.800,139.240 308.440,138.800 308.000 C 138.360 307.560,137.661 307.200,137.247 307.200 C 136.830 307.200,136.400 306.843,136.284 306.400 C 136.132 305.817,135.738 305.600,134.837 305.600 C 133.867 305.600,133.600 305.428,133.600 304.800 C 133.600 304.303,133.333 304.000,132.896 304.000 C 132.509 304.000,131.968 303.640,131.693 303.200 C 131.374 302.690,130.760 302.400,129.997 302.400 C 129.067 302.400,128.800 302.222,128.800 301.600 C 128.800 301.083,128.533 300.800,128.047 300.800 C 127.630 300.800,127.200 300.443,127.084 300.000 C 126.934 299.426,126.538 299.200,125.684 299.200 C 124.830 299.200,124.434 298.974,124.284 298.400 C 124.169 297.960,123.809 297.600,123.484 297.600 C 123.159 297.600,122.799 297.240,122.684 296.800 C 122.569 296.360,122.188 296.000,121.837 296.000 C 121.487 296.000,121.200 295.816,121.200 295.591 C 121.200 295.367,120.750 294.978,120.200 294.727 C 119.650 294.477,119.200 294.030,119.200 293.736 C 119.200 293.441,119.003 293.200,118.763 293.200 C 118.523 293.200,117.869 292.840,117.309 292.400 C 116.750 291.960,115.956 291.600,115.546 291.600 C 115.067 291.600,114.800 291.314,114.800 290.800 C 114.800 290.267,114.533 290.000,114.000 290.000 C 113.467 290.000,113.200 289.733,113.200 289.200 C 113.200 288.667,112.933 288.400,112.400 288.400 C 111.867 288.400,111.600 288.133,111.600 287.600 C 111.600 287.067,111.333 286.800,110.800 286.800 C 110.267 286.800,110.000 286.533,110.000 286.000 C 110.000 285.467,109.733 285.200,109.200 285.200 C 108.682 285.200,108.400 284.933,108.400 284.443 C 108.400 284.026,108.147 283.588,107.838 283.470 C 107.528 283.351,107.154 282.702,107.006 282.027 C 106.858 281.352,106.481 280.800,106.168 280.800 C 105.856 280.800,105.600 280.540,105.600 280.223 C 105.600 279.905,105.273 279.410,104.874 279.123 C 104.474 278.835,104.030 278.285,103.886 277.900 C 103.743 277.515,103.349 277.200,103.013 277.200 C 102.676 277.200,102.400 276.942,102.400 276.627 C 102.400 276.312,102.040 275.940,101.600 275.800 C 101.090 275.638,100.800 275.195,100.800 274.576 C 100.800 274.040,100.443 273.384,100.000 273.107 C 99.560 272.832,99.200 272.291,99.200 271.904 C 99.200 271.467,98.897 271.200,98.400 271.200 C 97.867 271.200,97.600 270.933,97.600 270.400 C 97.600 269.960,97.240 269.240,96.800 268.800 C 96.360 268.360,96.000 267.640,96.000 267.200 C 96.000 266.667,95.733 266.400,95.200 266.400 C 94.558 266.400,94.400 266.133,94.400 265.047 C 94.400 264.030,94.201 263.641,93.600 263.484 C 93.121 263.359,92.800 262.938,92.800 262.437 C 92.800 261.960,92.542 261.600,92.200 261.600 C 91.796 261.600,91.600 261.196,91.600 260.363 C 91.600 259.462,91.383 259.068,90.800 258.916 C 90.194 258.757,90.000 258.370,90.000 257.316 C 90.000 256.262,89.806 255.875,89.200 255.716 C 88.594 255.557,88.400 255.170,88.400 254.116 C 88.400 253.062,88.206 252.675,87.600 252.516 C 86.980 252.354,86.800 251.970,86.800 250.815 C 86.800 249.832,86.527 249.077,86.000 248.600 C 85.469 248.119,85.200 247.368,85.200 246.365 C 85.200 245.205,85.014 244.795,84.400 244.600 C 83.782 244.404,83.600 243.995,83.600 242.806 C 83.600 240.877,83.274 240.000,82.557 240.000 C 82.143 240.000,82.000 239.385,82.000 237.600 C 82.000 235.467,81.911 235.200,81.200 235.200 C 80.472 235.200,80.400 234.933,80.400 232.227 C 80.400 229.605,80.305 229.224,79.600 229.000 C 78.878 228.771,78.800 228.395,78.800 225.136 C 78.800 221.862,78.725 221.506,78.000 221.316 C 76.743 220.987,76.743 185.472,78.000 184.800 C 78.707 184.421,78.800 183.962,78.800 180.833 C 78.800 177.630,78.876 177.273,79.600 177.084 C 80.304 176.900,80.400 176.538,80.400 174.064 C 80.400 171.605,80.500 171.222,81.200 171.000 C 81.858 170.791,82.000 170.395,82.000 168.773 C 82.000 167.333,82.216 166.584,82.800 166.000 C 83.357 165.443,83.600 164.667,83.600 163.447 C 83.600 162.030,83.753 161.653,84.400 161.484 C 85.065 161.310,85.200 160.938,85.200 159.284 C 85.200 157.630,85.335 157.258,86.000 157.084 C 86.606 156.925,86.800 156.538,86.800 155.484 C 86.800 154.430,86.994 154.043,87.600 153.884 C 88.213 153.724,88.400 153.338,88.400 152.237 C 88.400 151.275,88.584 150.800,88.957 150.800 C 89.602 150.800,90.000 149.948,90.000 148.567 C 90.000 148.007,90.235 147.600,90.557 147.600 C 91.202 147.600,91.600 146.748,91.600 145.367 C 91.600 144.774,91.832 144.400,92.200 144.400 C 92.556 144.400,92.800 144.033,92.800 143.496 C 92.800 142.999,93.160 142.368,93.600 142.093 C 94.040 141.818,94.400 141.247,94.400 140.824 C 94.400 140.400,94.760 139.940,95.200 139.800 C 95.795 139.611,96.000 139.195,96.000 138.173 C 96.000 137.067,96.155 136.800,96.800 136.800 C 97.317 136.800,97.600 136.533,97.600 136.047 C 97.600 135.630,97.957 135.200,98.400 135.084 C 98.853 134.966,99.200 134.538,99.200 134.099 C 99.200 133.673,99.560 132.998,100.000 132.600 C 100.440 132.202,100.800 131.544,100.800 131.138 C 100.800 130.667,101.089 130.400,101.600 130.400 C 102.133 130.400,102.400 130.133,102.400 129.600 C 102.400 129.135,102.667 128.800,103.037 128.800 C 103.388 128.800,103.769 128.440,103.884 128.000 C 103.999 127.560,104.342 127.200,104.647 127.200 C 104.951 127.200,105.200 126.831,105.200 126.381 C 105.200 125.930,105.650 125.145,106.200 124.635 C 106.750 124.125,107.200 123.504,107.200 123.254 C 107.200 123.004,107.470 122.800,107.800 122.800 C 108.133 122.800,108.400 122.444,108.400 122.000 C 108.400 121.467,108.667 121.200,109.200 121.200 C 109.733 121.200,110.000 120.933,110.000 120.400 C 110.000 119.867,110.267 119.600,110.800 119.600 C 111.333 119.600,111.600 119.333,111.600 118.800 C 111.600 118.267,111.867 118.000,112.400 118.000 C 112.933 118.000,113.200 117.733,113.200 117.200 C 113.200 116.667,113.467 116.400,114.000 116.400 C 114.533 116.400,114.800 116.133,114.800 115.600 C 114.800 115.067,115.067 114.800,115.600 114.800 C 116.133 114.800,116.400 114.533,116.400 114.000 C 116.400 113.503,116.667 113.200,117.104 113.200 C 117.491 113.200,118.032 112.840,118.307 112.400 C 118.590 111.948,119.240 111.600,119.803 111.600 C 120.449 111.600,120.800 111.375,120.800 110.963 C 120.800 110.612,121.154 110.233,121.587 110.119 C 122.019 110.006,122.482 109.573,122.614 109.157 C 122.746 108.741,123.202 108.400,123.627 108.400 C 124.052 108.400,124.400 108.130,124.400 107.800 C 124.400 107.470,124.636 107.200,124.925 107.200 C 125.213 107.200,125.836 106.840,126.308 106.400 C 126.780 105.960,127.461 105.600,127.821 105.600 C 128.181 105.600,128.569 105.240,128.684 104.800 C 128.800 104.357,129.230 104.000,129.647 104.000 C 130.133 104.000,130.400 103.717,130.400 103.200 C 130.400 102.548,130.667 102.400,131.837 102.400 C 132.938 102.400,133.324 102.213,133.484 101.600 C 133.599 101.160,134.004 100.800,134.385 100.800 C 134.765 100.800,135.402 100.440,135.800 100.000 C 136.198 99.560,136.873 99.200,137.299 99.200 C 137.738 99.200,138.166 98.853,138.284 98.400 C 138.440 97.803,138.830 97.600,139.820 97.600 C 140.795 97.600,141.213 97.388,141.400 96.800 C 141.589 96.205,142.005 96.000,143.027 96.000 C 144.133 96.000,144.400 95.845,144.400 95.200 C 144.400 94.533,144.667 94.400,146.000 94.400 C 147.333 94.400,147.600 94.267,147.600 93.600 C 147.600 92.933,147.867 92.800,149.200 92.800 C 150.288 92.800,150.800 92.625,150.800 92.252 C 150.800 91.896,151.457 91.630,152.676 91.493 C 153.727 91.374,154.757 91.000,155.020 90.641 C 155.282 90.282,156.057 90.000,156.782 90.000 C 157.738 90.000,158.129 89.792,158.284 89.200 C 158.461 88.523,158.830 88.400,160.684 88.400 C 162.538 88.400,162.907 88.277,163.084 87.600 C 163.266 86.905,163.630 86.800,165.851 86.800 C 167.913 86.800,168.540 86.645,169.093 86.000 C 169.654 85.344,170.273 85.200,172.526 85.200 C 174.938 85.200,175.301 85.102,175.484 84.400 C 175.678 83.659,176.030 83.600,180.284 83.600 C 184.538 83.600,184.890 83.541,185.084 82.800 C 185.289 82.018,185.630 82.000,200.000 82.000 C 214.370 82.000,214.711 82.018,214.916 82.800 " stroke="none" fill="#040404" fill-rule="evenodd"></path><path id="path1" d="" stroke="none" fill="#080404" fill-rule="evenodd"></path><path id="path2" d="" stroke="none" fill="#080404" fill-rule="evenodd"></path><path id="path3" d="" stroke="none" fill="#080404" fill-rule="evenodd"></path><path id="path4" d="" stroke="none" fill="#080404" fill-rule="evenodd"></path></g></svg>