<svg id="svg" version="1.1" xmlns="http://www.w3.org/2000/svg" xmlns:xlink="http://www.w3.org/1999/xlink" width="400" height="400" viewBox="0, 0, 400,400"><g id="svgg"><path id="path0" d="M174.400 0.400 C 174.400 0.643,172.630 0.802,169.900 0.805 C 164.905 0.812,163.600 1.027,163.600 1.847 C 163.600 2.279,162.763 2.400,159.763 2.400 C 156.262 2.400,155.907 2.470,155.716 3.200 C 155.530 3.910,155.170 4.000,152.516 4.000 C 149.862 4.000,149.502 4.090,149.316 4.800 C 149.137 5.486,148.770 5.600,146.753 5.600 C 144.933 5.600,144.219 5.781,143.600 6.400 C 142.994 7.006,142.267 7.200,140.600 7.200 C 138.994 7.200,138.400 7.349,138.400 7.753 C 138.400 8.405,137.189 8.787,135.100 8.795 C 134.098 8.798,133.600 8.982,133.600 9.349 C 133.600 9.718,132.925 9.963,131.546 10.096 C 130.217 10.223,129.362 10.524,129.126 10.946 C 128.898 11.354,128.241 11.600,127.380 11.600 C 126.267 11.600,126.000 11.755,126.000 12.400 C 126.000 13.105,125.733 13.200,123.763 13.200 C 121.862 13.200,121.494 13.320,121.316 14.000 C 121.152 14.627,120.770 14.800,119.553 14.800 C 118.267 14.800,118.000 14.937,118.000 15.600 C 118.000 16.267,117.733 16.400,116.400 16.400 C 115.067 16.400,114.800 16.533,114.800 17.200 C 114.800 17.861,114.533 18.000,113.262 18.000 C 112.232 18.000,111.485 18.264,111.000 18.800 C 110.602 19.240,109.944 19.600,109.538 19.600 C 109.067 19.600,108.800 19.889,108.800 20.400 C 108.800 21.067,108.533 21.200,107.200 21.200 C 105.867 21.200,105.600 21.333,105.600 22.000 C 105.600 22.667,105.333 22.800,104.000 22.800 C 102.667 22.800,102.400 22.933,102.400 23.600 C 102.400 24.267,102.133 24.400,100.800 24.400 C 99.667 24.400,99.200 24.570,99.200 24.982 C 99.200 25.330,98.638 25.669,97.800 25.826 C 97.030 25.971,96.400 26.253,96.400 26.454 C 96.400 26.655,95.950 26.991,95.400 27.200 C 94.850 27.409,94.400 27.855,94.400 28.190 C 94.400 28.605,94.005 28.800,93.163 28.800 C 92.262 28.800,91.868 29.017,91.716 29.600 C 91.601 30.040,91.211 30.400,90.850 30.400 C 90.488 30.400,89.968 30.760,89.693 31.200 C 89.374 31.710,88.760 32.000,87.997 32.000 C 87.067 32.000,86.800 32.178,86.800 32.800 C 86.800 33.333,86.533 33.600,86.000 33.600 C 85.467 33.600,85.200 33.867,85.200 34.400 C 85.200 35.052,84.933 35.200,83.763 35.200 C 82.662 35.200,82.276 35.387,82.116 36.000 C 82.000 36.443,81.570 36.800,81.153 36.800 C 80.667 36.800,80.400 37.083,80.400 37.600 C 80.400 38.228,80.133 38.400,79.163 38.400 C 78.262 38.400,77.868 38.617,77.716 39.200 C 77.600 39.643,77.170 40.000,76.753 40.000 C 76.267 40.000,76.000 40.283,76.000 40.800 C 76.000 41.333,75.733 41.600,75.200 41.600 C 74.756 41.600,74.400 41.867,74.400 42.200 C 74.400 42.530,74.113 42.800,73.763 42.800 C 73.412 42.800,73.035 43.143,72.926 43.562 C 72.798 44.051,72.229 44.418,71.342 44.584 C 70.581 44.727,69.861 45.097,69.742 45.407 C 69.623 45.716,69.183 46.079,68.763 46.212 C 68.343 46.345,68.000 46.691,68.000 46.980 C 68.000 47.270,67.640 47.601,67.200 47.716 C 66.760 47.831,66.400 48.212,66.400 48.563 C 66.400 48.933,66.065 49.200,65.600 49.200 C 65.067 49.200,64.800 49.467,64.800 50.000 C 64.800 50.533,64.533 50.800,64.000 50.800 C 63.467 50.800,63.200 51.067,63.200 51.600 C 63.200 52.133,62.933 52.400,62.400 52.400 C 61.883 52.400,61.600 52.667,61.600 53.153 C 61.600 53.570,61.243 54.000,60.800 54.116 C 60.360 54.231,60.000 54.612,60.000 54.963 C 60.000 55.313,59.730 55.600,59.400 55.600 C 59.067 55.600,58.800 55.956,58.800 56.400 C 58.800 56.933,58.533 57.200,58.000 57.200 C 57.467 57.200,57.200 57.467,57.200 58.000 C 57.200 58.533,56.933 58.800,56.400 58.800 C 55.960 58.800,55.600 59.049,55.600 59.353 C 55.600 59.658,55.240 60.001,54.800 60.116 C 54.360 60.231,54.000 60.612,54.000 60.963 C 54.000 61.333,53.665 61.600,53.200 61.600 C 52.667 61.600,52.400 61.867,52.400 62.400 C 52.400 62.933,52.133 63.200,51.600 63.200 C 51.067 63.200,50.800 63.467,50.800 64.000 C 50.800 64.533,50.533 64.800,50.000 64.800 C 49.483 64.800,49.200 65.067,49.200 65.553 C 49.200 65.970,48.843 66.400,48.400 66.516 C 47.960 66.631,47.600 67.012,47.600 67.363 C 47.600 67.713,47.359 68.000,47.064 68.000 C 46.770 68.000,46.323 68.450,46.073 69.000 C 45.822 69.550,45.441 70.000,45.227 70.000 C 45.012 70.000,44.721 70.613,44.581 71.363 C 44.418 72.232,44.048 72.799,43.562 72.926 C 43.143 73.035,42.800 73.412,42.800 73.763 C 42.800 74.113,42.530 74.400,42.200 74.400 C 41.867 74.400,41.600 74.756,41.600 75.200 C 41.600 75.733,41.333 76.000,40.800 76.000 C 40.283 76.000,40.000 76.267,40.000 76.753 C 40.000 77.170,39.643 77.600,39.200 77.716 C 38.617 77.868,38.400 78.262,38.400 79.163 C 38.400 80.133,38.228 80.400,37.600 80.400 C 37.083 80.400,36.800 80.667,36.800 81.153 C 36.800 81.570,36.443 82.000,36.000 82.116 C 35.460 82.257,35.200 82.662,35.200 83.359 C 35.200 83.960,34.865 84.603,34.400 84.893 C 33.960 85.168,33.600 85.709,33.600 86.096 C 33.600 86.533,33.297 86.800,32.800 86.800 C 32.261 86.800,32.000 87.067,32.000 87.617 C 32.000 88.066,31.640 88.820,31.200 89.292 C 30.760 89.764,30.400 90.456,30.400 90.829 C 30.400 91.202,30.040 91.601,29.600 91.716 C 29.026 91.866,28.800 92.262,28.800 93.116 C 28.800 93.970,28.574 94.366,28.000 94.516 C 27.521 94.641,27.200 95.062,27.200 95.563 C 27.200 96.023,26.950 96.400,26.645 96.400 C 26.326 96.400,25.977 96.998,25.826 97.800 C 25.669 98.638,25.330 99.200,24.982 99.200 C 24.570 99.200,24.400 99.667,24.400 100.800 C 24.400 102.133,24.267 102.400,23.600 102.400 C 22.933 102.400,22.800 102.667,22.800 104.000 C 22.800 105.333,22.667 105.600,22.000 105.600 C 21.393 105.600,21.200 105.867,21.200 106.704 C 21.200 107.374,20.886 108.004,20.400 108.307 C 19.960 108.582,19.600 109.137,19.600 109.541 C 19.600 109.945,19.240 110.602,18.800 111.000 C 18.264 111.485,18.000 112.232,18.000 113.262 C 18.000 114.533,17.861 114.800,17.200 114.800 C 16.533 114.800,16.400 115.067,16.400 116.400 C 16.400 117.733,16.267 118.000,15.600 118.000 C 14.937 118.000,14.800 118.267,14.800 119.553 C 14.800 120.770,14.627 121.152,14.000 121.316 C 13.330 121.491,13.200 121.862,13.200 123.600 C 13.200 125.338,13.070 125.709,12.400 125.884 C 11.802 126.041,11.600 126.430,11.600 127.427 C 11.600 128.245,11.347 128.902,10.946 129.126 C 10.524 129.362,10.223 130.217,10.096 131.546 C 9.963 132.925,9.718 133.600,9.349 133.600 C 8.982 133.600,8.798 134.098,8.795 135.100 C 8.787 137.189,8.405 138.400,7.753 138.400 C 7.345 138.400,7.200 139.016,7.200 140.753 C 7.200 142.770,7.086 143.137,6.400 143.316 C 5.696 143.500,5.600 143.862,5.600 146.316 C 5.600 148.770,5.504 149.132,4.800 149.316 C 4.090 149.502,4.000 149.862,4.000 152.516 C 4.000 155.170,3.910 155.530,3.200 155.716 C 2.470 155.907,2.400 156.262,2.400 159.763 C 2.400 162.763,2.279 163.600,1.847 163.600 C 1.027 163.600,0.812 164.905,0.805 169.900 C 0.802 172.630,0.643 174.400,0.400 174.400 C 0.138 174.400,0.000 183.200,0.000 200.000 C 0.000 216.800,0.138 225.600,0.400 225.600 C 0.643 225.600,0.802 227.370,0.805 230.100 C 0.812 235.095,1.027 236.400,1.847 236.400 C 2.279 236.400,2.400 237.237,2.400 240.237 C 2.400 243.738,2.470 244.093,3.200 244.284 C 3.910 244.470,4.000 244.830,4.000 247.484 C 4.000 250.138,4.090 250.498,4.800 250.684 C 5.484 250.863,5.600 251.230,5.600 253.214 C 5.600 255.898,5.862 256.800,6.643 256.800 C 7.057 256.800,7.200 257.415,7.200 259.200 C 7.200 260.977,7.344 261.600,7.753 261.600 C 8.405 261.600,8.787 262.811,8.795 264.900 C 8.798 265.902,8.982 266.400,9.349 266.400 C 9.718 266.400,9.963 267.075,10.096 268.454 C 10.223 269.783,10.524 270.638,10.946 270.874 C 11.350 271.100,11.600 271.757,11.600 272.593 C 11.600 273.595,11.808 274.012,12.400 274.200 C 13.060 274.410,13.200 274.805,13.200 276.464 C 13.200 278.138,13.334 278.510,14.000 278.684 C 14.627 278.848,14.800 279.230,14.800 280.447 C 14.800 281.733,14.937 282.000,15.600 282.000 C 16.267 282.000,16.400 282.267,16.400 283.600 C 16.400 284.933,16.533 285.200,17.200 285.200 C 17.864 285.200,18.000 285.467,18.000 286.773 C 18.000 287.995,18.179 288.403,18.800 288.600 C 19.360 288.778,19.600 289.205,19.600 290.024 C 19.600 290.760,19.896 291.378,20.400 291.693 C 20.886 291.996,21.200 292.626,21.200 293.296 C 21.200 294.133,21.393 294.400,22.000 294.400 C 22.667 294.400,22.800 294.667,22.800 296.000 C 22.800 297.333,22.933 297.600,23.600 297.600 C 24.267 297.600,24.400 297.867,24.400 299.200 C 24.400 300.333,24.570 300.800,24.982 300.800 C 25.330 300.800,25.669 301.362,25.826 302.200 C 25.977 303.002,26.326 303.600,26.645 303.600 C 26.950 303.600,27.200 303.977,27.200 304.437 C 27.200 304.938,27.521 305.359,28.000 305.484 C 28.574 305.634,28.800 306.030,28.800 306.884 C 28.800 307.738,29.026 308.134,29.600 308.284 C 30.040 308.399,30.400 308.789,30.400 309.150 C 30.400 309.512,30.760 310.032,31.200 310.307 C 31.710 310.626,32.000 311.240,32.000 312.003 C 32.000 312.933,32.178 313.200,32.800 313.200 C 33.333 313.200,33.600 313.467,33.600 314.000 C 33.600 314.533,33.867 314.800,34.400 314.800 C 35.052 314.800,35.200 315.067,35.200 316.237 C 35.200 317.338,35.387 317.724,36.000 317.884 C 36.443 318.000,36.800 318.430,36.800 318.847 C 36.800 319.333,37.083 319.600,37.600 319.600 C 38.122 319.600,38.400 319.867,38.400 320.367 C 38.400 321.559,38.831 322.400,39.443 322.400 C 39.749 322.400,40.000 322.739,40.000 323.153 C 40.000 323.570,40.357 324.000,40.800 324.116 C 41.240 324.231,41.600 324.612,41.600 324.963 C 41.600 325.313,41.870 325.600,42.200 325.600 C 42.530 325.600,42.800 325.887,42.800 326.237 C 42.800 326.588,43.143 326.965,43.562 327.074 C 44.048 327.201,44.418 327.768,44.581 328.637 C 44.721 329.387,45.012 330.000,45.227 330.000 C 45.441 330.000,45.822 330.450,46.073 331.000 C 46.323 331.550,46.770 332.000,47.064 332.000 C 47.359 332.000,47.600 332.287,47.600 332.637 C 47.600 332.988,47.960 333.369,48.400 333.484 C 48.843 333.600,49.200 334.030,49.200 334.447 C 49.200 334.933,49.483 335.200,50.000 335.200 C 50.533 335.200,50.800 335.467,50.800 336.000 C 50.800 336.533,51.067 336.800,51.600 336.800 C 52.133 336.800,52.400 337.067,52.400 337.600 C 52.400 338.133,52.667 338.400,53.200 338.400 C 53.665 338.400,54.000 338.667,54.000 339.037 C 54.000 339.388,54.360 339.769,54.800 339.884 C 55.243 340.000,55.600 340.430,55.600 340.847 C 55.600 341.333,55.883 341.600,56.400 341.600 C 56.844 341.600,57.200 341.867,57.200 342.200 C 57.200 342.533,57.556 342.800,58.000 342.800 C 58.533 342.800,58.800 343.067,58.800 343.600 C 58.800 344.044,59.067 344.400,59.400 344.400 C 59.730 344.400,60.000 344.687,60.000 345.037 C 60.000 345.388,60.360 345.769,60.800 345.884 C 61.243 346.000,61.600 346.430,61.600 346.847 C 61.600 347.333,61.883 347.600,62.400 347.600 C 62.933 347.600,63.200 347.867,63.200 348.400 C 63.200 348.933,63.467 349.200,64.000 349.200 C 64.533 349.200,64.800 349.467,64.800 350.000 C 64.800 350.533,65.067 350.800,65.600 350.800 C 66.065 350.800,66.400 351.067,66.400 351.437 C 66.400 351.788,66.760 352.169,67.200 352.284 C 67.640 352.399,68.000 352.713,68.000 352.982 C 68.000 353.251,68.450 353.677,69.000 353.927 C 69.550 354.178,70.000 354.559,70.000 354.773 C 70.000 354.988,70.630 355.282,71.400 355.426 C 72.413 355.616,72.800 355.898,72.800 356.445 C 72.800 356.933,73.082 357.200,73.600 357.200 C 74.044 357.200,74.400 357.467,74.400 357.800 C 74.400 358.133,74.756 358.400,75.200 358.400 C 75.733 358.400,76.000 358.667,76.000 359.200 C 76.000 359.717,76.267 360.000,76.753 360.000 C 77.170 360.000,77.600 360.357,77.716 360.800 C 77.868 361.383,78.262 361.600,79.163 361.600 C 80.133 361.600,80.400 361.772,80.400 362.400 C 80.400 362.917,80.667 363.200,81.153 363.200 C 81.570 363.200,82.000 363.557,82.116 364.000 C 82.276 364.613,82.662 364.800,83.763 364.800 C 84.933 364.800,85.200 364.948,85.200 365.600 C 85.200 366.133,85.467 366.400,86.000 366.400 C 86.533 366.400,86.800 366.667,86.800 367.200 C 86.800 367.822,87.067 368.000,87.997 368.000 C 88.760 368.000,89.374 368.290,89.693 368.800 C 89.968 369.240,90.488 369.600,90.850 369.600 C 91.211 369.600,91.601 369.960,91.716 370.400 C 91.866 370.974,92.262 371.200,93.116 371.200 C 93.970 371.200,94.366 371.426,94.516 372.000 C 94.641 372.479,95.062 372.800,95.563 372.800 C 96.023 372.800,96.400 373.050,96.400 373.355 C 96.400 373.674,96.998 374.023,97.800 374.174 C 98.638 374.331,99.200 374.670,99.200 375.018 C 99.200 375.430,99.667 375.600,100.800 375.600 C 102.133 375.600,102.400 375.733,102.400 376.400 C 102.400 377.067,102.667 377.200,104.000 377.200 C 105.333 377.200,105.600 377.333,105.600 378.000 C 105.600 378.667,105.867 378.800,107.200 378.800 C 108.533 378.800,108.800 378.933,108.800 379.600 C 108.800 380.218,109.067 380.400,109.973 380.400 C 110.795 380.400,111.222 380.640,111.400 381.200 C 111.597 381.821,112.005 382.000,113.227 382.000 C 114.533 382.000,114.800 382.136,114.800 382.800 C 114.800 383.467,115.067 383.600,116.400 383.600 C 117.733 383.600,118.000 383.733,118.000 384.400 C 118.000 385.063,118.267 385.200,119.553 385.200 C 120.770 385.200,121.152 385.373,121.316 386.000 C 121.494 386.680,121.862 386.800,123.763 386.800 C 125.733 386.800,126.000 386.895,126.000 387.600 C 126.000 388.245,126.267 388.400,127.380 388.400 C 128.241 388.400,128.898 388.646,129.126 389.054 C 129.362 389.476,130.217 389.777,131.546 389.904 C 132.815 390.026,133.600 390.292,133.600 390.601 C 133.600 391.128,135.324 391.600,137.250 391.600 C 138.006 391.600,138.400 391.806,138.400 392.200 C 138.400 392.661,138.911 392.800,140.600 392.800 C 142.267 392.800,142.994 392.994,143.600 393.600 C 144.219 394.219,144.933 394.400,146.753 394.400 C 148.770 394.400,149.137 394.514,149.316 395.200 C 149.502 395.911,149.862 396.000,152.563 396.000 C 154.892 396.000,155.600 396.130,155.600 396.557 C 155.600 397.384,156.520 397.600,160.033 397.600 C 162.667 397.600,163.335 397.735,164.000 398.400 C 164.711 399.111,165.333 399.200,169.600 399.200 C 172.533 399.200,174.400 399.356,174.400 399.600 C 174.400 399.863,183.200 400.000,200.000 400.000 C 216.800 400.000,225.600 399.863,225.600 399.600 C 225.600 399.356,227.467 399.200,230.400 399.200 C 234.667 399.200,235.289 399.111,236.000 398.400 C 236.674 397.726,237.333 397.600,240.197 397.600 C 243.160 397.600,243.657 397.498,244.093 396.800 C 244.519 396.118,245.026 396.000,247.534 396.000 C 250.138 396.000,250.499 395.909,250.684 395.200 C 250.863 394.514,251.230 394.400,253.247 394.400 C 255.067 394.400,255.781 394.219,256.400 393.600 C 257.006 392.994,257.733 392.800,259.400 392.800 C 261.089 392.800,261.600 392.661,261.600 392.200 C 261.600 391.774,262.036 391.598,263.100 391.595 C 265.138 391.587,266.400 391.208,266.400 390.604 C 266.400 390.292,267.177 390.027,268.454 389.904 C 269.783 389.777,270.638 389.476,270.874 389.054 C 271.105 388.641,271.762 388.400,272.657 388.400 C 273.738 388.400,274.125 388.210,274.284 387.600 C 274.458 386.935,274.830 386.800,276.484 386.800 C 278.138 386.800,278.510 386.665,278.684 386.000 C 278.848 385.373,279.230 385.200,280.447 385.200 C 281.733 385.200,282.000 385.063,282.000 384.400 C 282.000 383.733,282.267 383.600,283.600 383.600 C 284.933 383.600,285.200 383.467,285.200 382.800 C 285.200 382.136,285.467 382.000,286.773 382.000 C 287.995 382.000,288.403 381.821,288.600 381.200 C 288.788 380.609,289.205 380.400,290.200 380.400 C 291.195 380.400,291.612 380.191,291.800 379.600 C 291.978 379.040,292.405 378.800,293.227 378.800 C 294.133 378.800,294.400 378.618,294.400 378.000 C 294.400 377.333,294.667 377.200,296.000 377.200 C 297.333 377.200,297.600 377.067,297.600 376.400 C 297.600 375.733,297.867 375.600,299.200 375.600 C 300.299 375.600,300.800 375.426,300.800 375.045 C 300.800 374.726,301.398 374.377,302.200 374.226 C 303.038 374.069,303.600 373.730,303.600 373.382 C 303.600 373.058,303.971 372.800,304.437 372.800 C 304.938 372.800,305.359 372.479,305.484 372.000 C 305.634 371.426,306.030 371.200,306.884 371.200 C 307.738 371.200,308.134 370.974,308.284 370.400 C 308.399 369.960,308.798 369.600,309.171 369.600 C 309.544 369.600,310.236 369.240,310.708 368.800 C 311.180 368.360,311.934 368.000,312.383 368.000 C 312.933 368.000,313.200 367.739,313.200 367.200 C 313.200 366.667,313.467 366.400,314.000 366.400 C 314.533 366.400,314.800 366.133,314.800 365.600 C 314.800 364.948,315.067 364.800,316.237 364.800 C 317.338 364.800,317.724 364.613,317.884 364.000 C 318.000 363.557,318.430 363.200,318.847 363.200 C 319.333 363.200,319.600 362.917,319.600 362.400 C 319.600 361.878,319.867 361.600,320.367 361.600 C 321.559 361.600,322.400 361.169,322.400 360.557 C 322.400 360.251,322.748 360.000,323.173 360.000 C 323.598 360.000,324.060 359.640,324.200 359.200 C 324.340 358.760,324.712 358.400,325.027 358.400 C 325.342 358.400,325.600 358.130,325.600 357.800 C 325.600 357.467,325.956 357.200,326.400 357.200 C 326.918 357.200,327.200 356.933,327.200 356.445 C 327.200 355.898,327.587 355.616,328.600 355.426 C 329.370 355.282,330.000 354.988,330.000 354.773 C 330.000 354.559,330.450 354.178,331.000 353.927 C 331.550 353.677,332.000 353.251,332.000 352.982 C 332.000 352.713,332.360 352.399,332.800 352.284 C 333.240 352.169,333.600 351.788,333.600 351.437 C 333.600 351.067,333.935 350.800,334.400 350.800 C 334.933 350.800,335.200 350.533,335.200 350.000 C 335.200 349.467,335.467 349.200,336.000 349.200 C 336.533 349.200,336.800 348.933,336.800 348.400 C 336.800 347.867,337.067 347.600,337.600 347.600 C 338.133 347.600,338.400 347.333,338.400 346.800 C 338.400 346.267,338.667 346.000,339.200 346.000 C 339.733 346.000,340.000 345.733,340.000 345.200 C 340.000 344.667,340.267 344.400,340.800 344.400 C 341.333 344.400,341.600 344.133,341.600 343.600 C 341.600 343.156,341.867 342.800,342.200 342.800 C 342.530 342.800,342.800 342.530,342.800 342.200 C 342.800 341.867,343.156 341.600,343.600 341.600 C 344.133 341.600,344.400 341.333,344.400 340.800 C 344.400 340.267,344.667 340.000,345.200 340.000 C 345.733 340.000,346.000 339.733,346.000 339.200 C 346.000 338.667,346.267 338.400,346.800 338.400 C 347.333 338.400,347.600 338.133,347.600 337.600 C 347.600 337.067,347.867 336.800,348.400 336.800 C 348.933 336.800,349.200 336.533,349.200 336.000 C 349.200 335.467,349.467 335.200,350.000 335.200 C 350.517 335.200,350.800 334.933,350.800 334.447 C 350.800 334.030,351.157 333.600,351.600 333.484 C 352.040 333.369,352.400 332.988,352.400 332.637 C 352.400 332.287,352.658 332.000,352.973 332.000 C 353.288 332.000,353.655 331.657,353.788 331.237 C 353.921 330.817,354.284 330.377,354.593 330.258 C 354.903 330.139,355.276 329.403,355.422 328.621 C 355.616 327.589,355.896 327.200,356.445 327.200 C 356.933 327.200,357.200 326.918,357.200 326.400 C 357.200 325.956,357.467 325.600,357.800 325.600 C 358.130 325.600,358.400 325.342,358.400 325.027 C 358.400 324.712,358.760 324.340,359.200 324.200 C 359.640 324.060,360.000 323.598,360.000 323.173 C 360.000 322.748,360.251 322.400,360.557 322.400 C 361.169 322.400,361.600 321.559,361.600 320.367 C 361.600 319.867,361.878 319.600,362.400 319.600 C 362.917 319.600,363.200 319.333,363.200 318.847 C 363.200 318.430,363.557 318.000,364.000 317.884 C 364.613 317.724,364.800 317.338,364.800 316.237 C 364.800 315.067,364.948 314.800,365.600 314.800 C 366.133 314.800,366.400 314.533,366.400 314.000 C 366.400 313.467,366.667 313.200,367.200 313.200 C 367.822 313.200,368.000 312.933,368.000 312.003 C 368.000 311.240,368.290 310.626,368.800 310.307 C 369.240 310.032,369.600 309.512,369.600 309.150 C 369.600 308.789,369.960 308.399,370.400 308.284 C 370.974 308.134,371.200 307.738,371.200 306.884 C 371.200 306.030,371.426 305.634,372.000 305.484 C 372.479 305.359,372.800 304.938,372.800 304.437 C 372.800 303.971,373.058 303.600,373.382 303.600 C 373.730 303.600,374.069 303.038,374.226 302.200 C 374.377 301.398,374.726 300.800,375.045 300.800 C 375.426 300.800,375.600 300.299,375.600 299.200 C 375.600 297.867,375.733 297.600,376.400 297.600 C 377.067 297.600,377.200 297.333,377.200 296.000 C 377.200 294.667,377.333 294.400,378.000 294.400 C 378.642 294.400,378.800 294.133,378.800 293.047 C 378.800 292.030,378.999 291.641,379.600 291.484 C 380.178 291.333,380.400 290.938,380.400 290.064 C 380.400 289.205,380.632 288.780,381.200 288.600 C 381.821 288.403,382.000 287.995,382.000 286.773 C 382.000 285.467,382.136 285.200,382.800 285.200 C 383.467 285.200,383.600 284.933,383.600 283.600 C 383.600 282.267,383.733 282.000,384.400 282.000 C 385.063 282.000,385.200 281.733,385.200 280.447 C 385.200 279.230,385.373 278.848,386.000 278.684 C 386.665 278.510,386.800 278.138,386.800 276.484 C 386.800 274.830,386.935 274.458,387.600 274.284 C 388.210 274.125,388.400 273.738,388.400 272.657 C 388.400 271.762,388.641 271.105,389.054 270.874 C 389.476 270.638,389.777 269.783,389.904 268.454 C 390.027 267.177,390.292 266.400,390.604 266.400 C 391.208 266.400,391.587 265.138,391.595 263.100 C 391.598 262.036,391.774 261.600,392.200 261.600 C 392.661 261.600,392.800 261.089,392.800 259.400 C 392.800 257.733,392.994 257.006,393.600 256.400 C 394.219 255.781,394.400 255.067,394.400 253.247 C 394.400 251.230,394.514 250.863,395.200 250.684 C 395.911 250.498,396.000 250.138,396.000 247.437 C 396.000 245.108,396.130 244.400,396.557 244.400 C 397.384 244.400,397.600 243.480,397.600 239.967 C 397.600 237.333,397.735 236.665,398.400 236.000 C 399.111 235.289,399.200 234.667,399.200 230.400 C 399.200 227.467,399.356 225.600,399.600 225.600 C 399.863 225.600,400.000 216.800,400.000 200.000 C 400.000 183.200,399.863 174.400,399.600 174.400 C 399.356 174.400,399.200 172.533,399.200 169.600 C 399.200 165.333,399.111 164.711,398.400 164.000 C 397.735 163.335,397.600 162.667,397.600 160.033 C 397.600 156.520,397.384 155.600,396.557 155.600 C 396.130 155.600,396.000 154.892,396.000 152.563 C 396.000 149.862,395.911 149.502,395.200 149.316 C 394.516 149.137,394.400 148.770,394.400 146.786 C 394.400 144.102,394.138 143.200,393.357 143.200 C 392.943 143.200,392.800 142.585,392.800 140.800 C 392.800 138.933,392.667 138.400,392.200 138.400 C 391.774 138.400,391.598 137.964,391.595 136.900 C 391.587 134.862,391.208 133.600,390.604 133.600 C 390.292 133.600,390.027 132.823,389.904 131.546 C 389.777 130.217,389.476 129.362,389.054 129.126 C 388.653 128.902,388.400 128.245,388.400 127.427 C 388.400 126.430,388.198 126.041,387.600 125.884 C 386.930 125.709,386.800 125.338,386.800 123.600 C 386.800 121.862,386.670 121.491,386.000 121.316 C 385.373 121.152,385.200 120.770,385.200 119.553 C 385.200 118.267,385.063 118.000,384.400 118.000 C 383.733 118.000,383.600 117.733,383.600 116.400 C 383.600 115.067,383.467 114.800,382.800 114.800 C 382.136 114.800,382.000 114.533,382.000 113.227 C 382.000 112.005,381.821 111.597,381.200 111.400 C 380.640 111.222,380.400 110.795,380.400 109.973 C 380.400 109.067,380.218 108.800,379.600 108.800 C 378.933 108.800,378.800 108.533,378.800 107.200 C 378.800 105.867,378.667 105.600,378.000 105.600 C 377.333 105.600,377.200 105.333,377.200 104.000 C 377.200 102.667,377.067 102.400,376.400 102.400 C 375.733 102.400,375.600 102.133,375.600 100.800 C 375.600 99.701,375.426 99.200,375.045 99.200 C 374.726 99.200,374.377 98.602,374.226 97.800 C 374.082 97.030,373.787 96.400,373.572 96.400 C 373.356 96.400,373.009 95.950,372.800 95.400 C 372.591 94.850,372.145 94.400,371.810 94.400 C 371.395 94.400,371.200 94.005,371.200 93.163 C 371.200 92.262,370.983 91.868,370.400 91.716 C 369.960 91.601,369.600 91.211,369.600 90.850 C 369.600 90.488,369.240 89.968,368.800 89.693 C 368.290 89.374,368.000 88.760,368.000 87.997 C 368.000 87.067,367.822 86.800,367.200 86.800 C 366.703 86.800,366.400 86.533,366.400 86.096 C 366.400 85.709,366.040 85.168,365.600 84.893 C 365.135 84.603,364.800 83.960,364.800 83.359 C 364.800 82.662,364.540 82.257,364.000 82.116 C 363.557 82.000,363.200 81.570,363.200 81.153 C 363.200 80.667,362.917 80.400,362.400 80.400 C 361.772 80.400,361.600 80.133,361.600 79.163 C 361.600 78.262,361.383 77.868,360.800 77.716 C 360.357 77.600,360.000 77.170,360.000 76.753 C 360.000 76.267,359.717 76.000,359.200 76.000 C 358.667 76.000,358.400 75.733,358.400 75.200 C 358.400 74.756,358.133 74.400,357.800 74.400 C 357.467 74.400,357.200 74.044,357.200 73.600 C 357.200 73.082,356.933 72.800,356.445 72.800 C 355.896 72.800,355.616 72.411,355.422 71.379 C 355.276 70.597,354.903 69.861,354.593 69.742 C 354.284 69.623,353.921 69.183,353.788 68.763 C 353.655 68.343,353.309 68.000,353.020 68.000 C 352.730 68.000,352.399 67.640,352.284 67.200 C 352.169 66.760,351.788 66.400,351.437 66.400 C 351.067 66.400,350.800 66.065,350.800 65.600 C 350.800 65.067,350.533 64.800,350.000 64.800 C 349.467 64.800,349.200 64.533,349.200 64.000 C 349.200 63.467,348.933 63.200,348.400 63.200 C 347.867 63.200,347.600 62.933,347.600 62.400 C 347.600 61.883,347.333 61.600,346.847 61.600 C 346.430 61.600,346.000 61.243,345.884 60.800 C 345.769 60.360,345.388 60.000,345.037 60.000 C 344.687 60.000,344.400 59.730,344.400 59.400 C 344.400 59.067,344.044 58.800,343.600 58.800 C 343.067 58.800,342.800 58.533,342.800 58.000 C 342.800 57.556,342.533 57.200,342.200 57.200 C 341.867 57.200,341.600 56.844,341.600 56.400 C 341.600 55.867,341.333 55.600,340.800 55.600 C 340.267 55.600,340.000 55.333,340.000 54.800 C 340.000 54.267,339.733 54.000,339.200 54.000 C 338.667 54.000,338.400 53.733,338.400 53.200 C 338.400 52.667,338.133 52.400,337.600 52.400 C 337.067 52.400,336.800 52.133,336.800 51.600 C 336.800 51.067,336.533 50.800,336.000 50.800 C 335.467 50.800,335.200 50.533,335.200 50.000 C 335.200 49.483,334.933 49.200,334.447 49.200 C 334.030 49.200,333.600 48.843,333.484 48.400 C 333.369 47.960,332.988 47.600,332.637 47.600 C 332.287 47.600,332.000 47.359,332.000 47.064 C 332.000 46.770,331.550 46.323,331.000 46.073 C 330.450 45.822,330.000 45.441,330.000 45.227 C 330.000 45.012,329.370 44.718,328.600 44.574 C 327.587 44.384,327.200 44.102,327.200 43.555 C 327.200 43.067,326.918 42.800,326.400 42.800 C 325.956 42.800,325.600 42.533,325.600 42.200 C 325.600 41.870,325.342 41.600,325.027 41.600 C 324.712 41.600,324.340 41.240,324.200 40.800 C 324.060 40.360,323.619 40.000,323.220 40.000 C 322.820 40.000,322.399 39.640,322.284 39.200 C 322.132 38.617,321.738 38.400,320.837 38.400 C 319.867 38.400,319.600 38.228,319.600 37.600 C 319.600 37.083,319.333 36.800,318.847 36.800 C 318.430 36.800,318.000 36.443,317.884 36.000 C 317.743 35.460,317.338 35.200,316.641 35.200 C 316.040 35.200,315.397 34.865,315.107 34.400 C 314.832 33.960,314.291 33.600,313.904 33.600 C 313.467 33.600,313.200 33.297,313.200 32.800 C 313.200 32.261,312.933 32.000,312.383 32.000 C 311.934 32.000,311.180 31.640,310.708 31.200 C 310.236 30.760,309.544 30.400,309.171 30.400 C 308.798 30.400,308.399 30.040,308.284 29.600 C 308.132 29.017,307.738 28.800,306.837 28.800 C 305.995 28.800,305.600 28.605,305.600 28.190 C 305.600 27.855,305.150 27.409,304.600 27.200 C 304.050 26.991,303.600 26.655,303.600 26.454 C 303.600 26.253,302.970 25.971,302.200 25.826 C 301.362 25.669,300.800 25.330,300.800 24.982 C 300.800 24.570,300.333 24.400,299.200 24.400 C 297.867 24.400,297.600 24.267,297.600 23.600 C 297.600 22.933,297.333 22.800,296.000 22.800 C 294.667 22.800,294.400 22.667,294.400 22.000 C 294.400 21.393,294.133 21.200,293.296 21.200 C 292.626 21.200,291.996 20.886,291.693 20.400 C 291.378 19.896,290.760 19.600,290.024 19.600 C 289.205 19.600,288.778 19.360,288.600 18.800 C 288.403 18.179,287.995 18.000,286.773 18.000 C 285.467 18.000,285.200 17.864,285.200 17.200 C 285.200 16.533,284.933 16.400,283.600 16.400 C 282.267 16.400,282.000 16.267,282.000 15.600 C 282.000 14.937,281.733 14.800,280.447 14.800 C 279.230 14.800,278.848 14.627,278.684 14.000 C 278.513 13.348,278.138 13.200,276.652 13.200 C 275.238 13.200,274.732 13.020,274.400 12.400 C 274.100 11.840,273.562 11.600,272.606 11.600 C 271.758 11.600,271.101 11.352,270.874 10.946 C 270.638 10.524,269.783 10.223,268.454 10.096 C 267.075 9.963,266.400 9.718,266.400 9.349 C 266.400 8.982,265.902 8.798,264.900 8.795 C 262.811 8.787,261.600 8.405,261.600 7.753 C 261.600 7.345,260.984 7.200,259.247 7.200 C 257.230 7.200,256.863 7.086,256.684 6.400 C 256.500 5.696,256.138 5.600,253.684 5.600 C 251.230 5.600,250.868 5.504,250.684 4.800 C 250.498 4.090,250.138 4.000,247.484 4.000 C 244.830 4.000,244.470 3.910,244.284 3.200 C 244.093 2.470,243.738 2.400,240.237 2.400 C 237.237 2.400,236.400 2.279,236.400 1.847 C 236.400 1.027,235.095 0.812,230.100 0.805 C 227.370 0.802,225.600 0.643,225.600 0.400 C 225.600 0.138,216.800 0.000,200.000 0.000 C 183.200 0.000,174.400 0.138,174.400 0.400 M307.200 110.800 C 307.200 111.505,307.467 111.600,309.437 111.600 C 311.338 111.600,311.706 111.720,311.884 112.400 C 312.039 112.994,312.430 113.200,313.400 113.200 C 314.370 113.200,314.761 113.406,314.916 114.000 C 315.076 114.613,315.462 114.800,316.563 114.800 C 317.733 114.800,318.000 114.948,318.000 115.600 C 318.000 116.133,318.267 116.400,318.800 116.400 C 319.333 116.400,319.600 116.667,319.600 117.200 C 319.600 117.733,319.867 118.000,320.400 118.000 C 320.933 118.000,321.200 118.267,321.200 118.800 C 321.200 119.333,321.467 119.600,322.000 119.600 C 322.648 119.600,322.800 119.867,322.800 121.000 C 322.800 122.133,322.952 122.400,323.600 122.400 C 324.176 122.400,324.400 122.667,324.400 123.351 C 324.400 123.874,324.650 124.510,324.957 124.764 C 325.263 125.018,325.634 126.030,325.781 127.013 C 325.956 128.177,326.250 128.800,326.625 128.800 C 327.123 128.800,327.200 138.325,327.200 200.000 C 327.200 261.052,327.119 271.200,326.635 271.200 C 326.289 271.200,325.967 271.811,325.804 272.777 C 325.657 273.644,325.282 274.566,324.969 274.826 C 324.656 275.086,324.400 275.816,324.400 276.449 C 324.400 277.333,324.215 277.600,323.600 277.600 C 322.952 277.600,322.800 277.867,322.800 279.000 C 322.800 280.133,322.648 280.400,322.000 280.400 C 321.467 280.400,321.200 280.667,321.200 281.200 C 321.200 281.733,320.933 282.000,320.400 282.000 C 319.867 282.000,319.600 282.267,319.600 282.800 C 319.600 283.297,319.333 283.600,318.896 283.600 C 318.509 283.600,317.968 283.960,317.693 284.400 C 317.403 284.865,316.760 285.200,316.159 285.200 C 315.462 285.200,315.057 285.460,314.916 286.000 C 314.760 286.597,314.370 286.800,313.380 286.800 C 312.405 286.800,311.987 287.012,311.800 287.600 C 311.587 288.271,311.195 288.400,309.373 288.400 C 307.467 288.400,307.200 288.498,307.200 289.200 C 307.200 289.998,306.933 290.000,200.000 290.000 C 93.067 290.000,92.800 289.998,92.800 289.200 C 92.800 288.498,92.533 288.400,90.627 288.400 C 88.805 288.400,88.413 288.271,88.200 287.600 C 88.013 287.012,87.595 286.800,86.620 286.800 C 85.630 286.800,85.240 286.597,85.084 286.000 C 84.943 285.460,84.538 285.200,83.841 285.200 C 83.240 285.200,82.597 284.865,82.307 284.400 C 82.032 283.960,81.491 283.600,81.104 283.600 C 80.667 283.600,80.400 283.297,80.400 282.800 C 80.400 282.267,80.133 282.000,79.600 282.000 C 79.067 282.000,78.800 281.733,78.800 281.200 C 78.800 280.667,78.533 280.400,78.000 280.400 C 77.352 280.400,77.200 280.133,77.200 279.000 C 77.200 277.867,77.048 277.600,76.400 277.600 C 75.824 277.600,75.600 277.333,75.600 276.649 C 75.600 276.126,75.330 275.474,75.000 275.200 C 74.670 274.926,74.400 274.199,74.400 273.584 C 74.400 272.060,74.024 271.200,73.357 271.200 C 72.306 271.200,72.549 128.959,73.600 128.684 C 74.231 128.519,74.400 128.138,74.400 126.886 C 74.400 125.962,74.651 125.090,75.000 124.800 C 75.330 124.526,75.600 123.874,75.600 123.351 C 75.600 122.667,75.824 122.400,76.400 122.400 C 77.048 122.400,77.200 122.133,77.200 121.000 C 77.200 119.867,77.352 119.600,78.000 119.600 C 78.533 119.600,78.800 119.333,78.800 118.800 C 78.800 118.267,79.067 118.000,79.600 118.000 C 80.133 118.000,80.400 117.733,80.400 117.200 C 80.400 116.667,80.667 116.400,81.200 116.400 C 81.733 116.400,82.000 116.133,82.000 115.600 C 82.000 114.948,82.267 114.800,83.437 114.800 C 84.538 114.800,84.924 114.613,85.084 114.000 C 85.239 113.406,85.630 113.200,86.600 113.200 C 87.570 113.200,87.961 112.994,88.116 112.400 C 88.294 111.720,88.662 111.600,90.563 111.600 C 92.533 111.600,92.800 111.505,92.800 110.800 C 92.800 110.002,93.067 110.000,200.000 110.000 C 306.933 110.000,307.200 110.002,307.200 110.800 M110.900 129.065 C 110.159 129.364,110.249 132.000,111.000 132.000 C 111.330 132.000,111.960 132.360,112.400 132.800 C 112.840 133.240,113.560 133.600,114.000 133.600 C 114.533 133.600,114.800 133.867,114.800 134.400 C 114.800 134.933,115.067 135.200,115.600 135.200 C 116.065 135.200,116.400 135.467,116.400 135.837 C 116.400 136.188,116.760 136.569,117.200 136.684 C 117.640 136.799,118.000 137.128,118.000 137.415 C 118.000 137.702,118.549 138.057,119.219 138.204 C 119.890 138.351,120.653 138.816,120.915 139.236 C 121.178 139.656,121.688 140.000,122.050 140.000 C 122.411 140.000,122.801 140.360,122.916 140.800 C 123.031 141.240,123.412 141.600,123.763 141.600 C 124.113 141.600,124.400 141.870,124.400 142.200 C 124.400 142.533,124.756 142.800,125.200 142.800 C 125.733 142.800,126.000 143.067,126.000 143.600 C 126.000 144.186,126.267 144.400,126.997 144.400 C 127.560 144.400,128.210 144.748,128.493 145.200 C 128.768 145.640,129.309 146.000,129.696 146.000 C 130.133 146.000,130.400 146.303,130.400 146.800 C 130.400 147.333,130.667 147.600,131.200 147.600 C 131.733 147.600,132.000 147.867,132.000 148.400 C 132.000 148.897,132.267 149.200,132.704 149.200 C 133.091 149.200,133.632 149.560,133.907 150.000 C 134.182 150.440,134.764 150.800,135.200 150.800 C 135.636 150.800,136.218 151.160,136.493 151.600 C 136.768 152.040,137.309 152.400,137.696 152.400 C 138.133 152.400,138.400 152.703,138.400 153.200 C 138.400 153.717,138.667 154.000,139.153 154.000 C 139.570 154.000,140.000 154.357,140.116 154.800 C 140.231 155.240,140.593 155.600,140.920 155.600 C 141.247 155.600,141.612 155.853,141.730 156.162 C 141.849 156.472,142.498 156.846,143.173 156.994 C 143.848 157.142,144.400 157.519,144.400 157.832 C 144.400 158.144,144.760 158.400,145.200 158.400 C 145.733 158.400,146.000 158.667,146.000 159.200 C 146.000 159.733,146.267 160.000,146.800 160.000 C 147.333 160.000,147.600 160.267,147.600 160.800 C 147.600 161.297,147.867 161.600,148.304 161.600 C 148.691 161.600,149.232 161.960,149.507 162.400 C 149.826 162.910,150.440 163.200,151.203 163.200 C 152.133 163.200,152.400 163.378,152.400 164.000 C 152.400 164.533,152.667 164.800,153.200 164.800 C 153.733 164.800,154.000 165.067,154.000 165.600 C 154.000 166.133,154.267 166.400,154.800 166.400 C 155.252 166.400,155.600 166.667,155.600 167.013 C 155.600 167.349,155.915 167.741,156.300 167.882 C 156.685 168.024,157.136 168.364,157.302 168.639 C 157.469 168.913,158.125 169.252,158.762 169.392 C 159.434 169.539,160.004 169.971,160.122 170.423 C 160.234 170.850,160.612 171.200,160.963 171.200 C 161.313 171.200,161.600 171.476,161.600 171.813 C 161.600 172.149,161.915 172.541,162.300 172.682 C 162.685 172.824,163.144 173.178,163.320 173.470 C 163.496 173.761,163.861 174.000,164.131 174.000 C 164.401 174.000,164.930 174.360,165.307 174.800 C 165.684 175.240,166.444 175.600,166.996 175.600 C 167.733 175.600,168.000 175.813,168.000 176.400 C 168.000 176.933,168.267 177.200,168.800 177.200 C 169.333 177.200,169.600 177.467,169.600 178.000 C 169.600 178.533,169.867 178.800,170.400 178.800 C 170.933 178.800,171.200 179.067,171.200 179.600 C 171.200 180.222,171.467 180.400,172.397 180.400 C 173.160 180.400,173.774 180.690,174.093 181.200 C 174.368 181.640,174.807 182.000,175.069 182.000 C 175.332 182.000,175.660 182.360,175.800 182.800 C 175.940 183.240,176.300 183.600,176.600 183.600 C 176.900 183.600,177.260 183.960,177.400 184.400 C 177.540 184.840,177.905 185.200,178.213 185.200 C 178.520 185.200,178.965 185.560,179.200 186.000 C 179.457 186.480,180.038 186.800,180.652 186.800 C 181.338 186.800,181.744 187.063,181.884 187.600 C 181.999 188.040,182.411 188.400,182.800 188.400 C 183.189 188.400,183.601 188.760,183.716 189.200 C 183.831 189.640,184.212 190.000,184.563 190.000 C 184.913 190.000,185.200 190.258,185.200 190.573 C 185.200 190.888,185.543 191.255,185.963 191.388 C 186.383 191.521,186.827 191.894,186.950 192.215 C 187.089 192.575,187.717 192.800,188.587 192.800 C 189.733 192.800,190.000 192.951,190.000 193.600 C 190.000 194.133,190.267 194.400,190.800 194.400 C 191.333 194.400,191.600 194.667,191.600 195.200 C 191.600 195.665,191.867 196.000,192.237 196.000 C 192.588 196.000,192.969 196.360,193.084 196.800 C 193.199 197.240,193.611 197.600,194.000 197.600 C 194.389 197.600,194.801 197.960,194.916 198.400 C 195.068 198.983,195.462 199.200,196.363 199.200 C 197.333 199.200,197.600 199.372,197.600 200.000 C 197.600 200.711,197.867 200.800,200.000 200.800 C 202.133 200.800,202.400 200.711,202.400 200.000 C 202.400 199.372,202.667 199.200,203.637 199.200 C 204.538 199.200,204.932 198.983,205.084 198.400 C 205.199 197.960,205.620 197.600,206.020 197.600 C 206.419 197.600,206.860 197.240,207.000 196.800 C 207.140 196.360,207.512 196.000,207.827 196.000 C 208.142 196.000,208.400 195.640,208.400 195.200 C 208.400 194.700,208.667 194.400,209.112 194.400 C 209.503 194.400,210.083 194.040,210.400 193.600 C 210.717 193.160,211.393 192.800,211.901 192.800 C 212.409 192.800,212.926 192.537,213.050 192.215 C 213.173 191.894,213.617 191.521,214.037 191.388 C 214.457 191.255,214.800 190.909,214.800 190.620 C 214.800 190.330,215.160 189.999,215.600 189.884 C 216.040 189.769,216.400 189.388,216.400 189.037 C 216.400 188.685,216.729 188.400,217.138 188.400 C 217.544 188.400,218.202 188.040,218.600 187.600 C 218.998 187.160,219.556 186.800,219.839 186.800 C 220.123 186.800,220.590 186.473,220.877 186.074 C 221.165 185.674,221.715 185.230,222.100 185.086 C 222.485 184.943,222.800 184.570,222.800 184.259 C 222.800 183.948,223.160 183.599,223.600 183.484 C 224.040 183.369,224.400 182.988,224.400 182.637 C 224.400 182.287,224.670 182.000,225.000 182.000 C 225.330 182.000,225.960 181.640,226.400 181.200 C 226.840 180.760,227.560 180.400,228.000 180.400 C 228.533 180.400,228.800 180.133,228.800 179.600 C 228.800 179.067,229.067 178.800,229.600 178.800 C 230.133 178.800,230.400 178.533,230.400 178.000 C 230.400 177.467,230.667 177.200,231.200 177.200 C 231.733 177.200,232.000 176.933,232.000 176.400 C 232.000 175.800,232.267 175.600,233.066 175.600 C 233.653 175.600,234.418 175.338,234.766 175.019 C 236.674 173.268,237.120 172.916,237.731 172.682 C 238.099 172.541,238.400 172.170,238.400 171.859 C 238.400 171.548,238.760 171.199,239.200 171.084 C 239.640 170.969,240.000 170.588,240.000 170.237 C 240.000 169.867,240.335 169.600,240.800 169.600 C 241.240 169.600,241.960 169.240,242.400 168.800 C 242.840 168.360,243.470 168.000,243.800 168.000 C 244.133 168.000,244.400 167.644,244.400 167.200 C 244.400 166.667,244.667 166.400,245.200 166.400 C 245.733 166.400,246.000 166.133,246.000 165.600 C 246.000 165.067,246.267 164.800,246.800 164.800 C 247.333 164.800,247.600 164.533,247.600 164.000 C 247.600 163.355,247.867 163.200,248.973 163.200 C 249.995 163.200,250.411 162.995,250.600 162.400 C 250.740 161.960,251.202 161.600,251.627 161.600 C 252.133 161.600,252.400 161.324,252.400 160.800 C 252.400 160.267,252.667 160.000,253.200 160.000 C 253.733 160.000,254.000 159.733,254.000 159.200 C 254.000 158.667,254.267 158.400,254.800 158.400 C 255.240 158.400,255.600 158.150,255.600 157.845 C 255.600 157.526,256.198 157.177,257.000 157.026 C 257.838 156.869,258.400 156.530,258.400 156.182 C 258.400 155.862,258.687 155.600,259.037 155.600 C 259.388 155.600,259.769 155.240,259.884 154.800 C 260.000 154.357,260.430 154.000,260.847 154.000 C 261.333 154.000,261.600 153.717,261.600 153.200 C 261.600 152.703,261.867 152.400,262.304 152.400 C 262.691 152.400,263.217 152.065,263.472 151.656 C 263.727 151.247,264.491 150.802,265.168 150.666 C 265.898 150.520,266.400 150.171,266.400 149.810 C 266.400 149.467,266.750 149.200,267.200 149.200 C 267.733 149.200,268.000 148.933,268.000 148.400 C 268.000 147.867,268.267 147.600,268.800 147.600 C 269.333 147.600,269.600 147.333,269.600 146.800 C 269.600 146.289,269.867 146.000,270.338 146.000 C 270.744 146.000,271.402 145.640,271.800 145.200 C 272.198 144.760,272.856 144.400,273.262 144.400 C 273.733 144.400,274.000 144.111,274.000 143.600 C 274.000 143.067,274.267 142.800,274.800 142.800 C 275.244 142.800,275.600 142.533,275.600 142.200 C 275.600 141.867,275.956 141.600,276.400 141.600 C 276.933 141.600,277.200 141.333,277.200 140.800 C 277.200 140.289,277.467 140.000,277.938 140.000 C 278.344 140.000,278.987 139.656,279.367 139.236 C 279.748 138.816,280.496 138.362,281.029 138.228 C 281.563 138.094,282.000 137.718,282.000 137.392 C 282.000 137.067,282.287 136.800,282.637 136.800 C 282.988 136.800,283.369 136.440,283.484 136.000 C 283.600 135.557,284.030 135.200,284.447 135.200 C 284.933 135.200,285.200 134.917,285.200 134.400 C 285.200 133.867,285.467 133.600,286.000 133.600 C 286.440 133.600,287.160 133.240,287.600 132.800 C 288.040 132.360,288.670 132.000,289.000 132.000 C 289.850 132.000,289.821 129.370,288.967 129.043 C 288.210 128.752,111.620 128.774,110.900 129.065 M90.267 138.667 C 89.497 139.437,89.988 267.988,90.764 268.764 C 91.184 269.184,91.591 269.859,91.669 270.264 C 91.891 271.418,308.109 271.418,308.331 270.264 C 308.409 269.859,308.817 269.183,309.238 268.762 C 309.985 268.015,310.000 266.545,309.901 203.299 L 309.800 138.600 308.672 138.471 C 307.914 138.384,307.309 138.613,306.825 139.171 C 306.430 139.627,305.632 140.000,305.053 140.000 C 304.267 140.000,304.000 140.203,304.000 140.800 C 304.000 141.333,303.733 141.600,303.200 141.600 C 302.760 141.600,302.400 141.849,302.400 142.153 C 302.400 142.458,302.040 142.801,301.600 142.916 C 301.160 143.031,300.800 143.412,300.800 143.763 C 300.800 144.120,300.469 144.400,300.047 144.400 C 299.630 144.400,299.200 144.757,299.084 145.200 C 298.961 145.673,298.538 146.000,298.053 146.000 C 297.601 146.000,296.909 146.331,296.516 146.736 C 296.122 147.141,295.485 147.585,295.100 147.723 C 294.715 147.862,294.400 148.251,294.400 148.587 C 294.400 148.924,294.113 149.200,293.763 149.200 C 293.412 149.200,293.031 149.560,292.916 150.000 C 292.801 150.440,292.501 150.800,292.250 150.800 C 291.998 150.800,291.568 151.160,291.293 151.600 C 291.003 152.065,290.360 152.400,289.759 152.400 C 289.062 152.400,288.657 152.660,288.516 153.200 C 288.400 153.643,287.970 154.000,287.553 154.000 C 287.067 154.000,286.800 154.283,286.800 154.800 C 286.800 155.333,286.533 155.600,286.000 155.600 C 285.467 155.600,285.200 155.867,285.200 156.400 C 285.200 156.922,284.933 157.200,284.433 157.200 C 283.241 157.200,282.400 157.631,282.400 158.243 C 282.400 158.549,282.034 158.800,281.587 158.800 C 281.141 158.800,280.674 159.063,280.550 159.385 C 280.427 159.706,279.983 160.079,279.563 160.212 C 279.143 160.345,278.800 160.712,278.800 161.027 C 278.800 161.342,278.513 161.600,278.163 161.600 C 277.812 161.600,277.434 161.950,277.322 162.377 C 277.202 162.835,276.630 163.262,275.932 163.415 C 275.280 163.558,274.649 163.928,274.530 164.238 C 274.412 164.547,274.047 164.800,273.720 164.800 C 273.393 164.800,273.031 165.160,272.916 165.600 C 272.800 166.043,272.370 166.400,271.953 166.400 C 271.467 166.400,271.200 166.683,271.200 167.200 C 271.200 167.733,270.933 168.000,270.400 168.000 C 269.867 168.000,269.600 168.267,269.600 168.800 C 269.600 169.422,269.333 169.600,268.403 169.600 C 267.640 169.600,267.026 169.890,266.707 170.400 C 266.432 170.840,265.891 171.200,265.504 171.200 C 265.067 171.200,264.800 171.503,264.800 172.000 C 264.800 172.533,264.533 172.800,264.000 172.800 C 263.467 172.800,263.200 173.067,263.200 173.600 C 263.200 174.133,262.933 174.400,262.400 174.400 C 261.960 174.400,261.600 174.662,261.600 174.982 C 261.600 175.330,261.038 175.669,260.200 175.826 C 259.398 175.977,258.800 176.326,258.800 176.645 C 258.800 176.950,258.513 177.200,258.163 177.200 C 257.812 177.200,257.431 177.560,257.316 178.000 C 257.200 178.443,256.770 178.800,256.353 178.800 C 255.867 178.800,255.600 179.083,255.600 179.600 C 255.600 180.133,255.333 180.400,254.800 180.400 C 254.267 180.400,254.000 180.667,254.000 181.200 C 254.000 181.852,253.733 182.000,252.563 182.000 C 251.462 182.000,251.076 182.187,250.916 182.800 C 250.800 183.243,250.370 183.600,249.953 183.600 C 249.467 183.600,249.200 183.883,249.200 184.400 C 249.200 184.933,248.933 185.200,248.400 185.200 C 247.867 185.200,247.600 185.467,247.600 186.000 C 247.600 186.497,247.333 186.800,246.896 186.800 C 246.509 186.800,245.968 187.160,245.693 187.600 C 245.410 188.052,244.760 188.400,244.197 188.400 C 243.467 188.400,243.200 188.614,243.200 189.200 C 243.200 189.733,242.933 190.000,242.400 190.000 C 241.867 190.000,241.600 190.267,241.600 190.800 C 241.600 191.333,241.333 191.600,240.800 191.600 C 240.356 191.600,240.000 191.867,240.000 192.200 C 240.000 192.530,239.758 192.800,239.462 192.800 C 239.166 192.800,238.607 193.150,238.221 193.577 C 237.834 194.005,236.996 194.469,236.359 194.609 C 235.721 194.749,235.200 195.098,235.200 195.385 C 235.200 195.672,234.840 196.001,234.400 196.116 C 233.960 196.231,233.600 196.612,233.600 196.963 C 233.600 197.333,233.265 197.600,232.800 197.600 C 232.267 197.600,232.000 197.867,232.000 198.400 C 232.000 198.933,231.733 199.200,231.200 199.200 C 230.760 199.200,230.040 199.560,229.600 200.000 C 229.160 200.440,228.530 200.800,228.200 200.800 C 227.870 200.800,227.600 201.087,227.600 201.437 C 227.600 201.788,227.240 202.169,226.800 202.284 C 226.360 202.399,226.000 202.759,226.000 203.084 C 226.000 203.409,225.640 203.769,225.200 203.884 C 224.757 204.000,224.400 204.430,224.400 204.847 C 224.400 205.417,224.109 205.600,223.203 205.600 C 222.440 205.600,221.826 205.890,221.507 206.400 C 221.232 206.840,220.691 207.200,220.304 207.200 C 219.867 207.200,219.600 207.503,219.600 208.000 C 219.600 208.533,219.333 208.800,218.800 208.800 C 218.360 208.800,218.000 209.049,218.000 209.353 C 218.000 209.658,217.640 210.001,217.200 210.116 C 216.760 210.231,216.400 210.592,216.400 210.918 C 216.400 211.279,215.852 211.614,215.000 211.774 C 214.162 211.931,213.600 212.270,213.600 212.618 C 213.600 212.938,213.252 213.200,212.827 213.200 C 212.402 213.200,211.946 213.541,211.814 213.957 C 211.682 214.373,211.219 214.806,210.787 214.919 C 210.354 215.033,210.000 215.412,210.000 215.763 C 210.000 216.113,209.730 216.400,209.400 216.400 C 209.067 216.400,208.800 216.756,208.800 217.200 C 208.800 217.852,208.533 218.000,207.363 218.000 C 206.262 218.000,205.876 218.187,205.716 218.800 C 205.600 219.243,205.170 219.600,204.753 219.600 C 204.267 219.600,204.000 219.883,204.000 220.400 C 204.000 221.147,203.733 221.200,200.000 221.200 C 196.267 221.200,196.000 221.147,196.000 220.400 C 196.000 219.883,195.733 219.600,195.247 219.600 C 194.830 219.600,194.400 219.243,194.284 218.800 C 194.134 218.226,193.738 218.000,192.884 218.000 C 192.030 218.000,191.634 217.774,191.484 217.200 C 191.369 216.760,191.009 216.400,190.684 216.400 C 190.359 216.400,189.999 216.040,189.884 215.600 C 189.769 215.160,189.388 214.800,189.037 214.800 C 188.687 214.800,188.400 214.526,188.400 214.190 C 188.400 213.855,187.950 213.409,187.400 213.200 C 186.850 212.991,186.400 212.644,186.400 212.428 C 186.400 212.213,185.787 211.921,185.037 211.781 C 184.168 211.618,183.601 211.248,183.474 210.762 C 183.365 210.343,182.988 210.000,182.637 210.000 C 182.287 210.000,182.000 209.730,182.000 209.400 C 182.000 209.067,181.644 208.800,181.200 208.800 C 180.667 208.800,180.400 208.533,180.400 208.000 C 180.400 207.483,180.133 207.200,179.647 207.200 C 179.230 207.200,178.800 206.843,178.684 206.400 C 178.524 205.787,178.138 205.600,177.037 205.600 C 175.867 205.600,175.600 205.452,175.600 204.800 C 175.600 204.360,175.351 204.000,175.047 204.000 C 174.742 204.000,174.399 203.640,174.284 203.200 C 174.169 202.760,173.800 202.400,173.464 202.400 C 173.129 202.400,172.740 202.040,172.600 201.600 C 172.460 201.160,171.998 200.800,171.573 200.800 C 171.148 200.800,170.800 200.538,170.800 200.218 C 170.800 199.870,170.238 199.531,169.400 199.374 C 168.387 199.184,168.000 198.902,168.000 198.355 C 168.000 197.882,167.719 197.600,167.247 197.600 C 166.830 197.600,166.400 197.243,166.284 196.800 C 166.169 196.360,165.788 196.000,165.437 196.000 C 165.087 196.000,164.800 195.742,164.800 195.427 C 164.800 195.112,164.422 194.734,163.961 194.587 C 163.499 194.441,162.779 193.979,162.361 193.561 C 161.942 193.142,161.240 192.800,160.800 192.800 C 160.356 192.800,160.000 192.533,160.000 192.200 C 160.000 191.867,159.644 191.600,159.200 191.600 C 158.667 191.600,158.400 191.333,158.400 190.800 C 158.400 190.267,158.133 190.000,157.600 190.000 C 157.067 190.000,156.800 189.733,156.800 189.200 C 156.800 188.689,156.533 188.400,156.062 188.400 C 155.656 188.400,154.998 188.040,154.600 187.600 C 154.202 187.160,153.544 186.800,153.138 186.800 C 152.667 186.800,152.400 186.511,152.400 186.000 C 152.400 185.467,152.133 185.200,151.600 185.200 C 151.067 185.200,150.800 184.933,150.800 184.400 C 150.800 183.883,150.533 183.600,150.047 183.600 C 149.630 183.600,149.200 183.243,149.084 182.800 C 148.943 182.260,148.538 182.000,147.841 182.000 C 147.240 182.000,146.597 181.665,146.307 181.200 C 146.032 180.760,145.491 180.400,145.104 180.400 C 144.667 180.400,144.400 180.097,144.400 179.600 C 144.400 179.067,144.133 178.800,143.600 178.800 C 143.135 178.800,142.800 178.533,142.800 178.163 C 142.800 177.812,142.440 177.431,142.000 177.316 C 141.560 177.201,141.200 176.878,141.200 176.598 C 141.200 176.318,140.570 175.971,139.800 175.826 C 138.962 175.669,138.400 175.330,138.400 174.982 C 138.400 174.662,138.040 174.400,137.600 174.400 C 137.067 174.400,136.800 174.133,136.800 173.600 C 136.800 173.067,136.533 172.800,136.000 172.800 C 135.467 172.800,135.200 172.533,135.200 172.000 C 135.200 171.476,134.933 171.200,134.427 171.200 C 134.002 171.200,133.540 170.840,133.400 170.400 C 133.211 169.805,132.795 169.600,131.773 169.600 C 130.667 169.600,130.400 169.445,130.400 168.800 C 130.400 168.267,130.133 168.000,129.600 168.000 C 129.067 168.000,128.800 167.733,128.800 167.200 C 128.800 166.667,128.533 166.400,128.000 166.400 C 127.467 166.400,127.200 166.133,127.200 165.600 C 127.200 165.156,126.933 164.800,126.600 164.800 C 126.270 164.800,125.640 164.440,125.200 164.000 C 124.760 163.560,124.040 163.200,123.600 163.200 C 123.135 163.200,122.800 162.933,122.800 162.563 C 122.800 162.212,122.440 161.831,122.000 161.716 C 121.560 161.601,121.200 161.270,121.200 160.980 C 121.200 160.691,120.857 160.345,120.437 160.212 C 120.017 160.079,119.573 159.706,119.450 159.385 C 119.326 159.063,118.956 158.800,118.627 158.800 C 118.297 158.800,117.835 158.440,117.600 158.000 C 117.320 157.476,116.762 157.200,115.986 157.200 C 115.067 157.200,114.800 157.020,114.800 156.400 C 114.800 155.867,114.533 155.600,114.000 155.600 C 113.467 155.600,113.200 155.333,113.200 154.800 C 113.200 154.267,112.933 154.000,112.400 154.000 C 111.867 154.000,111.600 153.733,111.600 153.200 C 111.600 152.663,111.333 152.400,110.787 152.400 C 110.341 152.400,109.876 152.141,109.754 151.824 C 109.633 151.508,109.027 151.138,108.407 151.002 C 107.763 150.860,107.194 150.422,107.078 149.977 C 106.966 149.550,106.588 149.200,106.237 149.200 C 105.887 149.200,105.600 148.924,105.600 148.587 C 105.600 148.251,105.285 147.857,104.900 147.714 C 104.515 147.570,103.965 147.126,103.677 146.726 C 103.390 146.327,102.923 146.000,102.639 146.000 C 102.356 146.000,101.798 145.640,101.400 145.200 C 101.002 144.760,100.365 144.400,99.985 144.400 C 99.604 144.400,99.199 144.040,99.084 143.600 C 98.969 143.160,98.588 142.800,98.237 142.800 C 97.887 142.800,97.600 142.530,97.600 142.200 C 97.600 141.867,97.244 141.600,96.800 141.600 C 96.267 141.600,96.000 141.333,96.000 140.800 C 96.000 140.192,95.733 140.000,94.888 140.000 C 94.235 140.000,93.539 139.670,93.200 139.200 C 92.647 138.432,90.831 138.102,90.267 138.667 " stroke="none" fill="#040404" fill-rule="evenodd"></path><path id="path1" d="" stroke="none" fill="#080404" fill-rule="evenodd"></path><path id="path2" d="" stroke="none" fill="#080404" fill-rule="evenodd"></path><path id="path3" d="" stroke="none" fill="#080404" fill-rule="evenodd"></path><path id="path4" d="" stroke="none" fill="#080404" fill-rule="evenodd"></path></g></svg>