<svg id="svg" version="1.1" xmlns="http://www.w3.org/2000/svg" xmlns:xlink="http://www.w3.org/1999/xlink" width="400" height="400" viewBox="0, 0, 400,400"><g id="svgg"><path id="path0" d="M320.000 3.200 C 320.000 3.422,318.933 3.600,317.600 3.600 C 316.267 3.600,315.200 3.778,315.200 4.000 C 315.200 4.220,314.480 4.400,313.600 4.400 C 312.720 4.400,312.000 4.580,312.000 4.800 C 312.000 5.020,311.471 5.200,310.824 5.200 C 310.177 5.200,309.536 5.380,309.400 5.600 C 309.264 5.820,308.724 6.000,308.200 6.000 C 307.676 6.000,307.136 6.180,307.000 6.400 C 306.864 6.620,306.403 6.800,305.976 6.800 C 305.549 6.800,305.200 6.980,305.200 7.200 C 305.200 7.420,304.660 7.600,304.000 7.600 C 303.340 7.600,302.800 7.780,302.800 8.000 C 302.800 8.220,302.498 8.400,302.130 8.400 C 301.279 8.400,295.927 10.996,293.728 12.475 C 292.808 13.094,291.903 13.600,291.716 13.600 C 291.529 13.600,291.117 13.960,290.800 14.400 C 290.483 14.840,290.017 15.200,289.765 15.200 C 289.053 15.200,284.800 19.453,284.800 20.165 C 284.800 20.514,284.620 20.800,284.400 20.800 C 284.180 20.800,284.000 21.599,284.000 22.576 C 284.000 23.553,284.180 24.464,284.400 24.600 C 284.620 24.736,284.800 25.287,284.800 25.824 C 284.800 26.400,285.033 26.800,285.367 26.800 C 285.679 26.800,286.870 27.270,288.014 27.845 C 290.587 29.137,292.234 28.962,294.796 27.126 C 308.473 17.320,323.997 13.004,337.554 15.236 C 341.233 15.841,347.718 17.278,348.200 17.594 C 348.420 17.738,349.410 18.104,350.400 18.406 C 361.749 21.877,375.201 33.502,381.308 45.118 C 405.561 91.250,363.295 142.511,313.200 127.721 C 281.018 118.218,263.430 79.285,277.733 49.210 C 279.541 45.409,279.529 42.190,277.700 40.303 C 276.985 39.565,276.400 38.745,276.400 38.481 C 276.400 38.150,275.487 38.000,273.478 38.000 C 270.399 38.000,267.600 39.597,267.600 41.354 C 267.600 41.709,267.465 42.001,267.300 42.003 C 266.941 42.007,266.000 43.944,266.000 44.680 C 266.000 44.966,265.820 45.200,265.600 45.200 C 265.380 45.200,265.200 45.650,265.200 46.200 C 265.200 46.750,265.020 47.200,264.800 47.200 C 264.580 47.200,264.400 47.740,264.400 48.400 C 264.400 49.060,264.220 49.600,264.000 49.600 C 263.780 49.600,263.600 50.140,263.600 50.800 C 263.600 51.460,263.420 52.000,263.200 52.000 C 262.980 52.000,262.800 52.529,262.800 53.176 C 262.800 53.823,262.620 54.464,262.400 54.600 C 262.180 54.736,262.000 55.647,262.000 56.624 C 262.000 57.601,261.820 58.400,261.600 58.400 C 261.380 58.400,261.200 59.354,261.200 60.520 C 261.200 61.686,261.025 62.815,260.812 63.028 C 260.598 63.242,260.373 66.012,260.312 69.183 L 260.200 74.948 258.305 75.603 C 257.262 75.963,256.287 76.379,256.138 76.529 C 255.989 76.678,255.537 76.800,255.133 76.800 C 254.730 76.800,254.400 76.980,254.400 77.200 C 254.400 77.420,254.121 77.600,253.781 77.600 C 253.440 77.600,252.416 77.960,251.506 78.400 C 250.595 78.840,249.614 79.200,249.325 79.200 C 249.036 79.200,248.799 79.335,248.799 79.500 C 248.798 79.665,247.808 80.250,246.600 80.800 C 245.392 81.350,244.402 81.935,244.401 82.100 C 244.401 82.265,244.130 82.400,243.800 82.400 C 243.470 82.400,243.200 82.580,243.200 82.800 C 243.200 83.020,242.930 83.200,242.600 83.200 C 242.270 83.200,242.000 83.380,242.000 83.600 C 242.000 83.820,241.680 84.000,241.288 84.000 C 240.897 84.000,240.317 84.360,240.000 84.800 C 239.683 85.240,239.143 85.600,238.800 85.600 C 238.457 85.600,237.917 85.960,237.600 86.400 C 237.283 86.840,236.743 87.200,236.400 87.200 C 236.057 87.200,235.517 87.560,235.200 88.000 C 234.883 88.440,234.375 88.800,234.072 88.800 C 233.769 88.800,233.017 89.340,232.400 90.000 C 231.783 90.660,231.068 91.200,230.811 91.200 C 230.553 91.200,230.118 91.425,229.842 91.700 C 229.567 91.975,228.651 92.740,227.807 93.400 C 226.964 94.060,224.708 96.130,222.796 98.000 C 218.847 101.860,215.509 104.962,214.892 105.343 C 214.469 105.605,211.657 103.148,205.910 97.494 C 204.174 95.785,202.268 94.077,201.676 93.697 C 200.315 92.823,199.795 92.419,198.599 91.300 C 198.070 90.805,197.398 90.400,197.106 90.400 C 196.815 90.400,196.317 90.040,196.000 89.600 C 195.683 89.160,195.220 88.800,194.971 88.800 C 194.722 88.800,193.994 88.305,193.352 87.700 C 192.711 87.095,191.697 86.346,191.100 86.036 C 190.502 85.726,189.658 85.141,189.223 84.736 C 188.789 84.331,188.156 84.000,187.817 84.000 C 187.478 84.000,187.200 83.820,187.200 83.600 C 187.200 83.380,186.930 83.200,186.600 83.200 C 186.270 83.200,186.000 83.020,186.000 82.800 C 186.000 82.580,185.730 82.400,185.400 82.400 C 185.070 82.400,184.800 82.220,184.800 82.000 C 184.800 81.780,184.440 81.600,184.000 81.600 C 183.560 81.600,183.200 81.420,183.200 81.200 C 183.200 80.980,182.840 80.800,182.400 80.800 C 181.960 80.800,181.600 80.620,181.600 80.400 C 181.600 80.180,181.240 80.000,180.800 80.000 C 180.360 80.000,180.000 79.820,180.000 79.600 C 180.000 79.380,179.640 79.200,179.200 79.200 C 178.760 79.200,178.400 79.020,178.400 78.800 C 178.400 78.580,178.040 78.400,177.600 78.400 C 177.160 78.400,176.800 78.220,176.800 78.000 C 176.800 77.780,176.528 77.600,176.195 77.600 C 175.862 77.600,175.277 77.435,174.895 77.234 C 173.444 76.468,171.335 75.659,169.600 75.200 C 168.610 74.939,167.487 74.562,167.105 74.363 C 166.723 74.163,166.059 74.000,165.629 74.000 C 165.199 74.000,164.736 73.820,164.600 73.600 C 164.464 73.380,163.823 73.200,163.176 73.200 C 162.529 73.200,162.000 73.020,162.000 72.800 C 162.000 72.580,161.280 72.400,160.400 72.400 C 159.520 72.400,158.800 72.220,158.800 72.000 C 158.800 71.780,158.181 71.600,157.424 71.600 C 156.667 71.600,155.936 71.420,155.800 71.200 C 155.664 70.980,154.764 70.800,153.800 70.800 C 152.836 70.800,151.936 70.620,151.800 70.400 C 151.664 70.180,150.213 70.000,148.576 70.000 C 146.859 70.000,145.600 69.831,145.600 69.600 C 145.600 69.344,142.000 69.200,135.600 69.200 C 129.200 69.200,125.600 69.344,125.600 69.600 C 125.600 69.825,124.475 70.000,123.024 70.000 C 121.607 70.000,120.336 70.180,120.200 70.400 C 120.064 70.620,119.243 70.800,118.376 70.800 C 117.509 70.800,116.800 70.980,116.800 71.200 C 116.800 71.420,116.091 71.600,115.224 71.600 C 114.357 71.600,113.536 71.780,113.400 72.000 C 113.264 72.220,112.634 72.400,112.000 72.400 C 111.366 72.400,110.736 72.580,110.600 72.800 C 110.464 73.020,109.913 73.200,109.376 73.200 C 108.839 73.200,108.400 73.380,108.400 73.600 C 108.400 73.820,107.860 74.000,107.200 74.000 C 106.540 74.000,106.000 74.158,106.000 74.350 C 106.000 74.543,105.422 74.816,104.715 74.957 C 103.202 75.260,96.660 78.350,96.467 78.853 C 96.393 79.044,95.988 79.200,95.567 79.200 C 95.145 79.200,94.800 79.380,94.800 79.600 C 94.800 79.820,94.564 80.000,94.275 80.000 C 93.987 80.000,93.364 80.360,92.892 80.800 C 92.420 81.240,91.886 81.600,91.705 81.600 C 91.524 81.600,91.117 81.960,90.800 82.400 C 90.483 82.840,89.943 83.200,89.600 83.200 C 89.257 83.200,88.717 83.560,88.400 84.000 C 88.083 84.440,87.611 84.800,87.352 84.800 C 87.093 84.800,85.962 85.700,84.839 86.800 C 83.715 87.900,82.709 88.800,82.603 88.800 C 81.853 88.800,77.755 92.928,76.428 95.020 C 74.573 97.946,75.151 102.761,77.401 103.115 C 77.841 103.185,78.560 103.408,79.000 103.612 C 82.714 105.335,83.865 104.936,88.973 100.147 C 94.430 95.031,99.200 91.685,105.400 88.623 C 112.254 85.239,115.689 84.086,123.600 82.519 C 127.708 81.705,144.144 81.543,147.400 82.284 C 148.500 82.535,150.570 82.951,152.000 83.210 C 169.026 86.294,185.781 95.731,201.857 111.290 C 209.120 118.319,210.877 119.583,213.801 119.885 C 217.622 120.279,218.832 119.434,230.200 108.437 C 238.518 100.390,249.827 92.828,259.516 88.834 L 262.432 87.632 262.774 88.516 C 262.963 89.002,263.340 90.210,263.612 91.200 C 270.638 116.736,290.566 134.940,318.200 141.064 C 326.631 142.933,342.069 141.884,351.630 138.792 C 355.603 137.508,355.669 137.482,359.311 135.841 C 360.582 135.269,361.772 134.800,361.955 134.800 C 362.588 134.800,365.452 144.720,366.747 151.400 C 368.214 158.965,368.738 176.174,367.681 182.100 C 367.417 183.585,366.997 186.015,366.749 187.500 C 366.235 190.570,364.349 198.114,363.274 201.400 C 361.533 206.716,356.678 217.363,354.775 220.036 C 354.349 220.634,354.000 221.241,354.000 221.384 C 354.000 221.792,350.890 226.270,348.062 229.934 C 345.211 233.627,341.293 237.803,326.800 252.589 C 321.410 258.088,314.013 265.650,310.363 269.394 C 301.508 278.474,285.057 295.306,276.347 304.199 C 272.467 308.160,266.900 313.880,263.974 316.911 C 261.048 319.942,258.282 322.497,257.827 322.590 C 241.489 325.925,236.812 326.546,232.078 326.007 C 228.354 325.583,214.835 323.351,209.000 322.196 C 207.460 321.892,204.040 321.254,201.400 320.779 C 198.760 320.304,195.700 319.747,194.600 319.540 C 193.500 319.333,191.520 318.976,190.200 318.748 C 186.978 318.189,184.677 317.771,181.800 317.223 C 180.480 316.971,178.590 316.617,177.600 316.436 C 171.792 315.373,168.490 310.948,170.111 306.400 C 172.082 300.872,173.965 300.217,184.000 301.571 C 185.650 301.793,188.530 302.173,190.400 302.413 C 192.270 302.654,195.060 303.016,196.600 303.217 C 198.140 303.419,201.200 303.783,203.400 304.026 C 205.600 304.269,208.660 304.632,210.200 304.833 C 230.766 307.512,243.989 301.129,247.841 286.665 C 251.488 272.966,238.947 256.329,222.600 253.182 C 218.220 252.339,216.008 251.927,214.000 251.580 C 212.790 251.372,210.900 251.029,209.800 250.818 C 208.700 250.607,206.720 250.239,205.400 250.000 C 204.080 249.761,202.100 249.393,201.000 249.182 C 199.900 248.971,198.010 248.628,196.800 248.420 C 195.590 248.211,193.520 247.845,192.200 247.607 C 186.508 246.579,180.231 246.000,174.779 246.000 C 168.132 246.000,161.836 246.638,152.400 248.266 C 146.757 249.240,144.299 249.658,142.200 250.000 C 139.690 250.409,136.085 251.035,133.100 251.580 C 131.835 251.811,129.765 252.189,128.500 252.420 C 125.855 252.903,122.911 253.397,119.200 253.980 C 117.770 254.205,115.520 254.580,114.200 254.814 C 110.474 255.475,107.069 255.983,106.307 255.992 C 105.615 256.000,88.780 239.204,83.962 233.699 C 62.049 208.662,54.791 169.899,65.892 137.200 C 67.294 133.070,67.936 131.511,70.641 125.664 C 72.530 121.583,71.940 116.400,69.586 116.400 C 69.374 116.400,69.200 116.207,69.200 115.971 C 69.200 114.296,65.419 113.841,62.963 115.221 C 61.120 116.256,60.400 116.972,60.400 117.771 C 60.400 118.117,60.220 118.400,60.000 118.400 C 59.780 118.400,59.600 118.649,59.600 118.954 C 59.600 119.259,59.331 120.024,59.002 120.654 C 58.674 121.284,58.404 122.115,58.402 122.500 C 58.401 122.885,58.220 123.200,58.000 123.200 C 57.780 123.200,57.600 123.560,57.600 124.000 C 57.600 124.440,57.420 124.800,57.200 124.800 C 56.980 124.800,56.800 125.250,56.800 125.800 C 56.800 126.350,56.620 126.800,56.400 126.800 C 56.180 126.800,56.000 127.160,56.000 127.600 C 56.000 128.040,55.820 128.400,55.600 128.400 C 55.380 128.400,55.200 128.940,55.200 129.600 C 55.200 130.260,55.020 130.800,54.800 130.800 C 54.580 130.800,54.400 131.340,54.400 132.000 C 54.400 132.660,54.220 133.200,54.000 133.200 C 53.780 133.200,53.600 133.740,53.600 134.400 C 53.600 135.060,53.420 135.600,53.200 135.600 C 52.980 135.600,52.800 136.140,52.800 136.800 C 52.800 137.460,52.620 138.000,52.400 138.000 C 52.180 138.000,52.000 138.720,52.000 139.600 C 52.000 140.480,51.820 141.200,51.600 141.200 C 51.380 141.200,51.200 141.920,51.200 142.800 C 51.200 143.680,51.020 144.400,50.800 144.400 C 50.580 144.400,50.400 145.199,50.400 146.176 C 50.400 147.153,50.220 148.064,50.000 148.200 C 49.780 148.336,49.600 149.506,49.600 150.800 C 49.600 152.094,49.420 153.264,49.200 153.400 C 48.980 153.536,48.800 155.246,48.800 157.200 C 48.800 159.154,48.620 160.864,48.400 161.000 C 47.856 161.336,47.856 177.600,48.400 177.600 C 48.638 177.600,48.800 179.125,48.800 181.376 C 48.800 183.463,48.979 185.263,49.200 185.400 C 49.420 185.536,49.600 186.616,49.600 187.800 C 49.600 188.984,49.780 190.064,50.000 190.200 C 50.220 190.336,50.400 191.247,50.400 192.224 C 50.400 193.201,50.580 194.000,50.800 194.000 C 51.020 194.000,51.200 194.799,51.200 195.776 C 51.200 196.753,51.380 197.664,51.600 197.800 C 51.820 197.936,52.000 198.577,52.000 199.224 C 52.000 199.871,52.180 200.400,52.400 200.400 C 52.620 200.400,52.800 201.019,52.800 201.776 C 52.800 202.533,52.980 203.264,53.200 203.400 C 53.420 203.536,53.600 204.076,53.600 204.600 C 53.600 205.124,53.780 205.664,54.000 205.800 C 54.220 205.936,54.400 206.487,54.400 207.024 C 54.400 207.561,54.580 208.000,54.800 208.000 C 55.020 208.000,55.200 208.439,55.200 208.976 C 55.200 209.513,55.380 210.064,55.600 210.200 C 55.820 210.336,56.000 210.797,56.000 211.224 C 56.000 211.651,56.180 212.000,56.400 212.000 C 56.620 212.000,56.800 212.439,56.800 212.976 C 56.800 213.513,56.980 214.064,57.200 214.200 C 57.420 214.336,57.600 214.797,57.600 215.224 C 57.600 215.651,57.780 216.000,58.000 216.000 C 58.220 216.000,58.400 216.304,58.400 216.676 C 58.400 217.445,61.921 224.737,62.661 225.502 C 62.929 225.779,63.262 226.364,63.401 226.802 C 63.540 227.241,63.822 227.600,64.027 227.600 C 64.232 227.600,64.400 227.920,64.400 228.312 C 64.400 228.703,64.760 229.283,65.200 229.600 C 65.640 229.917,66.000 230.497,66.000 230.888 C 66.000 231.280,66.150 231.600,66.332 231.600 C 66.515 231.600,66.919 232.095,67.230 232.700 C 67.540 233.305,68.111 234.091,68.497 234.447 C 68.884 234.803,69.200 235.271,69.200 235.488 C 69.200 235.704,69.740 236.446,70.400 237.137 C 71.060 237.828,71.600 238.482,71.600 238.592 C 71.600 238.963,73.055 240.604,74.486 241.846 C 74.769 242.092,75.270 242.696,75.600 243.188 C 76.746 244.898,79.029 247.387,84.335 252.711 C 87.269 255.654,89.609 258.110,89.535 258.167 C 89.461 258.225,87.600 258.479,85.400 258.732 C 83.200 258.986,80.320 259.384,79.000 259.618 C 77.680 259.852,75.700 260.132,74.600 260.241 C 73.500 260.350,72.240 260.601,71.800 260.800 C 69.678 261.759,66.799 261.471,66.800 260.300 C 66.800 259.695,66.620 259.200,66.400 259.200 C 66.180 259.200,66.000 258.921,66.000 258.581 C 66.000 257.758,62.663 254.400,61.844 254.400 C 61.490 254.400,61.200 254.220,61.200 254.000 C 61.200 253.780,60.480 253.600,59.600 253.600 C 58.720 253.600,58.000 253.420,58.000 253.200 C 58.000 252.938,49.475 252.800,33.224 252.800 C 17.137 252.800,8.361 252.940,8.200 253.200 C 8.064 253.420,7.153 253.600,6.176 253.600 C 5.199 253.600,4.400 253.780,4.400 254.000 C 4.400 254.220,4.124 254.400,3.787 254.400 C 3.449 254.400,2.504 255.069,1.687 255.887 L 0.200 257.373 0.095 313.115 C -0.021 374.292,-0.154 370.768,2.318 372.041 C 2.913 372.348,3.490 372.689,3.600 372.799 C 4.745 373.948,6.008 374.000,32.982 374.000 C 59.651 374.000,60.413 373.979,61.803 373.199 C 63.784 372.085,66.000 369.783,66.000 368.837 C 66.000 368.403,66.180 367.936,66.400 367.800 C 66.620 367.664,66.800 367.203,66.800 366.776 C 66.800 366.137,67.083 366.000,68.400 366.000 C 69.280 366.000,70.000 366.180,70.000 366.400 C 70.000 366.620,70.529 366.800,71.176 366.800 C 71.823 366.800,72.464 366.980,72.600 367.200 C 72.736 367.420,73.467 367.600,74.224 367.600 C 74.981 367.600,75.600 367.780,75.600 368.000 C 75.600 368.220,76.230 368.400,77.000 368.400 C 77.770 368.400,78.400 368.580,78.400 368.800 C 78.400 369.020,79.019 369.200,79.776 369.200 C 80.533 369.200,81.264 369.380,81.400 369.600 C 81.536 369.820,82.166 370.000,82.800 370.000 C 83.434 370.000,84.064 370.180,84.200 370.400 C 84.336 370.620,85.067 370.800,85.824 370.800 C 86.581 370.800,87.200 370.960,87.200 371.156 C 87.200 371.352,87.830 371.622,88.600 371.756 C 89.370 371.890,90.632 372.110,91.404 372.244 C 92.176 372.379,92.906 372.649,93.027 372.844 C 93.148 373.040,93.766 373.200,94.400 373.200 C 95.034 373.200,95.664 373.380,95.800 373.600 C 95.936 373.820,96.631 374.000,97.344 374.000 C 98.057 374.000,98.819 374.179,99.038 374.398 C 99.256 374.616,100.552 374.912,101.918 375.054 C 103.283 375.197,104.400 375.468,104.400 375.657 C 104.400 375.846,104.929 376.000,105.576 376.000 C 106.223 376.000,106.864 376.180,107.000 376.400 C 107.136 376.620,107.867 376.800,108.624 376.800 C 109.381 376.800,110.000 376.980,110.000 377.200 C 110.000 377.420,110.630 377.600,111.400 377.600 C 112.170 377.600,112.800 377.780,112.800 378.000 C 112.800 378.220,113.419 378.400,114.176 378.400 C 114.933 378.400,115.664 378.580,115.800 378.800 C 115.936 379.020,116.577 379.200,117.224 379.200 C 117.871 379.200,118.400 379.380,118.400 379.600 C 118.400 379.820,119.120 380.000,120.000 380.000 C 120.880 380.000,121.600 380.180,121.600 380.400 C 121.600 380.620,122.219 380.800,122.976 380.800 C 123.733 380.800,124.464 380.980,124.600 381.200 C 124.736 381.420,125.377 381.600,126.024 381.600 C 126.671 381.600,127.200 381.780,127.200 382.000 C 127.200 382.220,127.830 382.400,128.600 382.400 C 129.370 382.400,130.000 382.580,130.000 382.800 C 130.000 383.020,130.720 383.200,131.600 383.200 C 132.480 383.200,133.200 383.380,133.200 383.600 C 133.200 383.820,133.729 384.000,134.376 384.000 C 135.023 384.000,135.664 384.180,135.800 384.400 C 135.936 384.620,136.667 384.800,137.424 384.800 C 138.181 384.800,138.800 384.980,138.800 385.200 C 138.800 385.420,139.520 385.600,140.400 385.600 C 141.280 385.600,142.000 385.780,142.000 386.000 C 142.000 386.220,142.529 386.400,143.176 386.400 C 143.823 386.400,144.464 386.580,144.600 386.800 C 144.736 387.020,145.366 387.200,146.000 387.200 C 146.634 387.200,147.264 387.380,147.400 387.600 C 147.536 387.820,148.267 388.000,149.024 388.000 C 149.781 388.000,150.400 388.160,150.400 388.356 C 150.400 388.552,150.985 388.809,151.700 388.927 C 152.415 389.046,153.810 389.348,154.800 389.600 C 155.790 389.852,157.185 390.154,157.900 390.273 C 158.615 390.391,159.200 390.634,159.200 390.812 C 159.200 390.990,160.370 391.262,161.800 391.415 C 163.230 391.568,164.400 391.852,164.400 392.047 C 164.400 392.241,165.120 392.400,166.000 392.400 C 166.880 392.400,167.600 392.580,167.600 392.800 C 167.600 393.020,168.140 393.200,168.800 393.200 C 169.460 393.200,170.000 393.380,170.000 393.600 C 170.000 393.820,170.720 394.000,171.600 394.000 C 172.480 394.000,173.200 394.180,173.200 394.400 C 173.200 394.620,173.819 394.800,174.576 394.800 C 175.333 394.800,176.064 394.980,176.200 395.200 C 176.336 395.420,177.247 395.600,178.224 395.600 C 179.201 395.600,180.000 395.780,180.000 396.000 C 180.000 396.222,181.067 396.400,182.400 396.400 C 183.733 396.400,184.800 396.578,184.800 396.800 C 184.800 397.057,188.667 397.200,195.600 397.200 C 202.533 397.200,206.400 397.057,206.400 396.800 C 206.400 396.580,207.379 396.400,208.576 396.400 C 209.773 396.400,210.864 396.220,211.000 396.000 C 211.136 395.780,211.957 395.600,212.824 395.600 C 213.691 395.600,214.400 395.420,214.400 395.200 C 214.400 394.980,215.120 394.800,216.000 394.800 C 216.880 394.800,217.600 394.620,217.600 394.400 C 217.600 394.180,218.320 394.000,219.200 394.000 C 220.080 394.000,220.800 393.820,220.800 393.600 C 220.800 393.380,221.340 393.200,222.000 393.200 C 222.660 393.200,223.200 393.020,223.200 392.800 C 223.200 392.580,223.729 392.400,224.376 392.400 C 225.023 392.400,225.664 392.220,225.800 392.000 C 225.936 391.780,226.466 391.600,226.978 391.600 C 227.983 391.600,231.765 390.554,232.895 389.963 C 233.277 389.763,233.941 389.600,234.371 389.600 C 234.801 389.600,235.264 389.420,235.400 389.200 C 235.536 388.980,236.076 388.800,236.600 388.800 C 237.124 388.800,237.664 388.620,237.800 388.400 C 237.936 388.180,238.476 388.000,239.000 388.000 C 239.524 388.000,240.064 387.820,240.200 387.600 C 240.336 387.380,240.876 387.200,241.400 387.200 C 241.924 387.200,242.464 387.020,242.600 386.800 C 242.736 386.580,243.366 386.400,244.000 386.400 C 244.634 386.400,245.264 386.220,245.400 386.000 C 245.536 385.780,246.076 385.600,246.600 385.600 C 247.124 385.600,247.664 385.420,247.800 385.200 C 247.936 384.980,248.577 384.800,249.224 384.800 C 249.871 384.800,250.400 384.620,250.400 384.400 C 250.400 384.180,250.940 384.000,251.600 384.000 C 252.260 384.000,252.800 383.820,252.800 383.600 C 252.800 383.380,253.340 383.200,254.000 383.200 C 254.660 383.200,255.200 383.020,255.200 382.800 C 255.200 382.580,255.639 382.400,256.176 382.400 C 256.713 382.400,257.264 382.220,257.400 382.000 C 257.536 381.780,258.087 381.600,258.624 381.600 C 259.161 381.600,259.600 381.420,259.600 381.200 C 259.600 380.980,260.140 380.800,260.800 380.800 C 261.460 380.800,262.000 380.620,262.000 380.400 C 262.000 380.180,262.619 380.000,263.376 380.000 C 264.133 380.000,264.864 379.820,265.000 379.600 C 265.136 379.380,265.676 379.200,266.200 379.200 C 266.724 379.200,267.264 379.020,267.400 378.800 C 267.536 378.580,268.177 378.400,268.824 378.400 C 269.471 378.400,270.000 378.220,270.000 378.000 C 270.000 377.780,270.540 377.600,271.200 377.600 C 271.860 377.600,272.400 377.420,272.400 377.200 C 272.400 376.980,272.839 376.800,273.376 376.800 C 273.913 376.800,274.464 376.620,274.600 376.400 C 274.736 376.180,275.287 376.000,275.824 376.000 C 276.361 376.000,276.800 375.841,276.800 375.646 C 276.800 375.451,277.787 375.169,278.994 375.018 C 280.200 374.867,281.291 374.577,281.417 374.372 C 281.544 374.167,282.076 374.000,282.600 374.000 C 283.124 374.000,283.664 373.820,283.800 373.600 C 283.936 373.380,284.566 373.200,285.200 373.200 C 285.834 373.200,286.464 373.020,286.600 372.800 C 286.736 372.580,287.276 372.400,287.800 372.400 C 288.324 372.400,288.864 372.220,289.000 372.000 C 289.136 371.780,289.777 371.600,290.424 371.600 C 291.071 371.600,291.600 371.420,291.600 371.200 C 291.600 370.980,292.140 370.800,292.800 370.800 C 293.460 370.800,294.000 370.620,294.000 370.400 C 294.000 370.180,294.540 370.000,295.200 370.000 C 295.860 370.000,296.400 369.820,296.400 369.600 C 296.400 369.380,296.940 369.200,297.600 369.200 C 298.260 369.200,298.800 369.020,298.800 368.800 C 298.800 368.580,299.340 368.400,300.000 368.400 C 300.660 368.400,301.200 368.220,301.200 368.000 C 301.200 367.780,301.740 367.600,302.400 367.600 C 303.060 367.600,303.600 367.420,303.600 367.200 C 303.600 366.980,304.230 366.800,305.000 366.800 C 305.770 366.800,306.400 366.620,306.400 366.400 C 306.400 366.180,306.940 366.000,307.600 366.000 C 308.260 366.000,308.800 365.820,308.800 365.600 C 308.800 365.380,309.340 365.200,310.000 365.200 C 310.660 365.200,311.200 365.020,311.200 364.800 C 311.200 364.580,311.740 364.400,312.400 364.400 C 313.060 364.400,313.600 364.220,313.600 364.000 C 313.600 363.780,314.140 363.600,314.800 363.600 C 315.460 363.600,316.000 363.420,316.000 363.200 C 316.000 362.980,316.540 362.800,317.200 362.800 C 317.860 362.800,318.400 362.620,318.400 362.400 C 318.400 362.180,318.940 362.000,319.600 362.000 C 320.260 362.000,320.800 361.820,320.800 361.600 C 320.800 361.380,321.340 361.200,322.000 361.200 C 322.660 361.200,323.200 361.020,323.200 360.800 C 323.200 360.580,323.639 360.400,324.176 360.400 C 324.713 360.400,325.264 360.220,325.400 360.000 C 325.536 359.780,326.267 359.600,327.024 359.600 C 327.781 359.600,328.400 359.420,328.400 359.200 C 328.400 358.980,328.838 358.800,329.372 358.800 C 330.554 358.800,336.947 356.752,337.133 356.313 C 337.207 356.141,337.516 356.000,337.821 356.000 C 338.126 356.000,338.986 355.657,339.733 355.238 C 340.480 354.818,341.518 354.233,342.041 353.938 C 342.564 353.642,343.284 353.085,343.643 352.700 C 344.001 352.315,344.501 352.000,344.753 352.000 C 345.388 352.000,351.200 346.135,351.200 345.495 C 351.200 345.210,351.560 344.717,352.000 344.400 C 352.440 344.083,352.800 343.503,352.800 343.112 C 352.800 342.720,352.936 342.400,353.102 342.400 C 353.269 342.400,353.640 341.815,353.929 341.100 C 354.217 340.385,354.621 339.487,354.826 339.105 C 355.032 338.723,355.200 337.969,355.200 337.429 C 355.200 336.889,355.380 336.336,355.600 336.200 C 356.138 335.868,356.138 324.800,355.600 324.800 C 355.380 324.800,355.200 324.260,355.200 323.600 C 355.200 322.940,355.020 322.400,354.800 322.400 C 354.580 322.400,354.396 321.995,354.391 321.500 C 354.386 321.005,354.030 320.150,353.600 319.600 C 353.170 319.050,352.814 318.456,352.809 318.281 C 352.792 317.675,346.838 312.000,346.219 312.000 C 345.879 312.000,345.600 311.820,345.600 311.600 C 345.600 311.380,345.240 311.200,344.800 311.200 C 344.360 311.200,344.000 311.020,344.000 310.800 C 344.000 310.580,343.640 310.400,343.200 310.400 C 342.760 310.400,342.400 310.240,342.400 310.045 C 342.400 309.850,341.905 309.591,341.300 309.469 C 340.695 309.348,339.210 309.038,338.000 308.782 C 335.363 308.223,320.430 308.492,318.600 309.131 C 317.940 309.362,316.590 309.762,315.600 310.021 C 314.610 310.280,313.440 310.640,313.000 310.823 C 312.560 311.005,311.480 311.246,310.600 311.357 C 309.720 311.468,308.010 311.759,306.800 312.003 C 305.590 312.247,303.790 312.544,302.800 312.662 C 301.810 312.781,300.829 313.040,300.620 313.239 C 300.411 313.437,299.477 313.600,298.544 313.600 C 297.611 313.600,296.736 313.780,296.600 314.000 C 296.464 314.220,295.553 314.400,294.576 314.400 C 293.599 314.400,292.800 314.580,292.800 314.800 C 292.800 315.020,291.900 315.200,290.800 315.200 C 289.700 315.200,288.800 315.380,288.800 315.600 C 288.800 315.820,287.900 316.000,286.800 316.000 C 285.700 316.000,284.800 316.180,284.800 316.400 C 284.800 316.620,284.260 316.800,283.600 316.800 C 282.025 316.800,282.047 316.739,284.500 314.262 C 285.655 313.095,288.220 310.383,290.200 308.233 C 292.180 306.084,300.280 297.803,308.200 289.831 C 316.120 281.859,323.500 274.296,324.600 273.025 C 325.700 271.753,332.475 264.819,339.655 257.615 C 346.835 250.411,352.938 244.085,353.217 243.558 C 353.496 243.031,354.297 242.108,354.996 241.506 C 355.694 240.905,356.881 239.510,357.633 238.407 C 358.385 237.304,359.135 236.401,359.300 236.401 C 359.465 236.400,359.600 236.112,359.600 235.760 C 359.600 235.409,360.140 234.617,360.800 234.000 C 361.460 233.383,362.000 232.631,362.000 232.328 C 362.000 232.025,362.360 231.517,362.800 231.200 C 363.240 230.883,363.600 230.303,363.600 229.912 C 363.600 229.520,363.780 229.200,364.000 229.200 C 364.220 229.200,364.400 228.880,364.400 228.488 C 364.400 228.097,364.760 227.517,365.200 227.200 C 365.640 226.883,366.000 226.303,366.000 225.912 C 366.000 225.520,366.146 225.200,366.325 225.200 C 366.504 225.200,366.898 224.570,367.200 223.800 C 367.502 223.030,367.896 222.400,368.075 222.400 C 368.254 222.400,368.400 222.040,368.400 221.600 C 368.400 221.160,368.580 220.800,368.800 220.800 C 369.020 220.800,369.200 220.440,369.200 220.000 C 369.200 219.560,369.380 219.200,369.600 219.200 C 369.820 219.200,370.000 218.840,370.000 218.400 C 370.000 217.960,370.180 217.600,370.400 217.600 C 370.620 217.600,370.800 217.240,370.800 216.800 C 370.800 216.360,370.980 216.000,371.200 216.000 C 371.420 216.000,371.600 215.728,371.600 215.395 C 371.600 215.062,371.759 214.477,371.953 214.095 C 372.148 213.713,372.508 212.905,372.753 212.300 C 372.999 211.695,373.401 210.705,373.647 210.100 C 373.892 209.495,374.244 208.701,374.428 208.335 C 374.612 207.969,374.885 206.754,375.033 205.635 C 375.182 204.516,375.460 203.600,375.652 203.600 C 375.843 203.600,376.000 203.060,376.000 202.400 C 376.000 201.740,376.180 201.200,376.400 201.200 C 376.620 201.200,376.800 200.480,376.800 199.600 C 376.800 198.720,376.980 198.000,377.200 198.000 C 377.420 198.000,377.600 197.280,377.600 196.400 C 377.600 195.520,377.780 194.800,378.000 194.800 C 378.220 194.800,378.400 194.001,378.400 193.024 C 378.400 192.047,378.580 191.136,378.800 191.000 C 379.020 190.864,379.200 189.773,379.200 188.576 C 379.200 187.379,379.380 186.400,379.600 186.400 C 379.835 186.400,380.000 185.008,380.000 183.024 C 380.000 181.167,380.180 179.536,380.400 179.400 C 380.649 179.246,380.800 175.470,380.800 169.400 C 380.800 163.330,380.649 159.554,380.400 159.400 C 380.180 159.264,380.000 157.723,380.000 155.976 C 380.000 154.125,379.833 152.800,379.600 152.800 C 379.378 152.800,379.200 151.733,379.200 150.400 C 379.200 149.067,379.022 148.000,378.800 148.000 C 378.580 148.000,378.400 147.100,378.400 146.000 C 378.400 144.900,378.220 144.000,378.000 144.000 C 377.780 144.000,377.600 143.370,377.600 142.600 C 377.600 141.830,377.420 141.200,377.200 141.200 C 376.980 141.200,376.800 140.480,376.800 139.600 C 376.800 138.720,376.620 138.000,376.400 138.000 C 376.180 138.000,376.000 137.460,376.000 136.800 C 376.000 136.140,375.843 135.600,375.652 135.600 C 375.460 135.600,375.178 134.659,375.026 133.510 C 374.873 132.360,374.605 131.235,374.429 131.010 C 373.395 129.681,374.033 126.800,375.361 126.800 C 375.965 126.800,384.800 118.129,384.800 117.536 C 384.800 117.308,385.295 116.644,385.900 116.060 C 386.505 115.477,387.255 114.505,387.568 113.900 C 387.880 113.295,388.263 112.800,388.419 112.800 C 388.575 112.800,388.927 112.260,389.200 111.600 C 389.473 110.940,389.815 110.400,389.959 110.400 C 390.103 110.400,390.576 109.592,391.010 108.604 C 391.445 107.616,391.935 106.806,392.100 106.804 C 392.265 106.802,392.400 106.440,392.400 106.000 C 392.400 105.560,392.580 105.200,392.800 105.200 C 393.020 105.200,393.200 104.840,393.200 104.400 C 393.200 103.960,393.380 103.600,393.600 103.600 C 393.820 103.600,394.000 103.240,394.000 102.800 C 394.000 102.360,394.180 102.000,394.400 102.000 C 394.620 102.000,394.800 101.640,394.800 101.200 C 394.800 100.760,394.980 100.400,395.200 100.400 C 395.420 100.400,395.600 99.860,395.600 99.200 C 395.600 98.540,395.780 98.000,396.000 98.000 C 396.220 98.000,396.400 97.651,396.400 97.224 C 396.400 96.797,396.580 96.336,396.800 96.200 C 397.020 96.064,397.200 95.524,397.200 95.000 C 397.200 94.476,397.380 93.936,397.600 93.800 C 397.820 93.664,398.000 92.933,398.000 92.176 C 398.000 91.419,398.180 90.800,398.400 90.800 C 398.620 90.800,398.800 90.206,398.800 89.480 C 398.800 88.754,399.025 87.935,399.300 87.660 C 399.682 87.278,399.800 83.697,399.800 72.513 C 399.800 61.152,399.688 57.829,399.300 57.700 C 399.013 57.605,398.800 56.864,398.800 55.967 C 398.800 55.105,398.620 54.400,398.400 54.400 C 398.180 54.400,398.000 53.680,398.000 52.800 C 398.000 51.920,397.820 51.200,397.600 51.200 C 397.380 51.200,397.200 50.660,397.200 50.000 C 397.200 49.340,397.020 48.800,396.800 48.800 C 396.580 48.800,396.400 48.451,396.400 48.024 C 396.400 47.597,396.220 47.136,396.000 47.000 C 395.780 46.864,395.600 46.313,395.600 45.776 C 395.600 45.239,395.420 44.800,395.200 44.800 C 394.980 44.800,394.800 44.440,394.800 44.000 C 394.800 43.560,394.620 43.200,394.400 43.200 C 394.180 43.200,394.000 42.930,394.000 42.600 C 394.000 42.270,393.820 42.000,393.600 42.000 C 393.380 42.000,393.200 41.640,393.200 41.200 C 393.200 40.760,393.020 40.400,392.800 40.400 C 392.580 40.400,392.400 40.040,392.400 39.600 C 392.400 39.160,392.220 38.800,392.000 38.800 C 391.780 38.800,391.600 38.536,391.600 38.214 C 391.600 37.401,390.324 34.800,389.926 34.800 C 389.747 34.800,389.600 34.564,389.600 34.275 C 389.600 33.987,389.240 33.364,388.800 32.892 C 388.360 32.420,388.000 31.889,388.000 31.713 C 388.000 30.629,373.469 16.000,372.393 16.000 C 372.177 16.000,372.000 15.820,372.000 15.600 C 372.000 15.380,371.730 15.200,371.400 15.200 C 371.070 15.200,370.800 15.050,370.800 14.868 C 370.800 14.685,370.305 14.280,369.700 13.968 C 369.095 13.655,368.251 13.085,367.825 12.700 C 367.398 12.315,366.813 12.000,366.525 12.000 C 366.236 12.000,366.000 11.820,366.000 11.600 C 366.000 11.380,365.640 11.200,365.200 11.200 C 364.760 11.200,364.400 11.020,364.400 10.800 C 364.400 10.580,364.040 10.400,363.600 10.400 C 363.160 10.400,362.800 10.220,362.800 10.000 C 362.800 9.780,362.440 9.600,362.000 9.600 C 361.560 9.600,361.200 9.420,361.200 9.200 C 361.200 8.980,360.912 8.800,360.560 8.800 C 359.964 8.800,357.902 8.008,356.305 7.166 C 355.923 6.965,355.338 6.800,355.005 6.800 C 354.672 6.800,354.400 6.620,354.400 6.400 C 354.400 6.180,353.860 6.000,353.200 6.000 C 352.540 6.000,352.000 5.820,352.000 5.600 C 352.000 5.380,351.280 5.200,350.400 5.200 C 349.520 5.200,348.800 5.020,348.800 4.800 C 348.800 4.580,348.080 4.400,347.200 4.400 C 346.320 4.400,345.600 4.220,345.600 4.000 C 345.600 3.780,344.711 3.600,343.624 3.600 C 342.537 3.600,341.536 3.420,341.400 3.200 C 341.062 2.654,320.000 2.654,320.000 3.200 M328.183 44.352 C 325.135 45.737,325.026 46.142,324.800 57.000 L 324.600 66.600 315.000 66.800 C 303.620 67.037,301.600 67.912,301.600 72.600 C 301.600 77.288,303.620 78.163,315.000 78.400 L 324.600 78.600 324.800 88.200 C 325.024 98.941,325.064 99.102,327.951 100.724 C 329.919 101.831,331.281 101.831,333.249 100.724 C 336.136 99.102,336.176 98.941,336.400 88.200 L 336.600 78.600 346.200 78.400 C 357.514 78.164,359.600 77.261,359.600 72.600 C 359.600 67.939,357.514 67.036,346.200 66.800 L 336.600 66.600 336.400 57.200 C 336.171 46.419,335.984 45.699,333.073 44.377 C 330.989 43.431,330.219 43.427,328.183 44.352 M212.359 151.712 C 211.436 152.332,210.119 154.159,208.252 157.412 C 206.740 160.046,205.139 162.830,204.693 163.600 C 204.247 164.370,203.343 165.990,202.683 167.200 C 202.024 168.410,201.350 169.580,201.185 169.800 C 201.020 170.020,200.526 170.830,200.086 171.600 C 199.647 172.370,196.774 177.410,193.702 182.800 C 187.443 193.781,187.547 193.682,185.559 190.504 C 184.766 189.237,182.966 186.358,181.559 184.107 C 168.275 162.860,168.245 162.864,153.599 188.355 C 153.269 188.930,152.549 190.117,151.999 190.994 C 151.450 191.871,150.815 192.951,150.588 193.394 C 150.188 194.179,149.712 194.205,132.588 194.400 C 115.271 194.597,114.978 194.614,113.568 195.491 C 109.593 197.963,109.952 203.476,114.226 205.594 C 116.243 206.593,152.495 206.808,155.200 205.836 C 157.008 205.187,158.010 203.832,163.737 194.291 C 166.342 189.951,168.616 186.400,168.790 186.400 C 169.089 186.400,171.786 190.335,173.166 192.783 C 178.615 202.453,183.978 209.841,185.983 210.442 C 190.209 211.708,191.750 210.290,197.324 200.000 C 197.979 198.790,198.650 197.620,198.815 197.400 C 198.980 197.180,199.494 196.325,199.957 195.500 C 200.421 194.675,201.160 193.370,201.600 192.600 C 202.040 191.830,202.779 190.525,203.243 189.700 C 203.706 188.875,204.220 188.020,204.385 187.800 C 204.550 187.580,205.229 186.410,205.894 185.200 C 207.311 182.622,211.427 175.370,213.691 171.465 C 215.462 168.410,215.305 168.386,217.297 172.000 C 219.109 175.289,220.230 177.331,224.875 185.800 C 227.409 190.420,230.023 195.190,230.683 196.400 C 231.343 197.610,232.335 199.410,232.886 200.400 C 233.438 201.390,234.479 203.280,235.200 204.600 C 235.921 205.920,236.936 207.765,237.455 208.700 C 237.975 209.635,238.821 211.165,239.335 212.100 C 239.850 213.035,241.488 216.013,242.976 218.717 C 247.657 227.228,251.043 228.990,254.874 224.909 C 255.680 224.050,266.292 206.766,268.571 202.600 C 268.812 202.160,270.263 199.692,271.795 197.115 L 274.580 192.430 298.190 192.315 C 320.270 192.207,321.878 192.152,323.000 191.466 C 327.064 188.981,326.943 183.162,322.786 181.119 C 320.837 180.162,271.377 180.033,269.113 180.979 C 267.983 181.451,265.600 183.849,265.600 184.514 C 265.600 184.607,262.855 189.262,259.500 194.858 C 256.145 200.455,253.165 205.477,252.878 206.017 C 250.965 209.616,251.953 210.834,241.994 192.600 C 240.071 189.080,238.051 185.390,237.505 184.400 C 236.958 183.410,235.921 181.520,235.200 180.200 C 234.479 178.880,233.394 176.900,232.789 175.800 C 232.184 174.700,229.217 169.300,226.196 163.800 C 223.175 158.300,220.469 153.464,220.182 153.054 C 218.578 150.761,214.754 150.105,212.359 151.712 M186.000 258.412 C 187.430 258.635,190.580 259.182,193.000 259.626 C 195.420 260.071,198.930 260.707,200.800 261.041 C 202.670 261.375,205.010 261.803,206.000 261.994 C 206.990 262.184,208.970 262.547,210.400 262.800 C 212.947 263.251,213.932 263.434,219.200 264.432 C 233.869 267.212,241.733 281.549,232.978 289.551 C 228.138 293.974,223.026 294.557,206.356 292.588 C 197.103 291.495,195.167 291.253,188.600 290.366 C 178.541 289.006,174.090 288.915,171.077 290.007 C 154.952 295.849,153.623 318.368,168.964 325.792 C 171.678 327.106,174.978 327.933,183.400 329.413 C 189.485 330.482,194.785 331.441,197.800 332.018 C 198.900 332.229,200.790 332.572,202.000 332.780 C 204.708 333.248,208.407 333.921,210.800 334.382 C 215.432 335.275,217.567 335.667,219.600 335.999 C 220.810 336.197,223.510 336.660,225.600 337.029 C 230.671 337.924,240.232 337.941,244.800 337.063 C 248.182 336.414,252.564 335.546,256.000 334.844 C 256.990 334.642,258.790 334.279,260.000 334.037 C 261.210 333.795,263.640 333.305,265.400 332.947 C 269.496 332.115,271.708 331.687,274.200 331.246 C 276.099 330.910,282.440 329.670,290.800 328.001 C 292.890 327.583,299.730 326.228,306.000 324.989 C 312.270 323.750,318.660 322.404,320.200 321.997 C 337.154 317.518,347.966 324.365,342.186 335.919 C 339.321 341.645,336.270 343.506,322.400 347.986 C 317.450 349.585,311.330 351.568,308.800 352.392 C 306.270 353.216,300.960 354.920,297.000 356.179 C 293.040 357.437,287.100 359.332,283.800 360.388 C 280.500 361.445,274.290 363.430,270.000 364.800 C 265.710 366.170,260.130 367.969,257.600 368.797 C 255.070 369.626,249.220 371.509,244.600 372.982 C 239.980 374.456,233.500 376.529,230.200 377.591 C 224.061 379.565,219.837 380.864,217.000 381.650 C 216.120 381.893,214.950 382.245,214.400 382.430 C 213.170 382.845,207.774 383.991,204.800 384.468 C 195.854 385.904,183.585 384.834,174.200 381.800 C 173.320 381.516,168.100 380.080,162.600 378.610 C 157.100 377.141,151.790 375.688,150.800 375.381 C 149.810 375.075,146.840 374.260,144.200 373.569 C 139.639 372.377,134.397 370.963,128.200 369.254 C 126.660 368.829,123.330 367.924,120.800 367.242 C 118.270 366.560,114.310 365.485,112.000 364.854 C 109.690 364.222,106.090 363.243,104.000 362.677 C 101.910 362.112,96.510 360.647,92.000 359.422 C 87.490 358.197,82.360 356.817,80.600 356.357 C 78.840 355.896,76.950 355.383,76.400 355.215 C 75.050 354.805,72.973 354.211,70.800 353.613 C 69.810 353.340,68.370 352.903,67.600 352.642 L 66.200 352.167 66.200 313.389 L 66.200 274.611 71.200 273.750 C 73.950 273.277,79.710 272.327,84.000 271.640 C 88.290 270.953,92.835 270.213,94.100 269.995 C 95.365 269.778,97.480 269.420,98.800 269.200 C 100.120 268.980,102.280 268.620,103.600 268.400 C 104.920 268.180,107.035 267.827,108.300 267.616 C 109.565 267.404,111.860 267.037,113.400 266.800 C 116.768 266.281,120.289 265.694,123.000 265.197 C 124.100 264.996,125.630 264.723,126.400 264.592 C 127.170 264.460,128.700 264.191,129.800 263.994 C 130.900 263.796,133.870 263.276,136.400 262.838 C 138.930 262.399,144.150 261.489,148.000 260.815 C 166.118 257.644,176.760 256.971,186.000 258.412 M54.310 312.800 C 54.370 338.650,54.321 360.207,54.201 360.704 L 53.983 361.607 32.891 361.504 L 11.800 361.400 11.697 314.000 C 11.640 287.930,11.680 266.373,11.786 266.096 C 11.937 265.699,16.413 265.615,33.089 265.696 L 54.200 265.800 54.310 312.800 " stroke="none" fill="#050505" fill-rule="evenodd"></path><path id="path1" d="M298.293 24.614 C 297.472 25.172,296.800 25.715,296.800 25.820 C 296.800 25.925,297.520 25.535,298.400 24.953 C 299.797 24.028,300.270 23.600,299.893 23.600 C 299.834 23.600,299.114 24.056,298.293 24.614 M279.264 44.113 C 279.229 44.945,278.928 46.278,278.595 47.074 C 278.262 47.871,278.063 48.596,278.152 48.686 C 278.543 49.076,279.645 45.199,279.494 43.964 L 279.328 42.600 279.264 44.113 M336.313 56.711 C 336.453 67.980,335.898 66.817,341.087 66.715 L 345.400 66.630 341.100 66.502 L 336.800 66.373 336.772 57.686 C 336.756 52.909,336.621 48.690,336.472 48.311 C 336.322 47.933,336.251 51.713,336.313 56.711 M324.491 57.692 L 324.400 66.385 315.500 66.500 L 306.600 66.616 315.513 66.708 C 322.438 66.779,324.469 66.686,324.621 66.290 C 324.729 66.009,324.764 62.004,324.700 57.390 L 324.583 49.000 324.491 57.692 M276.444 52.044 C 276.198 52.751,276.066 53.400,276.152 53.485 C 276.238 53.571,276.509 53.062,276.756 52.356 C 277.002 51.649,277.134 51.000,277.048 50.915 C 276.962 50.829,276.691 51.338,276.444 52.044 M273.293 65.200 C 273.293 65.970,273.375 66.285,273.476 65.900 C 273.576 65.515,273.576 64.885,273.476 64.500 C 273.375 64.115,273.293 64.430,273.293 65.200 M272.893 68.000 C 272.893 68.770,272.975 69.085,273.076 68.700 C 273.176 68.315,273.176 67.685,273.076 67.300 C 272.975 66.915,272.893 67.230,272.893 68.000 M302.396 69.300 C 301.960 70.015,301.602 70.765,301.601 70.967 C 301.600 71.423,301.656 71.348,302.714 69.500 C 303.766 67.663,303.497 67.494,302.396 69.300 M301.601 74.233 C 301.603 74.682,303.113 77.200,303.381 77.200 C 303.486 77.200,303.187 76.525,302.714 75.700 C 301.656 73.852,301.600 73.777,301.601 74.233 M272.901 77.000 C 272.905 77.880,272.987 78.193,273.083 77.695 C 273.179 77.198,273.175 76.478,273.075 76.095 C 272.975 75.713,272.896 76.120,272.901 77.000 M315.692 78.696 L 324.384 78.816 324.504 87.308 L 324.623 95.800 324.612 87.200 L 324.600 78.600 315.800 78.588 L 307.000 78.575 315.692 78.696 M336.601 78.900 C 336.308 79.738,336.180 97.627,336.472 96.889 C 336.621 96.510,336.756 92.291,336.772 87.514 L 336.800 78.827 341.100 78.698 L 345.400 78.570 341.087 78.485 C 337.934 78.423,336.728 78.534,336.601 78.900 M273.293 80.000 C 273.293 80.770,273.375 81.085,273.476 80.700 C 273.576 80.315,273.576 79.685,273.476 79.300 C 273.375 78.915,273.293 79.230,273.293 80.000 M128.800 81.831 C 125.459 82.220,121.237 82.949,119.200 83.487 C 117.990 83.807,116.460 84.212,115.800 84.387 C 107.222 86.659,96.878 92.736,88.973 100.147 C 83.840 104.959,82.562 105.391,78.931 103.541 C 78.021 103.077,75.825 103.393,76.162 103.939 C 76.269 104.112,76.007 104.507,75.579 104.815 C 75.150 105.124,74.800 105.657,74.800 106.000 C 74.800 106.343,74.440 106.883,74.000 107.200 C 73.560 107.517,73.200 108.007,73.200 108.288 C 73.200 108.570,73.020 108.800,72.800 108.800 C 72.580 108.800,72.400 109.100,72.400 109.467 C 72.400 109.833,72.283 110.016,72.139 109.873 C 71.996 109.729,71.668 110.014,71.410 110.506 C 70.335 112.559,69.757 113.432,69.000 114.150 C 68.438 114.682,68.349 114.961,68.700 115.087 C 68.975 115.186,69.200 115.522,69.200 115.833 C 69.200 116.145,69.374 116.400,69.586 116.400 C 71.940 116.400,72.530 121.583,70.641 125.664 C 67.936 131.511,67.294 133.070,65.892 137.200 C 54.791 169.899,62.049 208.662,83.962 233.699 C 88.780 239.204,105.615 256.000,106.307 255.992 C 107.069 255.983,110.474 255.475,114.200 254.814 C 115.520 254.580,117.770 254.205,119.200 253.980 C 122.911 253.397,125.855 252.903,128.500 252.420 C 129.765 252.189,131.835 251.811,133.100 251.580 C 136.085 251.035,139.690 250.409,142.200 250.000 C 144.299 249.658,146.757 249.240,152.400 248.266 C 161.836 246.638,168.132 246.000,174.779 246.000 C 180.231 246.000,186.508 246.579,192.200 247.607 C 193.520 247.845,195.590 248.211,196.800 248.420 C 198.010 248.628,199.900 248.971,201.000 249.182 C 202.100 249.393,204.080 249.761,205.400 250.000 C 206.720 250.239,208.700 250.607,209.800 250.818 C 210.900 251.029,212.790 251.372,214.000 251.580 C 216.008 251.927,218.220 252.339,222.600 253.182 C 238.947 256.329,251.488 272.966,247.841 286.665 C 243.989 301.129,230.766 307.512,210.200 304.833 C 208.660 304.632,205.600 304.269,203.400 304.026 C 201.200 303.783,198.140 303.419,196.600 303.217 C 195.060 303.016,192.270 302.654,190.400 302.413 C 188.530 302.173,185.650 301.793,184.000 301.571 C 173.965 300.217,172.082 300.872,170.111 306.400 C 168.490 310.948,171.792 315.373,177.600 316.436 C 178.590 316.617,180.480 316.971,181.800 317.223 C 184.677 317.771,186.978 318.189,190.200 318.748 C 191.520 318.976,193.500 319.333,194.600 319.540 C 195.700 319.747,198.760 320.304,201.400 320.779 C 204.040 321.254,207.460 321.892,209.000 322.196 C 214.835 323.351,228.354 325.583,232.078 326.007 C 236.812 326.546,241.489 325.925,257.827 322.590 C 258.282 322.497,261.048 319.942,263.974 316.911 C 266.900 313.880,272.467 308.160,276.347 304.199 C 285.057 295.306,301.508 278.474,310.363 269.394 C 314.013 265.650,321.410 258.088,326.800 252.589 C 341.293 237.803,345.211 233.627,348.062 229.934 C 350.890 226.270,354.000 221.792,354.000 221.384 C 354.000 221.241,354.349 220.634,354.775 220.036 C 356.678 217.363,361.533 206.716,363.274 201.400 C 364.349 198.114,366.235 190.570,366.749 187.500 C 366.997 186.015,367.417 183.585,367.681 182.100 C 368.738 176.174,368.214 158.965,366.747 151.400 C 365.452 144.720,362.588 134.800,361.955 134.800 C 361.772 134.800,360.582 135.269,359.311 135.841 C 355.669 137.482,355.603 137.508,351.630 138.792 C 342.069 141.884,326.631 142.933,318.200 141.064 C 290.566 134.940,270.638 116.736,263.612 91.200 C 263.340 90.210,262.963 89.002,262.774 88.516 L 262.432 87.632 259.516 88.834 C 249.827 92.828,238.518 100.390,230.200 108.437 C 214.664 123.466,214.459 123.487,201.857 111.290 C 189.804 99.624,177.210 91.210,165.800 87.200 C 159.602 85.021,155.327 83.795,151.800 83.182 C 150.260 82.915,148.370 82.536,147.600 82.339 C 146.113 81.960,131.163 81.556,128.800 81.831 M276.229 92.400 C 276.376 92.950,276.664 93.670,276.867 94.000 C 277.125 94.417,277.157 94.295,276.971 93.600 C 276.824 93.050,276.536 92.330,276.333 92.000 C 276.075 91.583,276.043 91.705,276.229 92.400 M324.809 97.514 C 324.787 98.755,327.752 101.610,329.047 101.596 C 329.241 101.594,328.660 101.149,327.755 100.606 C 326.850 100.064,325.819 99.031,325.464 98.310 C 325.109 97.590,324.814 97.231,324.809 97.514 M283.216 105.763 C 283.968 106.809,284.756 107.773,284.967 107.903 C 285.178 108.033,284.735 107.284,283.984 106.237 C 283.232 105.191,282.444 104.227,282.233 104.097 C 282.022 103.967,282.465 104.716,283.216 105.763 M285.200 108.525 C 285.200 108.594,285.785 109.179,286.500 109.825 L 287.800 111.000 286.625 109.700 C 285.530 108.488,285.200 108.216,285.200 108.525 M289.200 112.942 C 290.190 114.000,291.900 115.603,293.000 116.504 C 295.312 118.396,294.618 117.670,290.400 113.782 C 288.450 111.984,288.030 111.690,289.200 112.942 M295.398 118.396 C 295.631 118.773,299.423 121.435,300.800 122.189 C 301.993 122.842,300.588 121.725,297.873 119.861 C 296.373 118.831,295.259 118.172,295.398 118.396 M218.420 151.554 C 220.038 152.538,219.833 152.214,226.196 163.800 C 229.217 169.300,232.184 174.700,232.789 175.800 C 233.394 176.900,234.479 178.880,235.200 180.200 C 235.921 181.520,236.958 183.410,237.505 184.400 C 238.051 185.390,240.071 189.080,241.994 192.600 C 251.953 210.834,250.965 209.616,252.878 206.017 C 253.165 205.477,256.145 200.455,259.500 194.858 C 262.855 189.262,265.600 184.607,265.600 184.514 C 265.600 183.849,267.983 181.451,269.113 180.979 C 271.377 180.033,320.837 180.162,322.786 181.119 C 326.943 183.162,327.064 188.981,323.000 191.466 C 321.878 192.152,320.270 192.207,298.190 192.315 L 274.580 192.430 271.795 197.115 C 270.263 199.692,268.812 202.160,268.571 202.600 C 266.292 206.766,255.680 224.050,254.874 224.909 C 251.043 228.990,247.657 227.228,242.976 218.717 C 241.488 216.013,239.850 213.035,239.335 212.100 C 238.821 211.165,237.975 209.635,237.455 208.700 C 236.936 207.765,235.921 205.920,235.200 204.600 C 234.479 203.280,233.438 201.390,232.886 200.400 C 232.335 199.410,231.343 197.610,230.683 196.400 C 229.488 194.210,221.164 179.030,219.278 175.600 C 214.965 167.757,215.578 168.210,213.691 171.465 C 211.427 175.370,207.311 182.622,205.894 185.200 C 205.229 186.410,204.550 187.580,204.385 187.800 C 204.220 188.020,203.706 188.875,203.243 189.700 C 202.779 190.525,202.040 191.830,201.600 192.600 C 201.160 193.370,200.421 194.675,199.957 195.500 C 199.494 196.325,198.980 197.180,198.815 197.400 C 198.650 197.620,197.979 198.790,197.324 200.000 C 191.750 210.290,190.209 211.708,185.983 210.442 C 183.978 209.841,178.615 202.453,173.166 192.783 C 171.786 190.335,169.089 186.400,168.790 186.400 C 168.616 186.400,166.342 189.951,163.737 194.291 C 158.010 203.832,157.008 205.187,155.200 205.836 C 152.495 206.808,116.243 206.593,114.226 205.594 C 109.952 203.476,109.593 197.963,113.568 195.491 C 114.978 194.614,115.271 194.597,132.588 194.400 C 149.712 194.205,150.188 194.179,150.588 193.394 C 150.815 192.951,151.450 191.871,151.999 190.994 C 152.549 190.117,153.269 188.930,153.599 188.355 C 162.987 172.014,165.494 168.798,168.835 168.801 C 171.797 168.805,172.584 169.753,181.559 184.107 C 182.966 186.358,184.766 189.237,185.559 190.504 C 187.547 193.682,187.443 193.781,193.702 182.800 C 196.774 177.410,199.647 172.370,200.086 171.600 C 200.526 170.830,201.020 170.020,201.185 169.800 C 201.350 169.580,202.024 168.410,202.683 167.200 C 203.343 165.990,204.247 164.370,204.693 163.600 C 205.139 162.830,206.740 160.046,208.252 157.412 C 211.987 150.906,214.743 149.318,218.420 151.554 M173.100 257.895 C 174.255 257.976,176.145 257.976,177.300 257.895 C 178.455 257.814,177.510 257.748,175.200 257.748 C 172.890 257.748,171.945 257.814,173.100 257.895 M163.600 258.400 L 161.400 258.670 163.800 258.712 C 165.120 258.735,166.920 258.605,167.800 258.423 L 169.400 258.092 167.600 258.111 C 166.610 258.122,164.810 258.252,163.600 258.400 M182.200 258.423 C 183.080 258.605,184.610 258.742,185.600 258.727 L 187.400 258.700 185.600 258.380 C 184.610 258.203,183.080 258.067,182.200 258.076 L 180.600 258.092 182.200 258.423 M157.400 259.200 L 155.800 259.486 157.800 259.537 C 158.900 259.565,160.070 259.413,160.400 259.200 C 161.111 258.741,159.966 258.741,157.400 259.200 M188.200 259.200 C 188.640 259.389,189.720 259.536,190.600 259.526 L 192.200 259.508 190.600 259.177 C 189.720 258.995,188.640 258.848,188.200 258.851 L 187.400 258.856 188.200 259.200 M152.800 260.000 L 151.400 260.295 153.000 260.341 C 153.880 260.367,154.870 260.213,155.200 260.000 C 155.924 259.532,155.023 259.532,152.800 260.000 M192.594 259.991 C 192.733 260.216,193.587 260.400,194.490 260.400 C 196.510 260.400,196.356 260.197,194.071 259.846 C 192.931 259.672,192.427 259.721,192.594 259.991 M145.400 261.231 C 143.200 261.637,139.240 262.344,136.600 262.802 C 133.960 263.259,130.810 263.815,129.600 264.037 C 128.390 264.259,126.320 264.626,125.000 264.854 C 123.680 265.082,121.790 265.411,120.800 265.586 C 119.810 265.760,117.650 266.117,116.000 266.380 C 114.350 266.642,112.010 267.018,110.800 267.214 C 109.590 267.411,107.351 267.762,105.824 267.995 C 103.054 268.417,101.940 268.800,103.481 268.800 C 103.929 268.800,105.894 268.520,107.848 268.178 C 109.801 267.836,113.110 267.287,115.200 266.958 C 120.725 266.089,123.101 265.695,125.800 265.200 C 127.120 264.958,129.280 264.574,130.600 264.346 C 131.920 264.118,133.810 263.782,134.800 263.600 C 139.115 262.805,141.935 262.304,143.800 262.000 C 144.900 261.821,146.944 261.488,148.342 261.261 C 150.931 260.841,152.119 260.363,150.367 260.446 C 149.835 260.471,147.600 260.824,145.400 261.231 M196.496 260.629 C 196.622 260.756,197.777 261.033,199.063 261.246 C 200.348 261.458,202.390 261.795,203.600 261.993 C 204.810 262.192,206.160 262.439,206.600 262.543 C 207.561 262.770,211.435 263.513,214.200 264.001 C 221.905 265.360,223.915 266.019,227.848 268.477 C 233.475 271.992,237.779 279.476,236.042 282.722 C 235.799 283.176,235.600 283.932,235.600 284.402 C 235.600 285.899,231.996 290.400,230.797 290.400 C 230.579 290.400,230.400 290.536,230.400 290.702 C 230.400 290.869,229.815 291.240,229.100 291.529 C 228.385 291.817,227.487 292.221,227.105 292.426 C 226.723 292.632,225.643 292.803,224.705 292.806 C 223.767 292.809,222.730 293.004,222.400 293.238 C 221.350 293.984,225.984 293.353,228.499 292.407 C 241.033 287.696,238.801 272.699,224.600 266.214 C 221.921 264.991,220.634 264.648,214.800 263.605 C 213.370 263.349,211.390 262.987,210.400 262.800 C 209.410 262.613,207.520 262.268,206.200 262.032 C 204.880 261.796,202.413 261.333,200.717 261.002 C 197.469 260.368,196.115 260.248,196.496 260.629 M98.800 269.200 C 97.891 269.491,97.927 269.521,99.200 269.532 C 99.970 269.538,100.960 269.389,101.400 269.200 C 102.482 268.735,100.252 268.735,98.800 269.200 M94.000 270.000 C 93.028 270.311,93.033 270.320,94.200 270.320 C 94.860 270.320,95.850 270.176,96.400 270.000 C 97.372 269.689,97.367 269.680,96.200 269.680 C 95.540 269.680,94.550 269.824,94.000 270.000 M89.000 270.800 L 87.800 271.105 89.200 271.113 C 89.970 271.117,91.050 270.976,91.600 270.800 C 92.999 270.352,90.761 270.352,89.000 270.800 M84.200 271.600 L 83.000 271.905 84.400 271.925 C 85.170 271.935,86.160 271.789,86.600 271.600 C 87.664 271.143,85.997 271.143,84.200 271.600 M79.400 272.400 L 78.200 272.705 79.600 272.725 C 80.370 272.735,81.360 272.589,81.800 272.400 C 82.864 271.943,81.197 271.943,79.400 272.400 M74.200 273.200 C 73.044 273.494,73.059 273.507,74.600 273.547 C 75.480 273.569,76.470 273.413,76.800 273.200 C 77.536 272.725,76.068 272.725,74.200 273.200 M69.600 274.000 L 68.200 274.295 69.800 274.319 C 70.680 274.333,71.760 274.189,72.200 274.000 C 73.242 273.552,71.726 273.552,69.600 274.000 M66.184 274.900 C 66.079 275.175,66.040 292.673,66.097 313.783 L 66.200 352.167 67.600 352.642 C 68.370 352.904,69.810 353.337,70.800 353.605 C 71.790 353.873,73.050 354.227,73.600 354.391 C 76.182 355.160,77.636 355.566,80.600 356.349 C 82.360 356.814,87.490 358.197,92.000 359.422 C 96.510 360.647,101.910 362.112,104.000 362.677 C 106.090 363.243,109.690 364.222,112.000 364.854 C 114.310 365.485,118.270 366.560,120.800 367.242 C 123.330 367.924,126.660 368.829,128.200 369.254 C 133.799 370.798,139.499 372.340,144.000 373.529 C 146.530 374.198,150.130 375.185,152.000 375.724 C 156.879 377.130,158.000 377.337,158.000 376.832 C 158.000 376.594,157.381 376.400,156.624 376.400 C 155.867 376.400,155.136 376.220,155.000 376.000 C 154.864 375.780,154.234 375.600,153.600 375.600 C 152.966 375.600,152.336 375.420,152.200 375.200 C 152.064 374.980,151.434 374.800,150.800 374.800 C 150.166 374.800,149.536 374.620,149.400 374.400 C 149.264 374.180,148.533 374.000,147.776 374.000 C 147.019 374.000,146.400 373.820,146.400 373.600 C 146.400 373.380,145.781 373.200,145.024 373.200 C 144.267 373.200,143.536 373.020,143.400 372.800 C 143.264 372.580,142.634 372.400,142.000 372.400 C 141.366 372.400,140.736 372.220,140.600 372.000 C 140.464 371.780,139.834 371.600,139.200 371.600 C 138.566 371.600,137.948 371.440,137.827 371.244 C 137.706 371.049,136.931 370.773,136.104 370.633 C 132.476 370.015,131.981 369.892,131.773 369.556 C 131.652 369.360,131.034 369.200,130.400 369.200 C 129.766 369.200,129.136 369.020,129.000 368.800 C 128.864 368.580,128.234 368.400,127.600 368.400 C 126.966 368.400,126.348 368.240,126.227 368.044 C 126.106 367.849,125.376 367.579,124.604 367.444 C 123.832 367.310,122.568 367.090,121.796 366.956 C 121.024 366.821,120.294 366.551,120.173 366.356 C 120.052 366.160,119.434 366.000,118.800 366.000 C 118.166 366.000,117.548 365.840,117.427 365.644 C 117.306 365.449,116.621 365.201,115.904 365.095 C 115.187 364.988,113.250 364.513,111.600 364.039 C 109.950 363.565,107.520 362.920,106.200 362.607 C 104.880 362.293,103.080 361.832,102.200 361.581 C 101.320 361.331,100.013 361.032,99.296 360.919 C 98.579 360.805,97.894 360.551,97.773 360.356 C 97.652 360.160,96.933 360.000,96.176 360.000 C 95.419 360.000,94.800 359.820,94.800 359.600 C 94.800 359.380,94.181 359.200,93.424 359.200 C 92.667 359.200,91.936 359.020,91.800 358.800 C 91.664 358.580,91.034 358.400,90.400 358.400 C 89.766 358.400,89.136 358.220,89.000 358.000 C 88.864 357.780,88.234 357.600,87.600 357.600 C 86.966 357.600,86.336 357.420,86.200 357.200 C 86.064 356.980,85.344 356.800,84.600 356.800 C 83.856 356.800,83.136 356.620,83.000 356.400 C 82.864 356.180,82.234 356.000,81.600 356.000 C 80.966 356.000,80.336 355.820,80.200 355.600 C 80.064 355.380,79.434 355.200,78.800 355.200 C 78.166 355.200,77.536 355.020,77.400 354.800 C 77.264 354.580,76.634 354.400,76.000 354.400 C 75.366 354.400,74.736 354.220,74.600 354.000 C 74.464 353.780,73.834 353.600,73.200 353.600 C 72.566 353.600,71.936 353.420,71.800 353.200 C 71.664 352.980,70.933 352.800,70.176 352.800 C 69.419 352.800,68.800 352.620,68.800 352.400 C 68.800 352.180,68.378 352.000,67.863 352.000 L 66.926 352.000 66.663 344.736 C 66.026 327.155,66.351 275.269,67.100 274.832 C 67.763 274.446,67.763 274.424,67.087 274.412 C 66.696 274.405,66.289 274.625,66.184 274.900 M174.000 288.723 C 172.790 288.791,171.629 289.016,171.420 289.223 C 171.211 289.430,170.626 289.600,170.120 289.600 C 169.614 289.600,169.200 289.780,169.200 290.000 C 169.200 290.220,168.840 290.400,168.400 290.400 C 167.960 290.400,167.600 290.580,167.600 290.800 C 167.600 291.020,167.357 291.200,167.059 291.200 C 165.862 291.200,159.998 297.898,160.001 299.262 C 160.002 299.558,160.383 299.170,160.847 298.400 C 165.944 289.944,171.891 288.085,187.200 290.161 C 196.239 291.388,197.864 291.600,202.737 292.196 C 208.544 292.906,209.736 292.943,209.400 292.400 C 209.264 292.180,207.759 292.000,206.056 292.000 C 204.353 292.000,202.789 291.834,202.580 291.631 C 202.371 291.428,200.895 291.158,199.300 291.031 C 197.705 290.904,195.095 290.696,193.500 290.569 C 191.905 290.442,190.429 290.172,190.220 289.969 C 190.011 289.766,188.694 289.600,187.294 289.600 C 185.893 289.600,184.444 289.441,184.074 289.247 C 183.312 288.849,177.324 288.537,174.000 288.723 M212.000 293.217 C 215.251 293.666,216.884 293.660,216.600 293.200 C 216.463 292.978,214.894 292.825,213.076 292.856 C 209.828 292.912,209.819 292.915,212.000 293.217 M159.200 300.720 C 159.200 301.116,159.005 301.635,158.766 301.874 C 158.528 302.112,158.393 302.683,158.466 303.142 C 158.560 303.725,158.800 303.377,159.261 301.988 C 159.625 300.895,159.760 300.000,159.561 300.000 C 159.363 300.000,159.200 300.324,159.200 300.720 M157.852 305.300 C 157.511 306.572,157.553 311.307,157.910 311.869 C 158.074 312.127,158.209 310.552,158.209 308.369 C 158.209 304.034,158.204 303.989,157.852 305.300 M158.426 313.600 C 158.425 314.150,158.942 315.639,159.573 316.910 C 163.266 324.338,169.416 328.056,179.600 329.017 C 180.590 329.110,179.240 328.731,176.600 328.174 C 166.913 326.131,161.711 322.103,159.136 314.653 C 158.659 313.274,158.426 312.928,158.426 313.600 M326.000 320.786 C 325.187 320.950,326.864 321.067,330.000 321.067 C 333.663 321.066,334.885 320.966,333.800 320.756 C 331.875 320.383,327.930 320.399,326.000 320.786 M321.600 321.600 L 320.600 321.920 321.600 321.932 C 322.150 321.938,322.960 321.789,323.400 321.600 L 324.200 321.256 323.400 321.268 C 322.960 321.274,322.150 321.424,321.600 321.600 M336.000 321.600 C 336.330 321.813,336.870 321.988,337.200 321.988 C 337.733 321.988,337.733 321.945,337.200 321.600 C 336.870 321.387,336.330 321.212,336.000 321.212 C 335.467 321.212,335.467 321.255,336.000 321.600 M318.600 322.400 L 317.800 322.744 318.600 322.766 C 319.040 322.778,319.670 322.613,320.000 322.400 C 320.795 321.886,319.796 321.886,318.600 322.400 M315.000 323.200 L 313.800 323.505 315.276 323.553 C 316.088 323.579,316.864 323.420,317.000 323.200 C 317.277 322.751,316.763 322.751,315.000 323.200 M339.600 322.968 C 339.600 323.142,340.046 323.636,340.592 324.065 C 342.638 325.674,343.910 332.650,342.428 334.132 C 342.193 334.367,342.000 334.884,342.000 335.280 C 342.000 335.676,341.820 336.000,341.600 336.000 C 341.380 336.000,341.200 336.178,341.200 336.395 C 341.200 337.091,338.303 340.312,336.160 342.000 C 335.136 342.807,332.165 344.229,330.200 344.854 C 329.320 345.134,328.429 345.507,328.220 345.682 C 328.011 345.857,327.522 346.000,327.134 346.000 C 326.746 346.000,325.657 346.249,324.714 346.553 C 323.771 346.858,320.570 347.864,317.600 348.789 C 314.630 349.714,311.887 350.635,311.505 350.835 C 311.123 351.036,310.459 351.200,310.029 351.200 C 309.599 351.200,309.136 351.380,309.000 351.600 C 308.864 351.820,308.324 352.000,307.800 352.000 C 307.276 352.000,306.736 352.180,306.600 352.400 C 306.464 352.620,305.924 352.800,305.400 352.800 C 304.876 352.800,304.336 352.980,304.200 353.200 C 304.064 353.420,303.524 353.600,303.000 353.600 C 302.476 353.600,301.936 353.780,301.800 354.000 C 301.664 354.220,301.034 354.400,300.400 354.400 C 299.766 354.400,299.136 354.580,299.000 354.800 C 298.864 355.020,298.324 355.200,297.800 355.200 C 297.276 355.200,296.736 355.380,296.600 355.600 C 296.464 355.820,295.924 356.000,295.400 356.000 C 294.876 356.000,294.336 356.180,294.200 356.400 C 294.064 356.620,293.524 356.800,293.000 356.800 C 292.476 356.800,291.936 356.980,291.800 357.200 C 291.664 357.420,291.124 357.600,290.600 357.600 C 290.076 357.600,289.536 357.780,289.400 358.000 C 289.264 358.220,288.724 358.400,288.200 358.400 C 287.676 358.400,287.136 358.580,287.000 358.800 C 286.864 359.020,286.223 359.200,285.576 359.200 C 284.929 359.200,284.400 359.380,284.400 359.600 C 284.400 359.820,284.098 360.000,283.728 360.000 C 283.095 360.000,281.181 360.537,279.400 361.215 C 278.960 361.383,277.520 361.826,276.200 362.199 C 274.880 362.573,272.810 363.196,271.600 363.584 C 270.390 363.971,267.510 364.872,265.200 365.586 C 262.890 366.299,260.687 367.044,260.305 367.241 C 259.923 367.439,259.259 367.600,258.829 367.600 C 258.399 367.600,257.936 367.780,257.800 368.000 C 257.664 368.220,257.124 368.400,256.600 368.400 C 256.076 368.400,255.536 368.580,255.400 368.800 C 255.264 369.020,254.724 369.200,254.200 369.200 C 253.676 369.200,253.136 369.380,253.000 369.600 C 252.864 369.820,252.324 370.000,251.800 370.000 C 251.276 370.000,250.736 370.180,250.600 370.400 C 250.464 370.620,249.834 370.800,249.200 370.800 C 248.566 370.800,247.936 370.980,247.800 371.200 C 247.664 371.420,247.124 371.600,246.600 371.600 C 246.076 371.600,245.536 371.780,245.400 372.000 C 245.264 372.220,244.724 372.400,244.200 372.400 C 243.676 372.400,243.136 372.580,243.000 372.800 C 242.864 373.020,242.324 373.200,241.800 373.200 C 241.276 373.200,240.736 373.380,240.600 373.600 C 240.464 373.820,239.924 374.000,239.400 374.000 C 238.876 374.000,238.336 374.180,238.200 374.400 C 238.064 374.620,237.524 374.800,237.000 374.800 C 236.476 374.800,235.936 374.980,235.800 375.200 C 235.664 375.420,235.023 375.600,234.376 375.600 C 233.729 375.600,233.200 375.780,233.200 376.000 C 233.200 376.220,232.761 376.400,232.224 376.400 C 231.687 376.400,231.136 376.580,231.000 376.800 C 230.864 377.020,230.234 377.200,229.600 377.200 C 228.966 377.200,228.336 377.380,228.200 377.600 C 228.064 377.820,227.601 378.000,227.171 378.000 C 226.741 378.000,226.077 378.159,225.695 378.353 C 225.313 378.548,223.560 379.111,221.800 379.605 C 220.040 380.100,217.340 380.859,215.800 381.292 C 202.527 385.028,191.047 385.385,179.300 382.428 C 178.365 382.193,176.925 381.832,176.100 381.627 C 175.275 381.421,173.970 381.071,173.200 380.848 C 172.430 380.625,170.360 380.071,168.600 379.616 C 166.840 379.161,164.847 378.611,164.172 378.394 C 163.496 378.177,162.587 378.000,162.152 378.000 C 161.716 378.000,161.166 377.806,160.929 377.569 C 160.692 377.332,159.981 377.197,159.349 377.269 C 158.601 377.354,160.713 378.077,165.400 379.341 C 169.360 380.409,173.320 381.515,174.200 381.800 C 183.580 384.834,195.854 385.904,204.800 384.468 C 207.774 383.991,213.170 382.845,214.400 382.430 C 214.950 382.245,216.120 381.893,217.000 381.650 C 219.837 380.864,224.061 379.565,230.200 377.591 C 233.500 376.529,239.980 374.456,244.600 372.982 C 249.220 371.509,255.070 369.626,257.600 368.797 C 260.130 367.969,265.710 366.170,270.000 364.800 C 274.290 363.430,280.500 361.445,283.800 360.388 C 287.100 359.332,293.040 357.437,297.000 356.179 C 300.960 354.920,306.270 353.216,308.800 352.392 C 311.330 351.568,317.450 349.585,322.400 347.986 C 327.350 346.387,332.547 344.533,333.948 343.866 C 342.962 339.575,346.544 329.174,340.850 323.825 C 340.163 323.179,339.600 322.793,339.600 322.968 M311.200 324.000 C 310.220 324.314,310.224 324.321,311.400 324.354 C 312.060 324.373,312.870 324.213,313.200 324.000 C 313.958 323.510,312.730 323.510,311.200 324.000 M307.000 324.800 L 305.800 325.105 307.200 325.147 C 307.970 325.169,308.870 325.013,309.200 324.800 C 309.939 324.323,308.876 324.323,307.000 324.800 M303.000 325.600 L 301.800 325.905 303.200 325.947 C 303.970 325.969,304.870 325.813,305.200 325.600 C 305.939 325.123,304.876 325.123,303.000 325.600 M299.000 326.400 L 297.800 326.705 299.200 326.747 C 299.970 326.769,300.870 326.613,301.200 326.400 C 301.939 325.923,300.876 325.923,299.000 326.400 M291.600 327.805 C 284.874 329.183,276.495 330.840,274.200 331.246 C 271.263 331.766,267.584 332.488,260.400 333.955 C 259.410 334.158,257.610 334.515,256.400 334.750 C 252.154 335.573,250.653 336.017,253.000 335.754 C 254.861 335.546,272.879 332.100,281.000 330.400 C 281.880 330.216,283.590 329.876,284.800 329.646 C 286.010 329.415,287.540 329.120,288.200 328.989 C 291.440 328.346,293.182 328.007,295.151 327.637 C 297.340 327.225,298.355 326.775,296.967 326.831 C 296.545 326.848,294.130 327.286,291.600 327.805 M181.706 329.427 C 181.874 329.602,182.864 329.877,183.906 330.038 C 187.109 330.534,192.878 331.551,197.200 332.381 C 198.190 332.571,201.070 333.095,203.600 333.544 C 206.130 333.994,210.237 334.741,212.727 335.205 C 215.217 335.669,217.467 335.974,217.727 335.883 C 217.987 335.793,217.390 335.595,216.400 335.444 C 215.410 335.293,213.880 335.009,213.000 334.812 C 211.529 334.482,210.273 334.249,204.000 333.142 C 202.790 332.928,200.810 332.568,199.600 332.341 C 195.621 331.594,193.834 331.266,191.200 330.800 C 189.770 330.547,187.790 330.181,186.800 329.988 C 183.438 329.332,181.399 329.108,181.706 329.427 M219.600 336.400 C 220.150 336.576,221.140 336.720,221.800 336.720 C 222.967 336.720,222.972 336.711,222.000 336.400 C 221.450 336.224,220.460 336.080,219.800 336.080 C 218.633 336.080,218.628 336.089,219.600 336.400 M248.200 336.400 C 247.471 336.713,247.488 336.744,248.400 336.744 C 248.950 336.744,249.760 336.589,250.200 336.400 C 250.929 336.087,250.912 336.056,250.000 336.056 C 249.450 336.056,248.640 336.211,248.200 336.400 M224.000 337.200 C 224.550 337.376,225.720 337.517,226.600 337.514 L 228.200 337.508 226.600 337.177 C 225.720 336.995,224.550 336.854,224.000 336.863 L 223.000 336.880 224.000 337.200 M243.800 337.200 L 242.600 337.505 244.000 337.525 C 244.770 337.535,245.760 337.389,246.200 337.200 C 247.264 336.743,245.597 336.743,243.800 337.200 M230.289 338.063 C 230.680 338.217,233.070 338.344,235.600 338.344 C 238.130 338.344,240.520 338.217,240.911 338.063 C 241.302 337.908,238.912 337.782,235.600 337.782 C 232.288 337.782,229.898 337.908,230.289 338.063 " stroke="none" fill="#fb7d7b" fill-rule="evenodd"></path><path id="path2" d="M324.200 15.444 C 313.120 17.080,301.225 21.870,295.843 26.863 C 293.553 28.988,290.605 29.598,288.400 28.403 C 285.109 26.619,285.420 26.565,282.587 29.398 C 281.164 30.821,280.000 32.142,280.000 32.333 C 280.000 32.525,279.460 33.246,278.800 33.937 C 278.140 34.628,277.600 35.464,277.600 35.796 C 277.600 36.128,277.463 36.400,277.296 36.400 C 275.875 36.400,276.070 38.094,277.695 39.856 C 279.973 42.328,280.088 45.098,278.087 49.310 C 277.379 50.801,276.800 52.275,276.800 52.586 C 276.800 52.898,276.641 53.251,276.448 53.370 C 276.254 53.490,275.997 53.996,275.876 54.494 C 275.755 54.992,275.450 56.120,275.198 57.000 C 272.460 66.563,272.425 77.461,275.100 87.600 C 275.419 88.810,275.773 90.208,275.888 90.706 C 276.002 91.204,276.254 91.710,276.448 91.830 C 276.641 91.949,276.800 92.332,276.800 92.680 C 276.800 94.658,283.115 105.600,286.551 109.578 C 294.048 118.255,305.891 125.865,315.300 128.051 C 316.125 128.243,317.565 128.582,318.500 128.805 C 325.917 130.573,338.023 130.239,345.600 128.057 C 346.370 127.835,347.450 127.537,348.000 127.394 C 348.550 127.250,349.405 126.968,349.900 126.767 C 350.395 126.565,351.205 126.242,351.700 126.049 C 360.201 122.733,368.999 116.317,374.805 109.200 C 375.792 107.990,376.735 106.940,376.900 106.867 C 377.065 106.793,377.200 106.538,377.200 106.298 C 377.200 106.059,377.476 105.558,377.814 105.184 C 379.652 103.154,383.483 95.601,385.010 91.000 C 389.238 78.255,388.837 63.682,383.921 51.400 C 382.308 47.370,379.599 42.227,378.127 40.400 C 377.862 40.070,376.913 38.810,376.020 37.600 C 372.935 33.422,363.129 24.400,361.673 24.400 C 361.496 24.400,361.002 24.080,360.575 23.689 C 359.333 22.550,352.732 19.448,348.600 18.060 C 342.257 15.930,329.888 14.604,324.200 15.444 M334.334 44.797 C 336.606 46.969,336.800 47.978,336.800 57.649 L 336.800 66.400 345.674 66.400 C 357.378 66.400,359.594 67.374,359.599 72.520 C 359.603 77.865,358.098 78.568,346.300 78.732 L 336.800 78.863 336.791 87.732 C 336.779 99.619,335.878 101.595,330.462 101.599 C 325.354 101.602,324.648 100.065,324.400 88.400 L 324.200 79.000 314.800 78.800 C 303.089 78.551,301.600 77.838,301.600 72.479 C 301.600 67.441,303.336 66.654,315.000 66.400 L 324.200 66.200 324.400 56.800 C 324.618 46.570,324.689 46.247,327.146 44.412 C 328.936 43.076,332.746 43.280,334.334 44.797 " stroke="none" fill="#d3e7f3" fill-rule="evenodd"></path><path id="path3" d="M169.149 258.177 C 169.012 258.318,167.032 258.603,164.749 258.809 C 159.678 259.267,156.261 259.767,148.400 261.200 C 146.970 261.461,144.900 261.821,143.800 262.000 C 141.935 262.304,139.115 262.805,134.800 263.600 C 133.810 263.782,131.920 264.118,130.600 264.346 C 129.280 264.574,127.120 264.958,125.800 265.200 C 122.851 265.741,120.193 266.177,115.000 266.974 C 112.800 267.311,110.586 267.686,110.080 267.806 C 109.574 267.927,107.324 268.305,105.080 268.648 C 99.332 269.525,96.981 269.897,94.000 270.398 C 92.570 270.638,90.230 271.022,88.800 271.249 C 87.370 271.477,85.210 271.828,84.000 272.029 C 82.790 272.230,80.720 272.571,79.400 272.786 C 78.080 273.002,75.920 273.362,74.600 273.586 C 73.280 273.811,71.120 274.136,69.800 274.309 C 68.480 274.483,67.175 274.764,66.900 274.936 C 66.346 275.281,66.158 330.790,66.663 344.736 L 66.926 352.000 67.863 352.000 C 68.378 352.000,68.800 352.180,68.800 352.400 C 68.800 352.620,69.419 352.800,70.176 352.800 C 70.933 352.800,71.664 352.980,71.800 353.200 C 71.936 353.420,72.566 353.600,73.200 353.600 C 73.834 353.600,74.464 353.780,74.600 354.000 C 74.736 354.220,75.366 354.400,76.000 354.400 C 76.634 354.400,77.264 354.580,77.400 354.800 C 77.536 355.020,78.166 355.200,78.800 355.200 C 79.434 355.200,80.064 355.380,80.200 355.600 C 80.336 355.820,80.966 356.000,81.600 356.000 C 82.234 356.000,82.864 356.180,83.000 356.400 C 83.136 356.620,83.856 356.800,84.600 356.800 C 85.344 356.800,86.064 356.980,86.200 357.200 C 86.336 357.420,86.966 357.600,87.600 357.600 C 88.234 357.600,88.864 357.780,89.000 358.000 C 89.136 358.220,89.766 358.400,90.400 358.400 C 91.034 358.400,91.664 358.580,91.800 358.800 C 91.936 359.020,92.667 359.200,93.424 359.200 C 94.181 359.200,94.800 359.380,94.800 359.600 C 94.800 359.820,95.419 360.000,96.176 360.000 C 96.933 360.000,97.652 360.160,97.773 360.356 C 97.894 360.551,98.579 360.805,99.296 360.919 C 100.013 361.032,101.320 361.331,102.200 361.581 C 103.080 361.832,104.880 362.293,106.200 362.607 C 107.520 362.920,109.950 363.565,111.600 364.039 C 113.250 364.513,115.187 364.988,115.904 365.095 C 116.621 365.201,117.306 365.449,117.427 365.644 C 117.548 365.840,118.166 366.000,118.800 366.000 C 119.434 366.000,120.052 366.160,120.173 366.356 C 120.294 366.551,121.024 366.821,121.796 366.956 C 122.568 367.090,123.832 367.310,124.604 367.444 C 125.376 367.579,126.106 367.849,126.227 368.044 C 126.348 368.240,126.966 368.400,127.600 368.400 C 128.234 368.400,128.864 368.580,129.000 368.800 C 129.136 369.020,129.766 369.200,130.400 369.200 C 131.034 369.200,131.652 369.360,131.773 369.556 C 131.981 369.892,132.476 370.015,136.104 370.633 C 136.931 370.773,137.706 371.049,137.827 371.244 C 137.948 371.440,138.566 371.600,139.200 371.600 C 139.834 371.600,140.464 371.780,140.600 372.000 C 140.736 372.220,141.366 372.400,142.000 372.400 C 142.634 372.400,143.264 372.580,143.400 372.800 C 143.536 373.020,144.267 373.200,145.024 373.200 C 145.781 373.200,146.400 373.380,146.400 373.600 C 146.400 373.820,147.019 374.000,147.776 374.000 C 148.533 374.000,149.264 374.180,149.400 374.400 C 149.536 374.620,150.166 374.800,150.800 374.800 C 151.434 374.800,152.064 374.980,152.200 375.200 C 152.336 375.420,152.966 375.600,153.600 375.600 C 154.234 375.600,154.864 375.780,155.000 376.000 C 155.136 376.220,155.867 376.400,156.624 376.400 C 157.381 376.400,158.000 376.580,158.000 376.800 C 158.000 377.020,158.619 377.200,159.376 377.200 C 160.133 377.200,160.864 377.380,161.000 377.600 C 161.136 377.820,161.629 378.000,162.095 378.000 C 162.562 378.000,163.496 378.177,164.172 378.394 C 164.847 378.611,166.840 379.161,168.600 379.616 C 170.360 380.071,172.430 380.625,173.200 380.848 C 179.178 382.578,183.323 383.402,189.400 384.067 C 197.785 384.985,205.597 384.164,215.800 381.292 C 217.340 380.859,220.040 380.100,221.800 379.605 C 223.560 379.111,225.313 378.548,225.695 378.353 C 226.077 378.159,226.741 378.000,227.171 378.000 C 227.601 378.000,228.064 377.820,228.200 377.600 C 228.336 377.380,228.966 377.200,229.600 377.200 C 230.234 377.200,230.864 377.020,231.000 376.800 C 231.136 376.580,231.687 376.400,232.224 376.400 C 232.761 376.400,233.200 376.220,233.200 376.000 C 233.200 375.780,233.729 375.600,234.376 375.600 C 235.023 375.600,235.664 375.420,235.800 375.200 C 235.936 374.980,236.476 374.800,237.000 374.800 C 237.524 374.800,238.064 374.620,238.200 374.400 C 238.336 374.180,238.876 374.000,239.400 374.000 C 239.924 374.000,240.464 373.820,240.600 373.600 C 240.736 373.380,241.276 373.200,241.800 373.200 C 242.324 373.200,242.864 373.020,243.000 372.800 C 243.136 372.580,243.676 372.400,244.200 372.400 C 244.724 372.400,245.264 372.220,245.400 372.000 C 245.536 371.780,246.076 371.600,246.600 371.600 C 247.124 371.600,247.664 371.420,247.800 371.200 C 247.936 370.980,248.566 370.800,249.200 370.800 C 249.834 370.800,250.464 370.620,250.600 370.400 C 250.736 370.180,251.276 370.000,251.800 370.000 C 252.324 370.000,252.864 369.820,253.000 369.600 C 253.136 369.380,253.676 369.200,254.200 369.200 C 254.724 369.200,255.264 369.020,255.400 368.800 C 255.536 368.580,256.076 368.400,256.600 368.400 C 257.124 368.400,257.664 368.220,257.800 368.000 C 257.936 367.780,258.399 367.600,258.829 367.600 C 259.259 367.600,259.923 367.439,260.305 367.241 C 260.687 367.044,262.890 366.299,265.200 365.586 C 267.510 364.872,270.390 363.971,271.600 363.584 C 272.810 363.196,274.880 362.573,276.200 362.199 C 277.520 361.826,278.960 361.383,279.400 361.215 C 281.181 360.537,283.095 360.000,283.728 360.000 C 284.098 360.000,284.400 359.820,284.400 359.600 C 284.400 359.380,284.929 359.200,285.576 359.200 C 286.223 359.200,286.864 359.020,287.000 358.800 C 287.136 358.580,287.676 358.400,288.200 358.400 C 288.724 358.400,289.264 358.220,289.400 358.000 C 289.536 357.780,290.076 357.600,290.600 357.600 C 291.124 357.600,291.664 357.420,291.800 357.200 C 291.936 356.980,292.476 356.800,293.000 356.800 C 293.524 356.800,294.064 356.620,294.200 356.400 C 294.336 356.180,294.876 356.000,295.400 356.000 C 295.924 356.000,296.464 355.820,296.600 355.600 C 296.736 355.380,297.276 355.200,297.800 355.200 C 298.324 355.200,298.864 355.020,299.000 354.800 C 299.136 354.580,299.766 354.400,300.400 354.400 C 301.034 354.400,301.664 354.220,301.800 354.000 C 301.936 353.780,302.476 353.600,303.000 353.600 C 303.524 353.600,304.064 353.420,304.200 353.200 C 304.336 352.980,304.876 352.800,305.400 352.800 C 305.924 352.800,306.464 352.620,306.600 352.400 C 306.736 352.180,307.276 352.000,307.800 352.000 C 308.324 352.000,308.864 351.820,309.000 351.600 C 309.136 351.380,309.599 351.200,310.029 351.200 C 310.459 351.200,311.123 351.036,311.505 350.835 C 311.887 350.635,314.630 349.714,317.600 348.789 C 320.570 347.864,323.771 346.858,324.714 346.553 C 325.657 346.249,326.746 346.000,327.134 346.000 C 327.522 346.000,328.011 345.857,328.220 345.682 C 328.429 345.507,329.320 345.134,330.200 344.854 C 332.165 344.229,335.136 342.807,336.160 342.000 C 338.303 340.312,341.200 337.091,341.200 336.395 C 341.200 336.178,341.380 336.000,341.600 336.000 C 341.820 336.000,342.000 335.676,342.000 335.280 C 342.000 334.884,342.193 334.367,342.428 334.132 C 342.664 333.896,342.870 332.344,342.888 330.681 C 342.940 325.629,341.420 323.592,336.107 321.595 C 333.445 320.594,323.508 321.121,320.081 322.445 C 319.576 322.640,318.757 322.800,318.261 322.800 C 317.766 322.800,317.189 322.962,316.980 323.159 C 316.771 323.356,315.880 323.617,315.000 323.739 C 313.483 323.948,311.400 324.337,307.100 325.213 C 302.784 326.092,301.292 326.389,299.200 326.784 C 297.990 327.013,296.100 327.388,295.000 327.618 C 293.900 327.848,292.190 328.197,291.200 328.394 C 290.210 328.590,288.860 328.858,288.200 328.989 C 287.540 329.120,286.010 329.415,284.800 329.646 C 283.590 329.876,281.880 330.216,281.000 330.400 C 277.346 331.165,259.959 334.578,254.400 335.621 C 251.870 336.096,248.990 336.648,248.000 336.847 C 239.330 338.594,231.407 338.597,222.000 336.857 C 220.790 336.634,217.190 335.984,214.000 335.415 C 203.512 333.542,199.025 332.732,197.200 332.381 C 194.706 331.902,191.048 331.237,188.200 330.746 C 186.880 330.518,184.900 330.160,183.800 329.950 C 182.700 329.740,180.900 329.403,179.800 329.200 C 172.752 327.901,171.655 327.621,169.197 326.494 C 160.143 322.345,154.782 309.624,158.835 301.905 C 159.036 301.523,159.200 300.938,159.200 300.605 C 159.200 300.272,159.380 300.000,159.600 300.000 C 159.820 300.000,160.000 299.713,160.000 299.362 C 160.000 297.910,165.804 291.200,167.059 291.200 C 167.357 291.200,167.600 291.020,167.600 290.800 C 167.600 290.580,167.960 290.400,168.400 290.400 C 168.840 290.400,169.200 290.220,169.200 290.000 C 169.200 289.780,169.614 289.600,170.120 289.600 C 170.626 289.600,171.237 289.403,171.479 289.161 C 172.045 288.595,182.912 288.618,183.976 289.187 C 184.400 289.414,185.893 289.600,187.294 289.600 C 188.694 289.600,190.011 289.766,190.220 289.969 C 190.429 290.172,191.860 290.440,193.400 290.565 C 194.940 290.690,197.550 290.898,199.200 291.027 C 200.850 291.157,202.371 291.428,202.580 291.631 C 202.789 291.834,204.353 292.000,206.056 292.000 C 207.759 292.000,209.264 292.180,209.400 292.400 C 209.536 292.620,211.131 292.800,212.944 292.800 C 214.790 292.800,216.432 292.992,216.676 293.236 C 217.248 293.808,225.248 293.170,227.000 292.413 C 227.440 292.223,228.385 291.828,229.100 291.536 C 229.815 291.244,230.400 290.869,230.400 290.702 C 230.400 290.536,230.579 290.400,230.797 290.400 C 231.996 290.400,235.600 285.899,235.600 284.402 C 235.600 283.932,235.799 283.176,236.042 282.722 C 238.398 278.320,231.402 269.264,223.200 266.097 C 221.164 265.312,220.106 265.065,214.000 263.953 C 209.685 263.167,207.388 262.729,206.600 262.543 C 206.160 262.439,204.810 262.190,203.600 261.990 C 202.390 261.790,200.410 261.440,199.200 261.212 C 197.990 260.985,196.190 260.696,195.200 260.570 C 194.210 260.444,193.040 260.188,192.600 260.000 C 192.160 259.812,190.900 259.541,189.800 259.398 C 188.700 259.255,186.630 258.970,185.200 258.764 C 181.900 258.289,169.482 257.835,169.149 258.177 " stroke="none" fill="#fbd3a3" fill-rule="evenodd"></path><path id="path4" d="M324.227 15.147 C 323.581 15.286,326.452 15.400,330.606 15.400 C 334.760 15.400,337.628 15.286,336.980 15.147 C 336.331 15.008,333.460 14.895,330.600 14.895 C 327.740 14.895,324.872 15.008,324.227 15.147 M319.000 16.010 C 318.466 16.247,318.798 16.286,320.000 16.127 C 320.990 15.996,321.875 15.824,321.967 15.744 C 322.314 15.443,319.764 15.672,319.000 16.010 M340.200 16.000 C 341.892 16.431,343.344 16.431,342.000 16.000 C 341.450 15.824,340.550 15.683,340.000 15.687 C 339.102 15.694,339.122 15.726,340.200 16.000 M315.400 16.819 C 314.842 17.071,315.085 17.107,316.200 16.938 C 317.080 16.804,317.875 16.628,317.967 16.547 C 318.310 16.244,316.168 16.471,315.400 16.819 M344.000 16.800 C 345.368 17.238,346.419 17.238,345.400 16.800 C 344.960 16.611,344.240 16.462,343.800 16.468 C 343.157 16.477,343.196 16.543,344.000 16.800 M360.000 23.095 C 360.000 23.484,361.614 24.519,361.851 24.282 C 361.947 24.186,361.569 23.810,361.012 23.445 C 360.456 23.080,360.000 22.922,360.000 23.095 M362.400 24.540 C 362.400 24.669,363.435 25.539,364.700 26.473 C 365.965 27.407,367.765 28.875,368.700 29.736 C 369.635 30.597,370.389 31.144,370.376 30.951 C 370.339 30.398,362.400 24.017,362.400 24.540 M371.600 32.209 C 371.600 32.355,372.600 33.579,373.821 34.929 C 375.043 36.279,376.528 38.152,377.121 39.091 C 377.715 40.030,378.347 40.799,378.527 40.799 C 378.951 40.800,377.570 38.863,374.822 35.600 C 372.204 32.492,371.600 31.856,371.600 32.209 M379.324 42.200 C 379.662 42.860,380.238 43.760,380.604 44.200 C 380.970 44.640,380.865 44.280,380.370 43.400 C 379.280 41.458,378.464 40.522,379.324 42.200 M385.256 54.800 C 385.256 55.130,385.411 55.760,385.600 56.200 C 385.817 56.704,385.944 56.778,385.944 56.400 C 385.944 56.070,385.789 55.440,385.600 55.000 C 385.383 54.496,385.256 54.422,385.256 54.800 M386.068 57.600 C 386.088 58.639,386.718 60.346,386.732 59.400 C 386.738 58.960,386.589 58.240,386.400 57.800 C 386.189 57.310,386.061 57.232,386.068 57.600 M386.875 61.000 C 386.886 61.440,387.032 62.340,387.200 63.000 L 387.505 64.200 387.525 63.000 C 387.535 62.340,387.389 61.440,387.200 61.000 L 386.856 60.200 386.875 61.000 M387.693 66.400 C 387.693 67.170,387.775 67.485,387.876 67.100 C 387.976 66.715,387.976 66.085,387.876 65.700 C 387.775 65.315,387.693 65.630,387.693 66.400 M346.000 66.644 C 348.207 66.919,355.960 66.994,355.304 66.735 C 354.917 66.581,352.440 66.471,349.800 66.488 C 347.160 66.506,345.450 66.576,346.000 66.644 M358.568 69.745 C 359.026 70.685,359.456 71.319,359.524 71.154 C 359.673 70.795,358.546 68.537,358.071 68.244 C 357.887 68.130,358.111 68.806,358.568 69.745 M388.153 72.600 C 388.153 75.240,388.218 76.268,388.297 74.884 C 388.375 73.501,388.374 71.341,388.295 70.084 C 388.216 68.828,388.152 69.960,388.153 72.600 M358.600 75.332 C 358.114 76.312,357.253 77.231,356.406 77.673 C 355.640 78.073,355.252 78.400,355.544 78.400 C 356.916 78.400,359.940 75.081,359.524 74.033 C 359.456 73.861,359.040 74.445,358.600 75.332 M387.693 78.800 C 387.693 79.570,387.775 79.885,387.876 79.500 C 387.976 79.115,387.976 78.485,387.876 78.100 C 387.775 77.715,387.693 78.030,387.693 78.800 M347.516 78.697 C 348.899 78.775,351.059 78.774,352.316 78.695 C 353.572 78.616,352.440 78.552,349.800 78.553 C 347.160 78.553,346.132 78.618,347.516 78.697 M387.054 82.754 C 386.900 83.718,386.858 84.591,386.961 84.694 C 387.230 84.963,387.715 82.145,387.507 81.522 C 387.412 81.236,387.208 81.790,387.054 82.754 M386.250 86.450 C 385.917 88.117,386.240 88.440,386.600 86.800 C 386.752 86.109,386.793 85.459,386.691 85.358 C 386.589 85.256,386.391 85.747,386.250 86.450 M385.429 89.429 C 385.281 90.015,385.238 90.572,385.332 90.666 C 385.427 90.760,385.624 90.358,385.771 89.771 C 385.919 89.185,385.962 88.628,385.868 88.534 C 385.773 88.440,385.576 88.842,385.429 89.429 M380.308 101.300 C 379.433 102.649,378.648 104.256,379.087 103.800 C 379.648 103.217,381.298 100.400,381.079 100.400 C 380.976 100.400,380.629 100.805,380.308 101.300 M377.798 105.202 C 377.398 105.644,377.166 106.099,377.282 106.215 C 377.397 106.330,377.790 105.969,378.155 105.412 C 378.952 104.196,378.793 104.102,377.798 105.202 M374.881 109.053 C 373.936 110.234,373.244 111.200,373.344 111.200 C 373.631 111.200,376.919 107.183,376.751 107.037 C 376.668 106.966,375.826 107.873,374.881 109.053 M370.860 113.480 C 370.343 114.015,369.997 114.530,370.092 114.625 C 370.186 114.719,370.685 114.348,371.200 113.800 C 371.715 113.252,372.061 112.737,371.968 112.655 C 371.876 112.574,371.377 112.945,370.860 113.480 M368.171 116.103 L 367.000 117.397 368.200 116.399 C 368.860 115.849,369.475 115.355,369.567 115.300 C 369.658 115.245,369.645 115.112,369.538 115.004 C 369.430 114.896,368.815 115.391,368.171 116.103 M363.400 119.835 L 362.200 120.866 363.500 120.006 C 364.215 119.533,364.800 119.068,364.800 118.973 C 364.800 118.673,364.631 118.778,363.400 119.835 M356.493 123.780 C 355.239 124.472,354.862 124.901,355.812 124.555 C 356.798 124.195,358.314 123.186,357.789 123.239 C 357.575 123.261,356.992 123.504,356.493 123.780 M315.400 128.400 C 316.596 128.914,317.595 128.914,316.800 128.400 C 316.470 128.187,315.840 128.022,315.400 128.034 L 314.600 128.056 315.400 128.400 M344.400 128.400 C 343.605 128.914,344.604 128.914,345.800 128.400 L 346.600 128.056 345.800 128.034 C 345.360 128.022,344.730 128.187,344.400 128.400 M318.800 129.200 C 319.350 129.376,320.160 129.520,320.600 129.520 C 321.233 129.520,321.192 129.454,320.400 129.200 C 319.850 129.024,319.040 128.880,318.600 128.880 C 317.967 128.880,318.008 128.946,318.800 129.200 M340.600 129.200 L 339.800 129.544 340.600 129.532 C 341.040 129.526,341.850 129.376,342.400 129.200 L 343.400 128.880 342.400 128.868 C 341.850 128.862,341.040 129.011,340.600 129.200 M324.200 130.008 C 325.774 130.348,330.292 130.540,329.967 130.253 C 329.875 130.172,328.180 130.007,326.200 129.885 C 323.694 129.730,323.086 129.768,324.200 130.008 M333.200 130.000 L 331.000 130.270 333.200 130.312 C 334.410 130.335,336.120 130.205,337.000 130.023 L 338.600 129.692 337.000 129.711 C 336.120 129.722,334.410 129.852,333.200 130.000 M11.786 266.096 C 11.680 266.373,11.640 287.930,11.697 314.000 L 11.800 361.400 32.891 361.504 L 53.983 361.607 54.201 360.704 C 54.321 360.207,54.370 338.650,54.310 312.800 L 54.200 265.800 33.089 265.696 C 16.413 265.615,11.937 265.699,11.786 266.096 " stroke="none" fill="#63d9f9" fill-rule="evenodd"></path></g></svg>